<mxfile host="app.diagrams.net" modified="2023-04-28T06:15:51.462Z" agent="Mozilla/5.0 (X11; Linux x86_64; rv:102.0) Gecko/20100101 Firefox/102.0" etag="noZrhNXphaPx6tz72FYV" version="21.2.1" type="device">
  <diagram name="Page-1" id="gRtlbmR7pW3N4MIdEe42">
    <mxGraphModel dx="1114" dy="530" grid="1" gridSize="10" guides="1" tooltips="1" connect="1" arrows="1" fold="1" page="1" pageScale="1" pageWidth="850" pageHeight="1100" math="0" shadow="0">
      <root>
        <mxCell id="0" />
        <mxCell id="1" parent="0" />
        <mxCell id="lN7-8wadFzlhvA5FBbrK-65" value="&lt;div style=&quot;font-size: 14px;&quot;&gt;Aggregate Loss&lt;/div&gt;&lt;div style=&quot;font-size: 14px;&quot;&gt;L1+L2+L3&lt;br style=&quot;font-size: 14px;&quot;&gt;&lt;/div&gt;" style="rounded=0;whiteSpace=wrap;html=1;fillColor=none;dashed=1;strokeColor=#000000;strokeWidth=2;labelPosition=right;verticalLabelPosition=bottom;align=left;verticalAlign=top;spacingBottom=11;spacingTop=-52;spacingLeft=5;fontColor=#000000;fontStyle=1;fontSize=14;" vertex="1" parent="1">
          <mxGeometry x="805" y="110" width="50" height="400" as="geometry" />
        </mxCell>
        <mxCell id="-fCg1miDJRomZMjWpIMa-55" value="&amp;nbsp;&amp;nbsp;&amp;nbsp;&amp;nbsp;&amp;nbsp;&amp;nbsp;&amp;nbsp;&amp;nbsp;&amp;nbsp;&amp;nbsp;&amp;nbsp;&amp;nbsp;&amp;nbsp;&amp;nbsp;&amp;nbsp;&amp;nbsp;&amp;nbsp;&amp;nbsp;&amp;nbsp; Pure 2D Features" style="rounded=0;whiteSpace=wrap;html=1;dashed=1;fillColor=none;strokeWidth=2;strokeColor=#d79b00;labelPosition=center;verticalLabelPosition=top;align=center;verticalAlign=bottom;fontStyle=1;fontColor=#EF5D14;" parent="1" vertex="1">
          <mxGeometry x="160" y="110" width="640" height="100" as="geometry" />
        </mxCell>
        <mxCell id="-fCg1miDJRomZMjWpIMa-56" value="&amp;nbsp;&amp;nbsp;&amp;nbsp;&amp;nbsp;&amp;nbsp;&amp;nbsp;&amp;nbsp;&amp;nbsp;&amp;nbsp;&amp;nbsp;&amp;nbsp;&amp;nbsp;&amp;nbsp;&amp;nbsp;&amp;nbsp;&amp;nbsp;&amp;nbsp;&amp;nbsp;&amp;nbsp;&amp;nbsp;&amp;nbsp;&amp;nbsp;&amp;nbsp;&amp;nbsp;&amp;nbsp;&amp;nbsp;&amp;nbsp;&amp;nbsp;&amp;nbsp;&amp;nbsp;&amp;nbsp;&amp;nbsp;&amp;nbsp;&amp;nbsp;&amp;nbsp;&amp;nbsp;&amp;nbsp;&amp;nbsp;&amp;nbsp;&amp;nbsp;&amp;nbsp;&amp;nbsp;&amp;nbsp;&amp;nbsp;&amp;nbsp;&amp;nbsp;&amp;nbsp;&amp;nbsp;&amp;nbsp;&amp;nbsp;&amp;nbsp;&amp;nbsp;&amp;nbsp;&amp;nbsp;&amp;nbsp;&amp;nbsp;&amp;nbsp;&amp;nbsp;&amp;nbsp;&amp;nbsp;&amp;nbsp;&amp;nbsp;&amp;nbsp;&amp;nbsp;&amp;nbsp;&amp;nbsp;&amp;nbsp;&amp;nbsp;&amp;nbsp;&amp;nbsp;&amp;nbsp;&amp;nbsp;&amp;nbsp;&amp;nbsp; Context-aware 2D Features&amp;nbsp;&amp;nbsp;&amp;nbsp;&amp;nbsp;&amp;nbsp;&amp;nbsp;&amp;nbsp;&amp;nbsp;&amp;nbsp;&amp;nbsp;&amp;nbsp;&amp;nbsp;&amp;nbsp;&amp;nbsp;&amp;nbsp;&amp;nbsp;&amp;nbsp;&amp;nbsp;&amp;nbsp;&amp;nbsp; " style="rounded=0;whiteSpace=wrap;html=1;dashed=1;fillColor=none;strokeWidth=2;strokeColor=#d79b00;labelPosition=center;verticalLabelPosition=top;align=center;verticalAlign=bottom;fontStyle=1;fontColor=#ef5d14;" parent="1" vertex="1">
          <mxGeometry x="100" y="261" width="700" height="100" as="geometry" />
        </mxCell>
        <mxCell id="-fCg1miDJRomZMjWpIMa-58" value="&amp;nbsp;&amp;nbsp;&amp;nbsp;&amp;nbsp;&amp;nbsp;&amp;nbsp;&amp;nbsp;&amp;nbsp;&amp;nbsp;&amp;nbsp;&amp;nbsp;&amp;nbsp;&amp;nbsp;&amp;nbsp;&amp;nbsp;&amp;nbsp;&amp;nbsp; Pure 3D Features" style="rounded=0;whiteSpace=wrap;html=1;dashed=1;fillColor=none;strokeWidth=2;strokeColor=#d79b00;labelPosition=center;verticalLabelPosition=top;align=center;verticalAlign=bottom;fontStyle=1;fontColor=#EF5D14;container=1;" parent="1" vertex="1">
          <mxGeometry x="160" y="410" width="640" height="100" as="geometry" />
        </mxCell>
        <mxCell id="-fCg1miDJRomZMjWpIMa-8" value="&lt;b&gt;Single Slice&lt;br&gt;&lt;/b&gt;" style="edgeStyle=orthogonalEdgeStyle;rounded=0;orthogonalLoop=1;jettySize=auto;html=1;entryX=0;entryY=0.5;entryDx=0;entryDy=0;strokeWidth=2;fillColor=#dae8fc;strokeColor=#6c8ebf;" parent="1" target="-fCg1miDJRomZMjWpIMa-3" edge="1">
          <mxGeometry relative="1" as="geometry">
            <Array as="points">
              <mxPoint x="130" y="160" />
              <mxPoint x="130" y="160" />
            </Array>
            <mxPoint x="110" y="160" as="sourcePoint" />
          </mxGeometry>
        </mxCell>
        <mxCell id="-fCg1miDJRomZMjWpIMa-24" style="edgeStyle=orthogonalEdgeStyle;rounded=0;orthogonalLoop=1;jettySize=auto;html=1;exitX=0.25;exitY=1;exitDx=0;exitDy=0;entryX=0;entryY=0;entryDx=0;entryDy=30;entryPerimeter=0;fillColor=#dae8fc;strokeColor=#6c8ebf;strokeWidth=2;" parent="1" source="lN7-8wadFzlhvA5FBbrK-55" target="-fCg1miDJRomZMjWpIMa-2" edge="1">
          <mxGeometry relative="1" as="geometry" />
        </mxCell>
        <mxCell id="-fCg1miDJRomZMjWpIMa-42" value="" style="edgeStyle=orthogonalEdgeStyle;rounded=0;orthogonalLoop=1;jettySize=auto;html=1;" parent="1" source="-fCg1miDJRomZMjWpIMa-2" target="-fCg1miDJRomZMjWpIMa-23" edge="1">
          <mxGeometry relative="1" as="geometry" />
        </mxCell>
        <mxCell id="-fCg1miDJRomZMjWpIMa-2" value="&lt;div&gt;&lt;b&gt;3D Conv&lt;/b&gt;&lt;/div&gt;&lt;b&gt;Down &lt;/b&gt;x3" style="shape=cube;whiteSpace=wrap;html=1;boundedLbl=1;backgroundOutline=1;darkOpacity=0.05;darkOpacity2=0.1;fillColor=#dae8fc;strokeColor=#6c8ebf;" parent="1" vertex="1">
          <mxGeometry x="256" y="415" width="90" height="80" as="geometry" />
        </mxCell>
        <mxCell id="lN7-8wadFzlhvA5FBbrK-2" style="edgeStyle=orthogonalEdgeStyle;rounded=0;orthogonalLoop=1;jettySize=auto;html=1;exitX=1;exitY=0.5;exitDx=0;exitDy=0;entryX=0;entryY=0.5;entryDx=0;entryDy=0;" edge="1" parent="1" source="-fCg1miDJRomZMjWpIMa-3" target="lN7-8wadFzlhvA5FBbrK-1">
          <mxGeometry relative="1" as="geometry" />
        </mxCell>
        <mxCell id="lN7-8wadFzlhvA5FBbrK-11" style="edgeStyle=orthogonalEdgeStyle;rounded=0;orthogonalLoop=1;jettySize=auto;html=1;exitX=1;exitY=0.5;exitDx=0;exitDy=0;entryX=0.5;entryY=0;entryDx=0;entryDy=0;fillColor=#f5f5f5;strokeColor=#000000;dashed=1;dashPattern=1 2;strokeWidth=1.5;" edge="1" parent="1" source="-fCg1miDJRomZMjWpIMa-3" target="lN7-8wadFzlhvA5FBbrK-5">
          <mxGeometry relative="1" as="geometry">
            <Array as="points">
              <mxPoint x="360" y="160" />
              <mxPoint x="360" y="290" />
              <mxPoint x="400" y="290" />
            </Array>
          </mxGeometry>
        </mxCell>
        <mxCell id="-fCg1miDJRomZMjWpIMa-3" value="&lt;div&gt;&lt;b&gt;2D Conv&lt;/b&gt;&lt;/div&gt;&lt;div&gt;&lt;b&gt;Down&lt;/b&gt;&lt;/div&gt;&lt;div&gt;x3&lt;br&gt;&lt;b&gt;&lt;/b&gt;&lt;b&gt;&lt;/b&gt;&lt;/div&gt;&lt;div&gt;&lt;/div&gt;" style="rounded=0;whiteSpace=wrap;html=1;shadow=1;glass=0;fillColor=#dae8fc;strokeColor=#6c8ebf;" parent="1" vertex="1">
          <mxGeometry x="290" y="120" width="40" height="80" as="geometry" />
        </mxCell>
        <mxCell id="-fCg1miDJRomZMjWpIMa-4" value="&lt;div&gt;&lt;b&gt;3D to 2D Conversion&lt;/b&gt;&lt;/div&gt;(local context)" style="rounded=0;whiteSpace=wrap;html=1;fillColor=#f5f5f5;fontColor=#333333;strokeColor=#666666;" parent="1" vertex="1">
          <mxGeometry x="111" y="286" width="140" height="50" as="geometry" />
        </mxCell>
        <mxCell id="lN7-8wadFzlhvA5FBbrK-4" style="edgeStyle=orthogonalEdgeStyle;rounded=0;orthogonalLoop=1;jettySize=auto;html=1;exitX=1;exitY=0.5;exitDx=0;exitDy=0;entryX=0.5;entryY=1;entryDx=0;entryDy=0;fillColor=#f5f5f5;strokeColor=#000000;dashed=1;dashPattern=1 2;strokeWidth=1.5;" edge="1" parent="1" source="-fCg1miDJRomZMjWpIMa-6" target="lN7-8wadFzlhvA5FBbrK-1">
          <mxGeometry relative="1" as="geometry">
            <Array as="points">
              <mxPoint x="370" y="311" />
              <mxPoint x="370" y="180" />
              <mxPoint x="401" y="180" />
            </Array>
          </mxGeometry>
        </mxCell>
        <mxCell id="lN7-8wadFzlhvA5FBbrK-8" style="edgeStyle=orthogonalEdgeStyle;rounded=0;orthogonalLoop=1;jettySize=auto;html=1;exitX=1;exitY=0.5;exitDx=0;exitDy=0;entryX=0;entryY=0.5;entryDx=0;entryDy=0;" edge="1" parent="1" source="-fCg1miDJRomZMjWpIMa-6" target="lN7-8wadFzlhvA5FBbrK-5">
          <mxGeometry relative="1" as="geometry" />
        </mxCell>
        <mxCell id="-fCg1miDJRomZMjWpIMa-6" value="&lt;div&gt;&lt;b&gt;2D Conv&lt;/b&gt;&lt;/div&gt;&lt;div&gt;&lt;b&gt;Down&lt;/b&gt;&lt;/div&gt;&lt;div&gt;x3&lt;br&gt;&lt;/div&gt;&lt;div&gt;&lt;/div&gt;" style="rounded=0;whiteSpace=wrap;html=1;fillColor=#dae8fc;strokeColor=#6c8ebf;" parent="1" vertex="1">
          <mxGeometry x="290" y="271" width="40" height="80" as="geometry" />
        </mxCell>
        <mxCell id="-fCg1miDJRomZMjWpIMa-11" style="edgeStyle=orthogonalEdgeStyle;rounded=0;orthogonalLoop=1;jettySize=auto;html=1;exitX=1;exitY=0.5;exitDx=0;exitDy=0;entryX=0;entryY=0.5;entryDx=0;entryDy=0;strokeWidth=2;fillColor=#dae8fc;strokeColor=#6c8ebf;" parent="1" source="-fCg1miDJRomZMjWpIMa-4" target="-fCg1miDJRomZMjWpIMa-6" edge="1">
          <mxGeometry relative="1" as="geometry">
            <mxPoint x="61" y="176" as="sourcePoint" />
            <mxPoint x="331" y="171" as="targetPoint" />
            <Array as="points">
              <mxPoint x="261" y="311" />
              <mxPoint x="261" y="311" />
            </Array>
          </mxGeometry>
        </mxCell>
        <mxCell id="-fCg1miDJRomZMjWpIMa-38" style="edgeStyle=orthogonalEdgeStyle;rounded=0;orthogonalLoop=1;jettySize=auto;html=1;exitX=1;exitY=0.5;exitDx=0;exitDy=0;" parent="1" source="-fCg1miDJRomZMjWpIMa-19" target="-fCg1miDJRomZMjWpIMa-32" edge="1">
          <mxGeometry relative="1" as="geometry" />
        </mxCell>
        <mxCell id="-fCg1miDJRomZMjWpIMa-19" value="&lt;div&gt;&lt;b&gt;2D Conv Layer&lt;br&gt;&lt;/b&gt;&lt;/div&gt;&lt;div&gt;&lt;/div&gt;" style="rounded=0;whiteSpace=wrap;html=1;fillColor=#f5f5f5;fontColor=#333333;strokeColor=#666666;" parent="1" vertex="1">
          <mxGeometry x="429" y="120" width="40" height="80" as="geometry" />
        </mxCell>
        <mxCell id="-fCg1miDJRomZMjWpIMa-39" style="edgeStyle=orthogonalEdgeStyle;rounded=0;orthogonalLoop=1;jettySize=auto;html=1;exitX=1;exitY=0.5;exitDx=0;exitDy=0;entryX=0;entryY=0.5;entryDx=0;entryDy=0;" parent="1" source="-fCg1miDJRomZMjWpIMa-20" target="-fCg1miDJRomZMjWpIMa-33" edge="1">
          <mxGeometry relative="1" as="geometry" />
        </mxCell>
        <mxCell id="-fCg1miDJRomZMjWpIMa-20" value="&lt;div&gt;&lt;b&gt;2D Conv&lt;/b&gt;&lt;/div&gt;&lt;div&gt;&lt;b&gt;Layer&lt;/b&gt;&lt;/div&gt;&lt;div&gt;&lt;/div&gt;" style="rounded=0;whiteSpace=wrap;html=1;fillColor=#f5f5f5;fontColor=#333333;strokeColor=#666666;" parent="1" vertex="1">
          <mxGeometry x="429" y="271" width="40" height="80" as="geometry" />
        </mxCell>
        <mxCell id="-fCg1miDJRomZMjWpIMa-43" value="" style="edgeStyle=orthogonalEdgeStyle;rounded=0;orthogonalLoop=1;jettySize=auto;html=1;" parent="1" source="-fCg1miDJRomZMjWpIMa-23" target="-fCg1miDJRomZMjWpIMa-35" edge="1">
          <mxGeometry relative="1" as="geometry" />
        </mxCell>
        <mxCell id="-fCg1miDJRomZMjWpIMa-23" value="&lt;div&gt;&lt;b&gt;3D Conv&lt;/b&gt;&lt;/div&gt;&lt;b&gt;Layer&lt;/b&gt;" style="shape=cube;whiteSpace=wrap;html=1;boundedLbl=1;backgroundOutline=1;darkOpacity=0.05;darkOpacity2=0.1;fillColor=#f5f5f5;fontColor=#333333;strokeColor=#666666;" parent="1" vertex="1">
          <mxGeometry x="404" y="415" width="90" height="80" as="geometry" />
        </mxCell>
        <mxCell id="lN7-8wadFzlhvA5FBbrK-24" style="edgeStyle=orthogonalEdgeStyle;rounded=0;orthogonalLoop=1;jettySize=auto;html=1;exitX=1;exitY=0.5;exitDx=0;exitDy=0;entryX=0;entryY=0.5;entryDx=0;entryDy=0;" edge="1" parent="1" source="-fCg1miDJRomZMjWpIMa-32" target="lN7-8wadFzlhvA5FBbrK-23">
          <mxGeometry relative="1" as="geometry" />
        </mxCell>
        <mxCell id="lN7-8wadFzlhvA5FBbrK-27" style="edgeStyle=orthogonalEdgeStyle;rounded=0;orthogonalLoop=1;jettySize=auto;html=1;exitX=1;exitY=0.5;exitDx=0;exitDy=0;entryX=0.5;entryY=0;entryDx=0;entryDy=0;dashed=1;dashPattern=1 2;strokeWidth=1.5;" edge="1" parent="1" source="-fCg1miDJRomZMjWpIMa-32" target="lN7-8wadFzlhvA5FBbrK-25">
          <mxGeometry relative="1" as="geometry">
            <Array as="points">
              <mxPoint x="590" y="160" />
              <mxPoint x="590" y="290" />
              <mxPoint x="624" y="290" />
            </Array>
          </mxGeometry>
        </mxCell>
        <mxCell id="-fCg1miDJRomZMjWpIMa-32" value="&lt;div&gt;&lt;b&gt;2D Conv&lt;/b&gt;&lt;/div&gt;&lt;div&gt;&lt;b&gt;Up&lt;/b&gt;&lt;/div&gt;&lt;div&gt;x3&lt;br&gt;&lt;b&gt;&lt;/b&gt;&lt;b&gt;&lt;/b&gt;&lt;/div&gt;&lt;div&gt;&lt;/div&gt;" style="rounded=0;whiteSpace=wrap;html=1;fillColor=#d5e8d4;strokeColor=#82b366;shadow=1;" parent="1" vertex="1">
          <mxGeometry x="530" y="120" width="40" height="80" as="geometry" />
        </mxCell>
        <mxCell id="lN7-8wadFzlhvA5FBbrK-26" style="edgeStyle=orthogonalEdgeStyle;rounded=0;orthogonalLoop=1;jettySize=auto;html=1;exitX=1;exitY=0.5;exitDx=0;exitDy=0;entryX=0;entryY=0.5;entryDx=0;entryDy=0;" edge="1" parent="1" source="-fCg1miDJRomZMjWpIMa-33" target="lN7-8wadFzlhvA5FBbrK-25">
          <mxGeometry relative="1" as="geometry" />
        </mxCell>
        <mxCell id="lN7-8wadFzlhvA5FBbrK-28" style="edgeStyle=orthogonalEdgeStyle;rounded=0;orthogonalLoop=1;jettySize=auto;html=1;exitX=1;exitY=0.5;exitDx=0;exitDy=0;entryX=0.5;entryY=1;entryDx=0;entryDy=0;dashed=1;dashPattern=1 2;strokeWidth=1.5;" edge="1" parent="1" source="-fCg1miDJRomZMjWpIMa-33" target="lN7-8wadFzlhvA5FBbrK-23">
          <mxGeometry relative="1" as="geometry">
            <Array as="points">
              <mxPoint x="600" y="311" />
              <mxPoint x="600" y="180" />
              <mxPoint x="624" y="180" />
            </Array>
          </mxGeometry>
        </mxCell>
        <mxCell id="-fCg1miDJRomZMjWpIMa-33" value="&lt;div&gt;&lt;b&gt;2D Conv&lt;/b&gt;&lt;/div&gt;&lt;div&gt;&lt;b&gt;Up&lt;/b&gt;&lt;/div&gt;&lt;div&gt;x3&lt;br&gt;&lt;b&gt;&lt;/b&gt;&lt;b&gt;&lt;/b&gt;&lt;/div&gt;&lt;div&gt;&lt;/div&gt;" style="rounded=0;whiteSpace=wrap;html=1;fillColor=#d5e8d4;strokeColor=#82b366;shadow=1;" parent="1" vertex="1">
          <mxGeometry x="530" y="271" width="40" height="80" as="geometry" />
        </mxCell>
        <mxCell id="-fCg1miDJRomZMjWpIMa-54" style="edgeStyle=orthogonalEdgeStyle;rounded=0;orthogonalLoop=1;jettySize=auto;html=1;fillColor=#d5e8d4;strokeColor=#82b366;strokeWidth=2;" parent="1" source="-fCg1miDJRomZMjWpIMa-35" target="lN7-8wadFzlhvA5FBbrK-53" edge="1">
          <mxGeometry relative="1" as="geometry">
            <mxPoint x="710" y="455" as="targetPoint" />
          </mxGeometry>
        </mxCell>
        <mxCell id="-fCg1miDJRomZMjWpIMa-35" value="&lt;div&gt;&lt;b&gt;3D Conv&lt;/b&gt;&lt;/div&gt;&lt;b&gt;Up &lt;/b&gt;x3" style="shape=cube;whiteSpace=wrap;html=1;boundedLbl=1;backgroundOutline=1;darkOpacity=0.05;darkOpacity2=0.1;fillColor=#d5e8d4;strokeColor=#82b366;" parent="1" vertex="1">
          <mxGeometry x="533" y="415" width="90" height="80" as="geometry" />
        </mxCell>
        <mxCell id="-fCg1miDJRomZMjWpIMa-47" value="&lt;b&gt;Loss 1&lt;br&gt;&lt;/b&gt;" style="shape=flexArrow;endArrow=classic;startArrow=classic;html=1;rounded=0;entryX=0;entryY=0;entryDx=120;entryDy=49;exitX=0;exitY=0.5;exitDx=0;exitDy=0;width=6;endSize=4;startWidth=16;startSize=4;dashed=1;fillColor=#fad7ac;strokeColor=#b46504;entryPerimeter=0;edgeStyle=orthogonalEdgeStyle;" parent="1" source="lN7-8wadFzlhvA5FBbrK-58" edge="1" target="lN7-8wadFzlhvA5FBbrK-49">
          <mxGeometry width="100" height="100" relative="1" as="geometry">
            <mxPoint x="1008" y="415" as="sourcePoint" />
            <mxPoint x="1007" y="271" as="targetPoint" />
          </mxGeometry>
        </mxCell>
        <mxCell id="-fCg1miDJRomZMjWpIMa-59" value="&lt;div style=&quot;font-size: 13px;&quot;&gt;&lt;font style=&quot;font-size: 13px;&quot;&gt;&lt;b&gt;Convolution Sequence&lt;/b&gt;&lt;/font&gt;&lt;/div&gt;&lt;div style=&quot;font-size: 13px;&quot;&gt;&lt;font style=&quot;font-size: 13px;&quot;&gt;Conv + Normalization + Activation + Up/Down Sampling&lt;br&gt;&lt;/font&gt;&lt;/div&gt;" style="rounded=0;whiteSpace=wrap;html=1;fontColor=#333333;shadow=1;fillColor=#f5f5f5;strokeColor=#666666;" parent="1" vertex="1">
          <mxGeometry x="103" y="550" width="336" height="50" as="geometry" />
        </mxCell>
        <mxCell id="-fCg1miDJRomZMjWpIMa-60" value="&lt;div style=&quot;font-size: 13px;&quot;&gt;&lt;font style=&quot;font-size: 13px;&quot;&gt;&lt;b&gt;Feature Merging&lt;br&gt;&lt;/b&gt;&lt;/font&gt;&lt;/div&gt;&lt;div style=&quot;font-size: 13px;&quot;&gt;&lt;font style=&quot;font-size: 13px;&quot;&gt;(abs difference of feature sets with required upsampling)&lt;br&gt;&lt;/font&gt;&lt;/div&gt;" style="rounded=0;whiteSpace=wrap;html=1;shadow=1;fillColor=#ffe6cc;strokeColor=#d79b00;" parent="1" vertex="1">
          <mxGeometry x="458.5" y="550" width="336" height="50" as="geometry" />
        </mxCell>
        <mxCell id="lN7-8wadFzlhvA5FBbrK-3" style="edgeStyle=orthogonalEdgeStyle;rounded=0;orthogonalLoop=1;jettySize=auto;html=1;exitX=1;exitY=0.5;exitDx=0;exitDy=0;entryX=0;entryY=0.5;entryDx=0;entryDy=0;" edge="1" parent="1" source="lN7-8wadFzlhvA5FBbrK-1" target="-fCg1miDJRomZMjWpIMa-19">
          <mxGeometry relative="1" as="geometry" />
        </mxCell>
        <mxCell id="lN7-8wadFzlhvA5FBbrK-1" value="" style="shape=image;html=1;verticalAlign=top;verticalLabelPosition=bottom;labelBackgroundColor=#ffffff;imageAspect=0;aspect=fixed;image=https://cdn4.iconfinder.com/data/icons/ionicons/512/icon-ios7-minus-outline-128.png" vertex="1" parent="1">
          <mxGeometry x="394" y="153" width="14" height="14" as="geometry" />
        </mxCell>
        <mxCell id="lN7-8wadFzlhvA5FBbrK-9" style="edgeStyle=orthogonalEdgeStyle;rounded=0;orthogonalLoop=1;jettySize=auto;html=1;exitX=1;exitY=0.5;exitDx=0;exitDy=0;entryX=0;entryY=0.5;entryDx=0;entryDy=0;" edge="1" parent="1" source="lN7-8wadFzlhvA5FBbrK-5" target="-fCg1miDJRomZMjWpIMa-20">
          <mxGeometry relative="1" as="geometry" />
        </mxCell>
        <mxCell id="lN7-8wadFzlhvA5FBbrK-5" value="" style="shape=image;html=1;verticalAlign=top;verticalLabelPosition=bottom;labelBackgroundColor=#ffffff;imageAspect=0;aspect=fixed;image=https://cdn4.iconfinder.com/data/icons/ionicons/512/icon-ios7-minus-outline-128.png" vertex="1" parent="1">
          <mxGeometry x="392.5" y="304" width="14" height="14" as="geometry" />
        </mxCell>
        <mxCell id="lN7-8wadFzlhvA5FBbrK-23" value="" style="shape=image;html=1;verticalAlign=top;verticalLabelPosition=bottom;labelBackgroundColor=#ffffff;imageAspect=0;aspect=fixed;image=https://cdn4.iconfinder.com/data/icons/ionicons/512/icon-ios7-minus-outline-128.png" vertex="1" parent="1">
          <mxGeometry x="617" y="153" width="14" height="14" as="geometry" />
        </mxCell>
        <mxCell id="lN7-8wadFzlhvA5FBbrK-51" style="edgeStyle=orthogonalEdgeStyle;rounded=0;orthogonalLoop=1;jettySize=auto;html=1;entryX=0;entryY=0;entryDx=0;entryDy=41.5;entryPerimeter=0;fillColor=#d5e8d4;strokeColor=#82b366;strokeWidth=2;" edge="1" parent="1" source="lN7-8wadFzlhvA5FBbrK-25" target="lN7-8wadFzlhvA5FBbrK-50">
          <mxGeometry relative="1" as="geometry" />
        </mxCell>
        <mxCell id="lN7-8wadFzlhvA5FBbrK-25" value="" style="shape=image;html=1;verticalAlign=top;verticalLabelPosition=bottom;labelBackgroundColor=#ffffff;imageAspect=0;aspect=fixed;image=https://cdn4.iconfinder.com/data/icons/ionicons/512/icon-ios7-minus-outline-128.png" vertex="1" parent="1">
          <mxGeometry x="617" y="304" width="14" height="14" as="geometry" />
        </mxCell>
        <mxCell id="lN7-8wadFzlhvA5FBbrK-49" value="&lt;div style=&quot;font-size: 11px;&quot;&gt;&lt;font style=&quot;font-size: 11px;&quot;&gt;&lt;b&gt;Volume&lt;/b&gt;&lt;/font&gt;&lt;/div&gt;&lt;div style=&quot;font-size: 11px;&quot;&gt;&lt;font style=&quot;font-size: 11px;&quot;&gt;&lt;b&gt;Segmentation&lt;/b&gt;&lt;/font&gt;&lt;/div&gt;&lt;div style=&quot;font-size: 11px;&quot;&gt;&lt;font style=&quot;font-size: 11px;&quot;&gt;&lt;b&gt;Probability&lt;/b&gt;&lt;/font&gt;&lt;/div&gt;&lt;div style=&quot;font-size: 11px;&quot;&gt;&lt;font style=&quot;font-size: 11px;&quot;&gt;&lt;b&gt;Map 1&lt;br&gt;&lt;/b&gt;&lt;/font&gt;&lt;/div&gt;&lt;div style=&quot;font-size: 11px;&quot;&gt;&lt;font style=&quot;font-size: 11px;&quot;&gt;(Aggregated Slice-wise)&lt;br&gt;&lt;/font&gt;&lt;/div&gt;" style="shape=cube;whiteSpace=wrap;html=1;boundedLbl=1;backgroundOutline=1;darkOpacity=0.05;darkOpacity2=0.1;fillColor=#b0e3e6;strokeColor=#0e8088;size=10;" vertex="1" parent="1">
          <mxGeometry x="663" y="121" width="120" height="88" as="geometry" />
        </mxCell>
        <mxCell id="lN7-8wadFzlhvA5FBbrK-50" value="&lt;div style=&quot;font-size: 11px;&quot;&gt;&lt;font style=&quot;font-size: 11px;&quot;&gt;&lt;b&gt;Volume&lt;/b&gt;&lt;/font&gt;&lt;/div&gt;&lt;div style=&quot;font-size: 11px;&quot;&gt;&lt;font style=&quot;font-size: 11px;&quot;&gt;&lt;b&gt;Segmentation&lt;/b&gt;&lt;/font&gt;&lt;/div&gt;&lt;div style=&quot;font-size: 11px;&quot;&gt;&lt;font style=&quot;font-size: 11px;&quot;&gt;&lt;b&gt;Probability&lt;/b&gt;&lt;/font&gt;&lt;/div&gt;&lt;div style=&quot;font-size: 11px;&quot;&gt;&lt;font style=&quot;font-size: 11px;&quot;&gt;&lt;b&gt;Map 2&lt;br&gt;&lt;/b&gt;&lt;/font&gt;&lt;/div&gt;&lt;div style=&quot;font-size: 11px;&quot;&gt;&lt;font style=&quot;font-size: 11px;&quot;&gt;(Aggregated Slice-wise)&lt;br&gt;&lt;/font&gt;&lt;/div&gt;" style="shape=cube;whiteSpace=wrap;html=1;boundedLbl=1;backgroundOutline=1;darkOpacity=0.05;darkOpacity2=0.1;fillColor=#b0e3e6;strokeColor=#0e8088;size=10;" vertex="1" parent="1">
          <mxGeometry x="663" y="270" width="120" height="93" as="geometry" />
        </mxCell>
        <mxCell id="lN7-8wadFzlhvA5FBbrK-52" style="edgeStyle=orthogonalEdgeStyle;rounded=0;orthogonalLoop=1;jettySize=auto;html=1;entryX=0;entryY=0;entryDx=0;entryDy=39;entryPerimeter=0;fillColor=#d5e8d4;strokeColor=#82b366;strokeWidth=2;exitX=1;exitY=0.5;exitDx=0;exitDy=0;" edge="1" parent="1" source="lN7-8wadFzlhvA5FBbrK-23" target="lN7-8wadFzlhvA5FBbrK-49">
          <mxGeometry relative="1" as="geometry">
            <mxPoint x="641" y="321" as="sourcePoint" />
            <mxPoint x="710" y="322" as="targetPoint" />
          </mxGeometry>
        </mxCell>
        <mxCell id="lN7-8wadFzlhvA5FBbrK-53" value="&lt;div style=&quot;font-size: 11px;&quot;&gt;&lt;font style=&quot;font-size: 11px;&quot;&gt;&lt;b&gt;Volume&lt;/b&gt;&lt;/font&gt;&lt;/div&gt;&lt;div style=&quot;font-size: 11px;&quot;&gt;&lt;font style=&quot;font-size: 11px;&quot;&gt;&lt;b&gt;Segmentation&lt;/b&gt;&lt;/font&gt;&lt;/div&gt;&lt;div style=&quot;font-size: 11px;&quot;&gt;&lt;font style=&quot;font-size: 11px;&quot;&gt;&lt;b&gt;Probability&lt;/b&gt;&lt;/font&gt;&lt;/div&gt;&lt;div style=&quot;font-size: 11px;&quot;&gt;&lt;font style=&quot;font-size: 11px;&quot;&gt;&lt;b&gt;Map 3&lt;/b&gt;&lt;br&gt;&lt;/font&gt;&lt;/div&gt;" style="shape=cube;whiteSpace=wrap;html=1;boundedLbl=1;backgroundOutline=1;darkOpacity=0.05;darkOpacity2=0.1;fillColor=#b0e3e6;strokeColor=#0e8088;size=10;" vertex="1" parent="1">
          <mxGeometry x="663" y="408.5" width="120" height="93" as="geometry" />
        </mxCell>
        <mxCell id="lN7-8wadFzlhvA5FBbrK-54" value="" style="group" vertex="1" connectable="0" parent="1">
          <mxGeometry x="27" y="97.5" width="120" height="113.5" as="geometry" />
        </mxCell>
        <mxCell id="lN7-8wadFzlhvA5FBbrK-55" value="" style="shape=image;verticalLabelPosition=bottom;labelBackgroundColor=default;verticalAlign=top;aspect=fixed;imageAspect=0;image=data:image/png,iVBORw0KGgoAAAANSUhEUgAAA5oAAAE4CAIAAAC13BsQAAAACXBIWXMAAA7EAAAOxAGVKw4bAAAgAElEQVR4nOx9Z3Mc2Xl19+SccwIGwCBnEGDc5a643CRpZZWrLNn+Ipdc5fIvcPmH+INVrrJU5aC15ZVebdKS4i4zSIIgchxgMDnn2BP7/XDErhEAgsAuuLGPqlRcoNFz+05333Of5zznIWmaJliwYMGCBQsWLFiw+GaC81UPgAULFixYsGDBggWLzw+WzrJgwYIFCxYsWLD4BoOlsyxYsGDBggULFiy+wWDpLAsWLFiwYMGCBYtvMFg6y4IFCxYsWLBgweIbDJbOsmDBggULFixYsPgGg6WzLFiwYMGCBQsWLL7BYOksCxYsWLBgwYIFi28weJ/vzyqVSjweTyQSqVSKIAij0ajT6bRarVgsPtXhnQIKhUI+n08kEolEoru7u6ur60v40HK5XKlUAoFAOBzu6+vr7u5+7p80Gg2KonK5XCKRyOfzFEU1Go1Wq8Xj8YRCoUql0uv1CoVCKpXW6/VKpRIMBvf29prN5tGnJUlSJBIplUqn02kymQ49ptlsNhqNQqGQSCRyuVyxWKzVas1mk8/ni8ViqVQql8s1Go1Go+FyuTi+1WptbW3t7Oz09PR0dXXx+XyCIHZ3d6PRKO4EDPXkM8eCBQsWp49qtcq8NhuNxsEDSJLk8/lCoVDzFAqF4ssf55eMg32USJL8lg2jWq0mk8lsNktRlEgkstlsSqXyuX9VLBbz+Xwmk0mn0xRFVatVkiQ5HI5YLJZIJHq9XqfTCYVCDoeTSqWSyWQ8Hs9ms889rVQq1Wq1er3eaDQKhcJ9v41EIsFgEEu/3W53OByHnoSiKJ/PF4/HBQKBXC43m81qtfq5H91qtZrNpt/v397e1uv1PT09EomEz+d/Jd/4i8DnpLOFQuHJkycPHjx48uQJh8O5ePHizMzM5OTk15DOplKpnZ2dhw8fPnjw4G/+5m++HDqby+UikciHH35448aNv//7vz8Ona3X6+l0ent7+8GDB9vb24lEolQq1et1iUSi1WqHhoZmZmZ6enocDkepVIpGox9//PH//M//VCqVo0/L4/GMRmNvb+9PfvKTI+hspVLxer0PHjzY3Nz0+/3g0wqFQq/XOxyOrq6u0dFRpVIJOttoNGq12ieffPKrX/3q7/7u737605/K5fJWq3Xz5s3bt29PT09PTEy4XC6WzrJgweJrgnK5HI/Hr1279utf/7pUKu37LYfD4XA4CoVCrVaPj4+PjY2NjY19F+gsQRA0TdM0TZLkV05rMBKCIDic08wbl0ql1dXVzc3NRCKh0+nefvvt49DZVCq1vb29urq6vLyMyB2Xy+XxeCaTyWq1Xrhw4cyZM2q1ms/nb29vP378+P79++vr6889rd1un5ycPHfu3MWLFw/S2e3t7Y8++qhYLNbr9e9///vPorOlUunWrVuzs7Mqlaqrq+vKlSvHobPNZrNarT58+PAXv/jF2bNnf/azn1ksFh6P95V/76eFz0lny+Xyzs7OwsLC+vo6l8uVy+Varba/v/90B3dawKaKw+F8aV9bo9GoVCrRaHR7ezudTh99cL1eLxaLwWBwcXFxa2srHA6Xy2WJRCISiZrNJk3TlUplZ2enWCymUikOhyMQCPh8vkaj6ejooCiKOc/e3p7P51OpVEqlUqPR4InlcrlardZgMBy608DrI5VKra+vr62tra2t4SPUajWXyxUIBCKRKJVKpdPpWq3G5XKtVqvRaKRputVqxePxjY2NWCxWr9dbrVb7JH8d3owsWLBgwaDZbFIUFY/Ht7a2lEpld3e3QCDgcrkkSYJC0TSNjf36+no6nebxeHK5XC6XSySSr3rsLxDlchmLlMFg0Ol0KpXqK4lJ1Wq1XC6XTCaj0ahcLu/r6zvFvUSz2SwUCvF4PBqN0jTdvmgeikwmE4vFVlZW5ufnU6lUpVIRCoVY+AiCqFQqHo+Hy+Vms9nJycmuri6BQKBWqy0WS7lcJgii1Wo1Go1cLufxeGq1msPh0Gq1IpGIx+MRBGEymbRarVQqRWzoUEQiEa/XOzIygmW3/UiaphuNRrFY3N3dXV1dHR4ePv5Si4U7k8lsb2/bbDaKop6b3f1m4XPSWcS69/b2arUaj8fz+Xxerxff5dcNyAv09vaSJGmz2b7q4RyCWq0WiUQWFhb+7//+z+/3QxHR1dUFPppMJj0ez87OztzcXDQa1Wg03d3dOp3upZdecjqd7bfje++99/777/f19fX19Q0PD7tcLoIgSJIUCoVyufxZ107TdCQS+cMf/rC2tlatVk0m09TUlN1uNxgM1Wo1lUotLi7Ozs7mcrlSqXT+/Hm9Xn/oeXg8XmdnZ6VSwfBEItELmCoWLFiw+KIYHh7+q7/6K1A30Nlms1mr1fb29jwez8LCwuLiolqtNhqNnZ2d3246m8vlrl+/vrq6OjMzMzY21tfX95XQ2VKp5PP5FhYW7t6929nZ+dUqPSKRyIMHD+7du3fv3r2urq6JiQmLxWIymWq1GkVRy8vLa2trs7OzDx8+BKmwWq1qtbqvr69QKBAE0Wg0yuXy1tbWb37zm2w2+8orr0xMTGi1WtxIYrFYrVZrNJpD7yutVjs4OBgIBLxebyKRoChKKBTuo7O1Wq1YLMbj8VQqpVaru7u7vyNphOfixHQWX1UikYjFYhRF2e12Pp+fz+dDoVAul6Mois/nH7Ht+PIhkUh0Oh1BEGq12mq1HjyA2ZozaY4vLbKID83n86urq0tLSxRFmc3m8fHxoaEhq9Uql8tJksxms2azWSgUxmKxXC63tLQkEAhMJpPJZFIqle2SowcPHgiFQmwTe3p6RkZG8HOkSA59eBBFjsVi29vb2Wx2ZGRkcHBwcHDQbDarVKpqtZrL5aCCKBaLs7OzOp1uamrq0Pnh8XgdHR0ikUin02k0GpbOsmDB4usJjUbT39+PIBlDZxuNhl6vNxgMoVBob28vGo36fD6sHd9iNBqNdDodiUQymUy5XD5UVdy+RL6g5Fur1ULpSCQSkclk9Xr9dM9/TNTr9Vqt5vP5ZmdnU6lUV1fX2NjY9PS0yWTS6XT4rUwm02q1jx492trawv4Hy7FarcbsId1arVZlMhlFUVartbe312QyyWQygiC4XC4k2ofSJLVa3dvbOzc3h1iSz+czGo0Gg4E5oNlsptNp0C2CIAwGQ0dHB6vrAz4Pnc1kMtFoNJlMkiQ5PDzM4/Fu374djUbT6XSpVFIoFF8rOisWi0HynE6nQCA44shWq/XlS4hAZx8/fry8vGwymYaHh1977bXu7m5mV9BsNvv7++VyeTabTSQS8/PzarX6zJkzB7NgyF8IhUKZTKZSqdpfxFACHPz0er2ezWbj8Xg4HJZIJC+//PLU1BSUCVwul6Zps9kMKnzjxo1PPvlkYGCgWq2i8GsfQGetViuPx9uXH2HBggWLrw/EYrFGo9FqtTKZrF1sAHIAnWWhUPD7/b29vV/1YL8uAOnncDjf4nd7vV7P5/Mej+f+/fsul+udd94ZGRkZGBhg2Ger1bLZbJOTk6VSaXt7OxQKLS8vi8Viq9XKRLXr9bpAIFAqlXw+n8fjyWQyjUaj0+lAZwmCAMc4dEVWq9VCoVCv13O53HQ6vbW1xePx9tHZWCzm8XhKpZJEIjGbzXa7nQ0eASems7VaLRQK+f3+ZrNpMBiGh4e5XO7CwkKpVAoEAh0dHUKhsJ3u1Ov1arUaDof9fj+q5nk8Hp/PNxqN8EMA64JCtFgs+ny+UChULpfr9bpIJJLJZDqdjsfjBYNBHo83MTGhVqvT6XQikYhEIgqFYmhoSKVSMR8XDod3dnYIghCLxUaj0Wq1FovFbDYbCoWCweDQ0NDg4GA2m81ms+FwOJ1OY88UCATy+bzT6URMlKbpcDgci8VSqRTqsfh8vlwuN5lMHR0dKpWKz+fjXqQoqlwu4+oKhQJENhKJBPfrczU6UNiEQqFAIFAsFru7uycnJ202W/sVAR0dHTMzMz6fL5VKyWQyvFP2vVa4XC7UqwjHHko6DwIvqXq9jleVUCgUi8Xt+SaTydRsNvHddXV1PUs5XqvVNjY2/H6/2Ww2Go0ajUYmk7VarWKxGAgEotFoJpOhKAqVoRqNxmg02mw2REdwwnw+n06no9FoNBotl8vIs4jFYpvNZrfb5XI5XgetVqtUKuXz+UAgEIlEyuVytVrl8Xj4xo1GI+LWx7l2FixYfAfB4XD4T9H+NhMKhc1mUyqVCoXCfS+6arXKrDuZTAZ17mKxWKfT2e12MGO8clutVqvVisVigUAglUpls1lESVQqlUajsVqtNpuNeek1m014BGG5QR2CVCpVqVQOh8NgMEgkEkRhksnk+vo6RVEIEyaTSaw4MGQwmUwYhkqlwrqQTqeTyWQkEolEIrVarV6vY22y2+0Wi0WpVHI4nM3Nzfn5+c3NzVAoND8/T1FUqVTq6uqSSqW1Wi0cDpMkaTKZKIry+/1SqdTpdEJ8icUCH9q+0CwtLS0tLXV3dzudTpjbtFqtarUKk59MJlMqlaB/02g0er3eZrOJxeJcLrezs3P//v35+flQKNRoNN57772zZ8+OjY2hyDgWi/n9/kwmUygUWq0WQRAqlUqr1WJpaJ9M5qoTiQRCvMhhhsNhzO3RN0Y2m93Z2YlEItjbjI6OOp1OpgaaIAiapjGNIyMj8XjcbrcLBAIejwddLAMQWQwMy/ExV2SBQMDhcPR6vd1ur9Vq6+vrRqOx/QDQWZ/Px+fz7XY7kwjN5XLBYDAWi2UymUqlgnEqFAqj0ehwOORy+b4RtmNzc3N1ddVkMoF7gH60Wq1KpZLL5dbW1uLx+JkzZ3p7e2maTqfT8/PzyWTS4XDw+fxwOJzP5wmCEIvFKpXKYDCYzeZisej1evF1Ixxmt9txXwmFQnxZ5XIZpDEYDMIJCiZOZrPZZDLp9fqDLOi5ODGdxa3p9XpJkrRarchoazQaBMYdDgcTVGeOR4r82rVrHo8nFAqJRCKFQjE1NTU9PT06OsrQWZRD3bhx4+7du7FYrFAo4OEfHx8XiUS3bt3CfAkEAo/HA0FnZ2enwWBov+y9vb3333+fpmmdTjc9PW00GtPptNvtvn379s2bN3/+858PDAwkk8nt7e379+9vbGxMT0/b7fZPP/3U7/e/8847L7/8MofDqdfrCwsLc3NzGxsboVCoUqlIpVK73T4zM/PWW2+JRCIQR+KpYdnDhw+vX78eCAQSiYRardbr9f39/QMDAwfrZ/ehXq8nEolAIBCLxVqtVm9vLwwEDh5pMBiQ8gBfPOLWPCmY+i1EavP5/D51rFKpRPEZfEN4PN6hLwWKom7fvn3jxo2zZ89OT08PDAxIpVJksh4+fPjw4UO3243iUIPB0N/fPz09LZPJEAbGGTKZzMbGxtzc3OzsbCwWy2azeGe98sorV65csdvtuK9oms7lcl6v98aNG/fv34/H4/l8XiQS6fX6M2fOTE9Pz8zMsHSWBQsWnwPgHwKBAH5MzJuWoiiv17u0tDQ7O7u1tZXL5UiS1Ol0IyMjV65cGR4eZuI4qATCC2ptbc3tdjebTS6X63K5+vv7X375ZbPZzMQ4m80mNKOPHz9eX18HXTOZTL29va+99trk5CQGQxBEOBz+/e9/n0qlRkZGyuXy8vJyIBBIJpMcDkcmk01PT3/ve98bGhqSy+U4cywWW11dnZ2dffDgQT6fL5VKSqXSaDS++uqrly5dQmDi5s2b77///u7uLmi62+2Ox+PDw8M2my2Xy92/f5/D4czMzKTT6U8//dRqtb7zzju1Wm1tbY2iKB6Pd/bsWZPJ1M7S7t279y//8i9/8Rd/8cMf/tBut0ul0mazWSqVFhcX796963a7Q6EQl8tVqVT9/f3j4+OXL1/W6/WBQGB+fv7DDz9cXV2FwaXb7fb7/Uajkc/n1+v1zc3NGzdubG1t+Xw+kNTe3t7BwcFXX30VNSFgSK1WKxQK4aqXlpYKhQJJkk6n02w2i0Qi2FQd/e2n0+mVlZVYLKZQKGw2W09Pj0aj2RdGxV5oZGQEQR+w29O6/UAt9Hq9y+VqtVrr6+uMaBBoNBqQwaAoSKVScTicZrOZyWQePXo0NzcHW6Rms6lUKjs7O2dmZq5evfosbQPw+PHjf/u3fzt37twrr7zicrlAqEDJfD7fu+++Oz8//0//9E+9vb3NZjMSifzXf/3X0tLS1atX5XL5vXv3fD5fs9nU6/V9fX0TExNnz54Nh8Mff/zx1tZWNBrFlu/KlSs/+tGPzGazQCDAl1UoFKLR6K1bt27evBmLxZLJJOJc586dw07my6OzoVBIoVA4nU6tVttsNk0mEyz9/H4/M/vI3e/t7T148ACF+YhuNhqNer0ei8U+/PDDWq2G6lGBQDA/P//gwYNQKMTn83t7e0UiEdJAbrcbeyabzVar1Wiartfr5XI5l8sVCoV9N2itVsMbQSwW4+BGo1GtVguFAkoUiacOr4lEwuPxSKXSSqUil8vHx8c7OjrAlUOh0OLiYiwWgyUHZFUURQUCgc8++yyZTE5MTGDPt7Ozc+vWLY/HU61WIZHh8XgcDieTydy6dcvr9R49mY1GI5vNZjIZkiTlcrlKpVIoFIfu4ZBWEIlEWq1Wq9WeFp1lUiF6vT4ej9+/fz+TyfT390M7q1QqlUolAp8mkwn7EB6P9yx9ValUwoYMtrWQw6+vr6+uruZyuc7Ozu7ubph8BQIBGOIODg52dHRgz7e4uHjnzp1cLme1WqFyrtfrjUYjGAz+7ne/u3TpkkQiQenGysrK3bt3w+GwSCTq7+8XCATVarVWq+3s7FQqFbg6YCN4KrPEggWLbzFQ8Q1OEAqFYrFYtVpFfFQul6N4wOv13rt3b3t7m8/nDw8PE0/tuimKunv3biaTuXTpEjLOsVhsa2traWnJ7XbzeLzJyUkQXIqiFhcXxWKxQCDo6Oiw2WyIIz58+PDx48ckSfb29kLiValU8vn8vXv3ksnkyy+/3NPTg7duoVDw+XzFYlEikSgUCgwDVuXhcPjGjRutVqujowP+DCsrKx999FGtVrPb7YgOIpq7sbFRKpXefPPNoaGhgYGBdDoNXxqsX+Pj4w6HgyTJYrEYDodh1CqRSFCdbDQa4/F4pVJB1K1are7zi0VdTaFQQCi00Whsb29vbm4uLS3FYjFk5EAAIJwTi8Uul0ssFqPiiiAImPNMTU2dPXtWqVSGQiHMJEJFJpMJ3xTe9oibdnV1dXR05PP5ZDIJR85arWaz2UQiEXYC5XI5FApVq9XnJuURn6pWq3q9HoHPfUstqBiHwwHVxtSdYiUWArp6vX5wcNDtdoOb1ut1RJ1QBxaLxYLBYE9PT09Pj1KprFQqbrd7fX19cXExkUhYLJbOzk6CIGq1WqlU2tjY4HK5o6OjY2NjzyryoygqnU4XCoVqtdq+uLdaLagvkskkk2pGqjYUCq2vr8PE02azlcvlQqGwu7uLJwjuomNjY93d3bFYDDulxcXFZrMpk8nAARYWFm7fvp3P5xG0AilHJP7WrVs0TcOUSS6XH3/2PiedDQaDvb29SCjU63Wr1ZpMJsPhsM/na8+wt1qt7e3tX//61wRB2Gy2sbGxM2fOJJPJYDD46aefXr9+XSqVOhwO2Brfv3//3XffdTqdPT09MzMzXV1d8Xjc7XZ/8sknKysrOMNJR3sEKpVKOp3e2dlpNpvnzp2bnJy02+0EQTx+/Hhubm53d1coFL722mv9/f1isRgvHY/Hs7u7izC7WCxuNpvr6+vvvvsul8vt6emZmJiYnp7O5/OxWOzTTz+9du0aQRBH5xeazWY+n8/n83w+XyqVymQyJhS/D7ACUSqVDoeDw+GcFp3l8/kwl7VYLKFQ6NNPP11ZWRkeHu7r63O5XE6nEy5sEB+rVCo8bMd09ygUCnNzc/fu3YvH40ql8uLFi52dnYVCYX19/dq1a/F4HC8mnU7XaDQ8Hs/c3Ny1a9d6enpef/11JNoCgcDu7u6jR48+/PBDPp+P6g2BQPDkyZP33nuvs7PT5XJNTU11dnaGw+HNzc0//OEPOzs7/f39iCKzdJYFCxbHAVbucDi8vr4eDAZLpRI8ZJRKJdLuy8vLN2/eTCQSr7/++sTEBIxfdnd3l5aWbt++HQ6HbTabQqEQCASBQODatWs7OzuJRGJqaur111+H5uqzzz67du0aSZLVavV73/ue1WqNRCIIWz558uSNN964ePGiXq/ncDgLCwtLS0v37t3b2Niw2Wx452OcsFHv7u5+8803UbO7s7Nz586djY2Na9euaTSa119/HYctLCz87ne/e+mll5DaMplMT548WVhY2NraWlxcdLlcMzMzly9f7ujoKJVKHA7n/PnzyJdKpVKPx7O9vY3yeQ6HMzw8/PLLL/f19SEDfvzVp16vLy8vX79+PR6P0zR9/vz5sbExkPJr1649efIEx1y+fHlyclIoFGq12s8++6yrq+sf/uEfBgcHBQLB2tra7373u3w+r1AoxsfHL1y4wOFwqtXqnTt3/vjHPxIEkUwm33jjDbvdjtX8zp07N27ceOWVVy5cuOB0OmUyGcqssXD39fUdPWCKolKpVKvVQtb3Wfa3JElqtVrG6vXUxcQ6nW5oaGhvb29nZyeZTNZqNegbcZeCzk5MTIDOognAvXv39vb2pFLp5cuX+/r6+Hy+x+O5ceOG2+32+XyFQsHpdJ6iZ0W5XPZ4PEql8p133rHb7YlE4tGjR7/97W8XFxcfP3589uzZd955B4U0d+7cee+993w+39zcnEwm6+3trdfrhULh0aNH//7v/45YrMvl6ujoADPEjSGRSORy+cDAwIuis41Go1QqxWIx7M+MRiNul2q1arfbQ6HQ5uZmOBzOZrOQkMLpLRgMZjKZ7u5uPA+QB1gslnQ6HQ6HZTJZJpNptVp8Pj8ejxME0dfX9+qrrzqdTr1er9frJRJJMBgsFovJZPLEU/5s0DRdrVar1WpnZ+elS5eGhoY6OztlMlkymXS73R6Px2639/b2joyMdHR08Pl8CLTFYvGnn34aDAZ9Pl+1Wi2Xy4FAoFKp9Pb2vvLKK/39/U6ns1KpmM3mWCzm9XohbzpiGEjEQE8slUoZSe5B4Oen/tggs2axWK5evWo0Gt1ud7lczufzKysrbrcbYi/Egx0OR2dnp0KhOM7tBb1UuVx2u92BQADGYUNDQ2azGd4XmUwmlUqRJFmpVFqtVjKZXFhYSKfTTqdzdHR0ZGTEZDJBLKvT6dLp9ObmZiaTWVxc7O/vt1gsuVwuk8mMjIygJxmyBCqVChtHu92OZi2nO1csWLD4dmBpaekXv/iFTCZD6pOJziLpyeVyX3rppb6+PhgOwpl1a2tLoVCYzWbUBikUikajoVAoWq2W1+ut1+tut1sikXA4nEgksrKywufzz507B86BOgpIuaRSKfJXrVYLMgMOhzM0NDQyMjIyMgI3G4FAIJFIUqlUoVDwer17e3uMnb5IJDIajd3d3UNDQ729vVDKVqvVYrG4trbGtJOEzJSiKK1WOzIygmIGkiRh75NOpy0WC86GGApScEh/4eWJ9JpIJEIQamBgwGQyYZE6zgwjjpjP5/f29jY3N/v6+gYHBxGuq1arSqUynU57PB6hUIiUKVOzgTCEQqEgSTKRSIRCoXA4bDKZLl++PDAw0NXVxeFwQEWazabH45mdne3v74cUZHFxsVardXZ2jo6OTk9Po2uXSCQSiUThcBjqzKOHDfvber2O0OyzisKxbr64kjitVtvX1zc7O9toNJLJpNfrNRgMGo0mk8kEg0GosfV6fWdnp1gsho+sz+ez2+39/f3Dw8OdnZ0cDkcikTSbzYWFhfn5+b29vVgsJpFITmvMCNgPDw87nU673a7T6TKZjF6vL5fL0DR3dXUhLRAOh7u6upCILpVKNE3H43E4KcHG4fz58waDQavVajQalUoVDodrtVoymZyfn4eG+PijOgGdRS4GngYwKAWd5XA4drt9Z2cHLhtoJcfj8aDvDgaDlUrFbrdfvXrVYDDgYaBpGvVYBoMhl8vhTzKZjFQqnZiYePPNN5GyNxqNCoUiHo9TFIWd3GkBdLZerw8MDLz11ltqtVoulyNHgzvjypUrV69etVqtUGHi1qFp+ubNm/F43OfzYdjhcJjD4bhcrjfffFOv1+NpoWka0v7l5eWtra0jhoGqpnK5DLn0V1Uxajab33777YGBgfn5eYi9IBquVqv4bWdnJ3b5IP3PPSGsqguFgsfjicfjP/7xj69evQqGShCETCajaXp3dxeKYfRxWFhYaLVaUN6MjIzAeUSr1fb09AQCgaWlpWKxOD8/L5fLdTodVORqtdrlctlsNojH4ZWbz+fx2j1FeTELFiy+TXj8+PHi4uI+sgIjKpFI9KMf/ejq1auDg4NarZYkSXSHcrvd3d3do6OjExMTTGtJq9UKgSO8DiEGi0QiGxsbExMTr732Wl9fn8lkwosdJcXRaDSRSKBcDHTW6XSOj49PTk4ODg5iSBaLRaPRLC8vr66u+v3+nZ0dJhCIF+Dw8PDw8DBWeqwdPp+PidEg8UhRFJfLNRqNQ0NDUqlUIpEolUrod1OpFIq6jtjzYzXUaDQXL148d+4cAjrESYwskbmGP/3Vq1fffvttuFkRBKHVamGLFovF0Cro4J9DIRAKhVKp1Ojo6JtvvmmxWJjSPVzaL3/5y7m5uddee61Sqezu7s7Pz3M4HPDv6enp9slEa4zn5usQOAQXPILOvmhoNBr0wiWexuP5fL5KpUKFUj6fx+V3dHQQBJHP51G+duXKlStXrnR1dWk0GpzEZDLRNH379m1UY6P5/KmMUCqVDg4OwqIeFdjxeNxisbRaLavVitSu2WwmCKKjo6Ovry8ajRaLRYqi4HP/+PHjUqmE6NWFCxeQ9UXvXxQabmxsPH78eGpq6kSjOsGSD08Dj8dDURRKL1G6TtO0VqvV6TM1/qYAACAASURBVHRcLjefz3u9XrPZ7HQ6KYpCnBxheWiGmCLEnp6eN954QyqVisVit9sdDAaFQiEK65Bwx2HYjJrN5tP1dkY1qFgsRgMtSGqgWKpUKolE4s6dO/F4XKFQ4Fd4021tbQWDQbPZjJgrBNfwZxCLxXjSMGyNRuN0Ov1+/9HDQJm/SCSC/+sRSXzMc61WQxU/+tmclkUul8uVSCQWi4WmadTeoRMY2lUXCoVisbi0tJRIJC5fvnzlypXnMkV0YclkMrVaTSAQ4DZlqr6USmVvb69Op0O1H8z5kslkJpPBfgneuszZFhcXvV5vq9WSSCSNRgP3icvlCgaDv/3tb/HkqNVqmUwGTxO4o7N0lgULFofC5XKhwhgvbbzeYTKAl96tW7eUSqXVaoXXQS6XCwQCpVIpHo/v7OyALgDBYHBpaanVagkEAiSdisUi3AmMRqNKpUJohiAIs9lM03ShUEDmF6U2qVRqcHDQbrejSoEgCJqmQad0Op1ara5Wq9lslvFhFQqFMPZminsEAkF7wThBEGiag+5T6+vr//qv/wq3GYVCAfsFh8MB1ekRywfaT6KyAiKKE+W7UEoBxTBqv4xGI9MKC7E9uVxeKBRQAHTwDNVqNZPJIKS3tLT0y1/+EiFbxgYnn88vLy/jI1C2kUqlOjo64D7U/v6H6Q2zrzgCSJPW6/VKpYLam2ddHZTTcARCSPv4k/NcwBXBYDB0d3fX6/WNjQ1YyMXjca/XC09MtVrN4/GKxWIul6tUKiggs1gszCQLhUKVSqVWqxEbyufzxWLxtBxq+Xz+vmWdz+ejugY3HnN/gmgxFWDEU4F1KBTy+XyffPJJLBZjTlur1bxer9/vTyaT0PmcbN6Of2i9XoeWEf7AqLZBkTsuTCgUFotFj8djs9ksFgucTVDyhqlvf3jQ+4ogiGazGQ6HU6mUUChkege0z5pOpzOZTKfeqoTH4yHVgv1KvV4vlUq5XK5arSaTyevXr9+8eZN4Kv1mZoCiKJVKVSwWm81mKpWiadpkMmk0mn2vBqVS2dHR8dz6ery2wNKOprNEm9E0bppnGdd9DuDNhT0WHmD4RYdCIbfb/ejRo7t3766srNy4cYPL5U5NTcnl8udqgguFQjabBfuEaIH5LQQ0zJsCYjJkTPDW3jeZcJkRCAR6vb7ZbIpEoo6OjoGBgcXFxVu3bnV3d+Necrlcw8PDZrNZoVB8uxv5sGDB4otgZGTkZz/7GWJgTBuFarW6vLy8vLz84MGD5eXl3t7eiYkJpN3z+XwwGPR4PPAoaH/xgtOALOZyOdBZkiSlUqler2+XZhkMBoPBgPce5AcgYXAt3cczeDweVF5M+hs/R3RArVYzb2B4jbc7jikUCnBxnU63tLR069atgYGB/v7+rq6unp6egYEB0PSjuR0WBUgYPwcHAp0tFovQfSqVynYfdJFI5HQ6UbGE2UilUvvOwNBZiqLm5+dXV1fbpx07EET7UP+NouqBgQG4Orafis/n6/V6Jg51BAQCgVwuR1QLJ3/WkaDR5XK5VqvB4PJY83I8oPAL3UwbjcbGxsbw8DDKpDwej0AgQASHw+FAHAhBs06n0+v1zI2BLs1KpVIul3M4HNDZZzX1PCmgwNRoNEzgCTeMXC6HLoLZTsCao53+VSoVyGR3dnZ8Pt8HH3zAnBZPIpIkLpfr0KLzI3Di6Oz29jaKeP73f/93bm6OeNoL2+fzxWIxsVi8u7uL7AkzMgQR97UnYP4TcUccefAw4mkLgGOGIZlTHXEj/unKn8Y4cWaSJOEMh9voe9/7Xn9/PzoCMH/SbDYRju3t7U0kEtg4km1gjoSXx3H2ggqFQqFQ1Go1qJ0qlQpGte/IUqmUTqeXl5chFbp69Sp2CMeZkyNQKpWi0Wgul6vVagqFwuFwQEuAmw91CSKRyGKx3Lx589q1a6lUand3F4UFR58Z2TRojPZ9fcyEMz/BdMGt0GQyGQyG9ktDwSMa9kDkPjIygvpiWIS0Wq1UKpXJZFZXV81m88zMTF9fH9NUkAULFizaIRaLkVFk6CwWDi6Xq9FowuFwKBTKZDLhcBhvQpBLyAT3kVS86KRSqcFgkMlkyOYx7odHv/faf8X8nDmMeW22L2fPUm22nxZ9p86cOUMQBLSnOD9kuAsLCxaL5fz58yMjI0eQMCQwEVo+fg4QEmQEuTAzxFPzqWNOBQMsCiifGBkZOX/+fLvODRPSaDRQya3RaGB6c5A/EE8njQmTHwEY4qJGKJvNPsunFoLpnZ2dcDhcLpcvX74MW4bTAi7BYDAMDg5ub29vb28j0R2NRr1eL5KTarX60Ntm30mYG4n5Oo4P/MkRVOrQqT6UwrX/JwgunDf7+vraO5XQT8Hn89G670QDPhYfwvVUq9VgMAjbrHK5/Nvf/rZ9lBiEWq32eDyBQAA7m/bnkPk3w2IxueCImLX2P2FOzvzw4Me1TzT9tLNLs9l87uOH+7u99ArvLKRUdDrdD3/4w+9///uQELSfHGPmcDhPnjzZ3Nw8OJiDL6MjwOVyQWcbjUaxWASdPfRtVSqVgsHgnTt3fvWrX7311ltnz55VKBT75uRzoFQqeTwe9ICwWq0IV2BgsMnQarV2u318fDyfz3/22WfZbBbuZs+ls+0Tsm9y2r9oTBQ2dhaLBVXDAwMDjMaDOKxb28DAgMvlikQioVBoa2tra2tre3vb4/HEYjGVStVoNFDTwNJZFixYHATjeIiuYPghTdNGo7Gzs/Pu3buzs7PZbDYSiUA+i9Tq+fPnL126hKIo4sCiQJJkPB73eDzMa/mI996+QGM7aaDbOsoeXOYODRDsA6xvJiYmxsbG0IXV7Xbv7OxsbGzs7Ow0Gg1YiTudzuee5FkU8FnrL+jswZlhDjg4FcTTQueDA4DaQafTXbp06R//8R/RHOvQyazVamKxGOehD6NfWGWedbEMcGOEQiHIThqNBoIy7TcJQRDNZnNvb+/OnTtbW1v5fN5ut58unQX0ev3w8LDb7YZPGUVRkUjE6/W6XC6Xy7Uv9/usb2Tffx46Oe1n2PcTZnNyfByH9kAx2NXV9fbbb7/xxhvPuoqT0ptj0dlWq5XP56FhJwjiwoULXV1daHjNHJPJZHw+XzgchiEzGkWg7hKBTCb+iuPhSCoUCgUCQSqVUqlUXq8XlnXthzUajVQqFYvFKIpqZyc0Tdfr9YN9PiqVSiqVQur8RBOBMCSM/QmCSKVS0WjUbDaDziIC7ff7l5eXpVLpyMgIbIrD4XAkEoGmon3YSE5hEo4AkiAoDAwEAhsbG3q9fmhoqL2pHTO9q6ur8XgciXtUmH5BLksQRKvVqtVqiUQCxuDoarGPTLdHmpFNeG5ihcPhwK8R2ZBcLpfL5Zj2NoVCIRgMRiIROBHCogVu1WiV3P6d0jS9traGDsAmkwlCgmAwmEgkTCaTw+GQSqWdnZ3T09N+v//evXuJRCKRSOzs7JjN5m99v3UWLFicIkBcBAKBSCSiabparTabTYFAANUpFkEmRU4QBE3T8PBqNBpmsxmO+hCPIZ+GVuR4UUej0VAoFI1G4/H41NRUX1+fVCpVq9UURYXDYVgNMMDCl0qlurq60C71+FeBpgmARCJxuVw6na6/vx/+9rdu3XK73fDeab+WEwELR6PRYJhHrVZD8h2TRpIkFikej0dRVD6fz2QyqK8iCIKiKGYJEIlEU1NTB/vPwx1SIBBARYBGocw8pFKpRCIRDAZDodDExER/fz8mE/73+wy5MJnxePy5FpNqtXpgYCASiTx69Mjv929vb8OLqX2phS4FVk4cDqejo+MUfWfbAX8DjUbTaDTg3+/1eimK0mg0uCvQQQObE1xjIpFg0pKQQ+RyuXw+D5dPpsXGocB1Mfn9VqtVKBTaHWdPC2gAgfaf+zhSvV7f3d0NhUI0TYtEop6eHtSTHRPHorPNZjObzUaj0VQqxeFwzp079/3vf9/pdLbTBb/fPzs7++mnn3q93mg0ms1mlUolbkcUFVUqlXq9zuPxwL43Nzfff/99yC9EIpFOp0OhFVqhIstP03SlUsFboFwuM3QWkXNUccJpH5Zs8L1KpVJoVHv8WcA5QWchDMWjwrBb2KxsbGz8v//3/yANQVqKx+PF4/FkMlkul1GKRDz1bYD7wdEfCmUwZPtwTpXJZAaDAXdqexg7FoutrKzE43HoYxhq+AWBDTQuDYoWi8WyT+2AhA42wZDtPpfOwq2WpmlYbeMxMxgM2B+j+xcaow8NDfX09IjFYnhchMNhGFlAOY7I/erq6m9+85vx8fGJiQmz2axWq1dXV7e2tl577TWXy2UymeAvDSuGhw8fYmc1OTn5xeeHBQsW3xGQTx3y+Xy+UChk6CwqmZRKJfqIokcA3jmNRiMQCFy/fr3RaExOTnZ1daEWh6bpYrEYi8VANfDeC4VCjx8/3tracrvdUqm0v78fNgVo0AOlIPm0WWupVEomk9lsFpVSJ3rb5/N5NGlHb9KhoSGn00kQBHo0xmKxtbW1VCoVCoXapZbtCdKjZ4kkSSiGMT/giNAB5/N5UCLQWTRIgpQuFosxKrJiseh2u5eXlzc3N5EAZEzlmTHAhlYkEhWLRVQJg5BhihKJxMbGBgx6xWIxDEr1en2lUvH5fCiew1BbrVa5XI7H49Fo9Lm2PGhXhuZk6BQAa3YmeETTNDgiyC7m9gXRWdRJo+zE5/M9ePDA7/fX63WtVguLLtRwKxQKsVjcarXQTUMkEmGBhltUOp0uFouwjT+CzpIkifIhtEAiCAJ2b5FI5LnNTU8KVElGIpFAIJBOp6vVKtMkolwuo/EySZIw3zx9Oluv11EVhF4paNq0L5Mrk8m6u7s9Ho9IJMrn8x6Px+VydXZ27u3tcblcn8/3xz/+sb+/v7OzE3fnwsLCwsICrPXRunZ1dTWbzS4sLGDzodfr4Vo3Pz+/srKSyWTAnvEVCgSCcrkcDodXV1f5fD4cmuB7EolEwG5PNMUEQZAkKZFI+vr6stns9vZ2tVqlKKqnp4fP5yeTydXV1ZWVlVQqZTab5XI5xPh+v7/RaLjd7mvXrkFrj53o4uLi3NxcJBJ57odyOBy1Wj09PQ0XvVu3bjWbzaGhIYvFgmcPEq7Hjx8/efIEzQjQUPGkV3copFJpd3d3NBqdn5+PRCK///3v8cVptVo8IbVaze/3u93utbU1mUwG0y7GNeaIi4JOo7OzM51Or62tcbncM2fOmEymarXqdrvv378fjUbROwScfmJiYnFxcXV1FTI1q9WqVquj0WggEHj06NHu7u7IyIjNZsMD6ff779+/j6JjaCSKxeLe3h68fuFgdyp0nwULFt81gAah8Bd16319fblcbnV1NZVKIVqm0Wjwbnzy5Mn6+rrBYEDPKrVabTabe3t7q9Xq9evXU6nU1NQUSZLVanVhYeHWrVt8Ph8NFzgcjsPhGBsbi0Qis7OzqEAHXfP5fMvLyz6fjyRJh8PR09Mjl8vhy34cwGzf7XajP5ZUKkV0OZFI+P3+cDhcrVbRelQkEoG7wJYLlVug8s86OfSs1WrV4/FYrVafzwdjn9XV1SdPnrQbU6KdmMPhcDgcXq/3o48+mpqa6unpQTQabc9FIpHBYGCWM7T7oigKfgg6nc5qtdrt9mw2+8EHH8CSHJP58OHDO3futFotnU4Hu1+HwzE+Pg4LNrRz0+v1cJxdX19Hzc9zg9zIE3Z3d589e7ZYLH7wwQd+vz8ej8MYFWPb3d11u91LS0v1er2jo+P8+fMnolzHBzSmsBnOZDL37t2jKKqzs5PxtYAMRqFQdHd3Z7PZzc1NTA58Z6PR6OLi4uLiolQqRbmLQqE4lM4KhUK5XJ5Opx8/fqxQKNAJlWlNHAqFTve6jEbjxMSE1+tNpVKLi4sfffRRR0eH2WwG1bl3797y8vLExMTnMAA4Fp1tNBrhcHh3d7fRaOh0OovFYjKZ9mW6kfNF8hcdI0wmE2xBlUplKpW6e/dusVikaRpFbevr616v9+LFix0dHQaDAU9Xs9nEV1IsFru6uhKJhNvt3tzc9Pl8DD1FvR52wMlkcm1tTSAQUBQVj8fxZslms3q9/nNEZwmCAJ1NpVKPHj0KhUIQYopEomAwCPO2ZrOJYk+TyaRSqdbW1qRSaTQavXnzJqomi8UiNo5wNHvuh3K5XKVSOTExQVHU5uamx+NBW4HBwUFsy/A0YrrOnj179uxZlEOd6OqeBYlE0tHRgaT/5ubmnTt3IpFIsVjEt9ZoNMrl8srKyqNHjzCrNpvNZrPxeLyjszagswKBoKenJxqN7u3t5fN5sVhcLBaLxeLGxgasbSYnJ2FFrNVqR0dH0W2Oy+UaDIZ0Om2z2ba3t5eWlhBL4HK5ZrMZ4V40VoC9w+DgoM1my2QySFKUSiUUVz63nyELFixYHATKhmq1WrFYrNfrIpEIdGFubs7n85nNZpIkrVZrpVJZWlpaWVkJBAJqtVqtVuv1eoVCYbFYhoaGvF7vgwcPoEmjabpUKi0vLy8sLIyOjg4MDCiVSlDViYkJ+NQ6HA6VSqXX60mSRNAxnU6r1eqOjg6n03nStxlJksiYKxQKWNZoNBqfz4cuU4zVgFgsRrtaLpdbLBbT6XQ+nz/69Q4NAM6/t7e3vb2Nll0rKyufffaZ1+tlpL0ikUilUjmdTpfLFY/HQeUJgigWi36/f2lpKRqNTk5OgrWgdoVpkZBMJq1WK2Jn3d3doVDo1q1bxWIRxLdUKs3Pz9+7d6+/v5/pPYG2o9gGrK6uKhQKp9Mpl8s3NzfxHZVKJcYg4oirEwqFXV1dZ8+evX///v379xHodTqdDoejXC4Xi0WEliCf6+7unpycPC33q33ATBoMhp6envX19b29ve7u7oGBAQStcQyqyXt7e9FtIZfLgbTweLy9vb3bt29Ho1GdTud0Oo1Go1wuP5STSCQSg8FQKBSWl5etVqvD4UALDITwksnkcczmjw+dTieTye7evdtsNnd2drhcLvhPMBjc29tDC7epqSmz2XzS6pcTRGe9Xi/8p9DsdP+JeDwY/zocDpj9dnR0jI+P9/f3//SnP/V4PMFgcHZ29smTJzCB4vF4P/jBD86ePdvV1YXd1cWLFwmCiEaj8N5HWwGSJOG7wdRdwYnW5XJNT0/v7e0tLi5ubm6C3VIUVavVent70V3tRBMBSCSS4eFhPFd7e3urq6sbGxvY7FYqFYfD0d/fPz4+DjGAQCAYGBj4yU9+4vF4sKtYXFyEzFQikfz4xz9eWFhYX19/7ocKhUKLxTI1NVWv17e3t9Pp9O7urt/vR4oKDY4NBkN/f//Y2NjAwIBerz+thgvIrDmdzr/8y7/c2Nhwu92VSuXRo0ePHj1Cwgg+NUKhcHJy0ul0TkxMiEQi6Dqee3K5XH727FmpVLq0tBSJRD777DO8rWq1mkwm6+zsvHjx4uDgIN4Fdrt9enoaRoxra2vr6+toZogeHJOTk9PT0whpCIXCM2fOwL5xbm5ubW1NKBSiP7hQKJyenj537tzo6KhKpTqVKWLBgsV3B8iSy2SyaDS6srIyMjIyODiIZgRXr15dW1vL5XI3btzAi7FSqYhEotdee21sbMxms6EayW63v/XWW8vLy4uLi4FA4L//+7+xgmBtOnPmzEsvvWS32zkcjsViIUkyl8sJhcJ8Pv/xxx8j5YrY5KVLl3p7e7u6uk7q+apWq0UiEYhytVr94IMPoGFtNBqNRgPOPBMTE0ajUSwW1+t1h8MRCARg9lmpVBDbe9bJkUlDcUgsFvv1r38NcVqr1RKLxSqVymAwMCyEz+ePj4/z+fylpaWdnZ1Hjx4tLCxgCSBJcmRk5MKFC2NjY3DpMZlMsFn0+/2/+tWvXnrppbfffttut//gBz9YXV1dXV31er3vvvsuXvWYzJmZGSR4ORwOoqovvfQStiK3b99+9OgR0/VtYGCgp6fnmO3ZrVbr5cuXlUqlVqstlUo7Ozu7u7uYE2QslUolOpxNTk5KJJIX6nFuNBoHBwej0eju7q7RaOzr69uXHZXL5WfOnBGLxYjBzc7OPn78mCCIer1eLpe7u7vRcO4IRURXV9cbb7yBhDlaK6MCDF/f4uJiuVw+xSuCR+r09PTPf/7zaDQaDofT6fSdO3fgyKnT6cDuuru7T6riOK6zAVrndXZ2Dg0NYXO27xgulysWi+GU5vP5arUarH2hLJmdnU2lUnt7e5FIBHr5M2fOnD17dnx8HKKZZrM5OTmpVqtv3LiBK6QoCrpS9EpBFRrx1Hivu7t7ZmaGIIiVlZXt7e1KpYKIqU6n6+joQLc0OEujaR5USnjMMJtKpRImwO1XIRKJurq6YOxPEMTa2hqa48lkMofD4XK5Xn31Vfg/o/YfaaB79+6l0+lAIJBIJFQqlU6nO3fu3MWLFyFnee4OQyAQGAwGdKaw2+13797d2Njw+/3lcpmmaZR2DgwM4O3mcDiepTSQSqU6nU6lUkkkkmOGb0HKbTabTqfDmTc2NoLBYCqVymaz4OU2m62zs3NiYuLChQuwR0YRgEwmw4YPuw7I0jUaDWrF8Lejo6NqtRq+gLu7u+l0miRJvV4/MDAwMTExOTlpsViwB8XBAoHg0aNHs7OzjPwaN/err74KXw+CIBqNxujoKJ/Pv3PnztzcHEyk4bwzODg4MTExPj7e09PDNrllwYIFA6wFKE7AxvjQUloOh4MundlsFsI+Ho+HMol6vS6Xy2dnZzc3N7PZLEmS8JC6fPny8PAwkxs1m81IB+dyuY2NjY2NDYQG0DV9YmJiamqKCbwplcpyuczn85FaLBQKrVYLjPP8+fOTk5N6vR66KYRUm80mmia0e/Lg/clcl1KpNBgMo6OjhUJhcXFxeXmZoii0lsXaNDMzMzQ0BPFetVp1Op2xWOz+/fs+nw+9LREYg3hxH1dDk5p0Ou3z+TY3N5eWliiKQn/N0dFRkiRRCAGOy+fz+/r6DAZDq9XK5XK7u7uRSIQkSYVCMTAwgHKI3t5eLpfbbDYhLbDZbOl0em5uTiaTIXmLYF6xWISJDerMXC7XyMjImTNnzp07hwVIqVRKJJKZmRmJRHL//v2lpSWIPpE07u/vFwqFfr+fKXE5AnAIVigUarV6cXFxYWEhkUigxBzu+Dab7dKlS+fPn8dsHHoXCQQCjUaD7j9Hd6w4GkajcXh4GBGurq6u/v7+fV0nJBIJ4v0oJYINQrPZVKlUnZ2dAwMDr7zyisPhgHoQX5Ber1epVIyzE9rCI6keiUSWl5ehXb58+fL4+HixWIxGo8xl8ng8kBxs3pjrwv0JGtB+f/L5fMhd6vU6E4bn8XhoZX/9+vVwOOzxeFKplEQiUavVZ8+enZmZwf7wpHNFHicpX6lU1tbWAoGASqXCo35oGw+CINCNN5/PkyRpsVhcLhePx0M5l9/vz+fz5XIZDiDIgOj1ejxUaPeK5ivRaBSiJUbUHAgE3nvvPQ6H88///M+vvvoqQRBQ5cdiMTS2rlQqaPSMNmNIGRiNRovFUiwW0Y02FAoNDg4ODAygv67f70+lUiMjIy6Xixk/ROiVSgU1SalUCq1N+Hw+Utho38IUS1EUhYP9fn+xWMQwxGIxNpo+ny8QCIyOjg4NDT13kuv1OtI94XCYqZwjnjbV0Ol0qII6Qs2NWLJer9fr9ehV9twPBbDfzWQycFtEMzqKovBNodMEerOJRCKBQIDoLKSu6GAuEAhomt7Y2AgEAiaTyWg0ok0XDMiCwSBqGLFJEIvFarXaaDTabDapVMo8EoVCAZUK0WgUFbLouI3Xh1wuB51F7RomKhaLgVtji6LRaNAZBQmEL+78wIIFi28H0LbA4/FsbGx0dXWNjY2JRKJ9zX0IgqjX63B3B5EdHh5GK9FarZZOp5PJJBq5V6tV5NOxIMLzi7HBQYMxVLrk83ko5dCiCW8z8mkTHByZSCTi8Xg6na7X6zRNSyQShDYgwwOdTSaTW1tbFEXBMRfKV4IgEHPd2dlZXl6GqSKKhGKxWDgcTiaTyWQSQ8LrFBYxGo0GTk/VahWvXIRyIQKWSqWVSsXv98PGB91WAZwKjlHoGVmpVPCHZrO5UqmUy2WUdkETCFOgYDAYDodzuRzifAKBANoM9AFl6urQKxgeqzabbXR0FCXFsVjM7/dns9l8Pg/G8qzJTKfTcCVKJBJYQBUKhVwux7pZKBSEQmF3d/ezCEw7stksZg/VyVgQuVwuJM5Wq9VkMmFB3PeHjF/QysoKRVEDAwMWi+X4MaZ20DSNbmd7e3vhcLijowM+SO25R9RzY52Nx+PZbLZSqYCPYuFGfhu19cjvLy4uWiyWkZERmUwGrWa5XPb7/V6vFw3kQXwhBA0Gg+VyeXJy0uVyYTzQWgwNDdlsNrTWIwgC/kjoAov7E+QtmUyGw2GQCphzYTuBWwUKw3K5DAMAoVAI/qDX65/bheogjkVnv0Jglh8/fvyf//mfzWaTobPtgGYfaeiD5tUsWLBgwYIFi9MF/dSQnqIocGV25f1GA8y4+RQCgeCbVVH9behrDyJ7zM4FLFiwYMGCBYtTAY/HQzz4qx4Ii1MA06fjOE3Uvm74BtBZuFHIZDJokw8ecGgbLRYsWLBgwYLFCwKCR5BCftVjYXEK+KZntr/udyEk1Wq1enBwkCCIzyGnYMGCBQsWLFiwYPEtxjeAzqJSEv7JrPsSCxYsWLBgwYIFi3Z83eksugwIBALUqh+nIJEFCxYsWLBgwYLFdwf7nQ1gUAcDs/afo3EIq1Jl8Y0DSjUbjQbar8M7EM64X/XQWLBgwYIFCxangP3R2Ww2G41GY7EY07aAIAhY48pkMri6frkjZMHiC6FarZZKJfTXlUgksLUzmUwsnWXBggULFiy+HdhPZzOZzN7e3sbGxs7ODvND0Fl4EbN0lsU3C9VqtVAoFIvFQqGA/mpo/POs5mosWLD4jgOG85VKBS0S4dIiSQAAIABJREFUv+rhsGDxbQB6J/H5/C/SJu0IHEJnPR7PkydP5ufn/+w4Hg99n9mYFotvFqA0ALq6usBlu7u7v+pxsWDB4msKmqar1Wo4HH733Xdv3br1VQ+HBYtvA95+++2//uu/VqvVEonkRZx/P52lKCqbzaKF3Yv4PBYsvkIIhcJ0Ol0ul9F2kgULFiwOAj1Xi8Xi5ubm/Px8R0eHXq8/6RmY/ye+Bo6e9FPsG89JR9VebHOiv2UmpH0Y7Z2PDh1eO474uC/S3PQ4V7Fv2PgrdBlAJy2apsk2fO7BfFsRjUZ9Pl9fX1+lUlEoFC/oU77uzgYsWLBgwYLFlw+SJEUikcPh+Nu//duXX375iCPbiQ7+DYqDf7d3rPwyuQ7z6cRT+USj0cCvUNV9Iu7Vzkc/B29jGCEaqCKgIBAIkO/FzzFpHA5nXzL64NS1k2DiNOjss66F+TYZEE9bZ6F5BE3TtVqt0Whw23DEB3038fHHH//Hf/wHure+uE9h6SwLFixYsGCxHyRJ8ng8uVw+MDBw4cKFfb89SGHbAeoDAsfhcL5COsv8Gx4v+E9mSAfHc3T8tZ2jf77obDudZeSLTIyznc6259D2fRbz6firQ4d6Ihz97Ryks5BfEs+ms/uiue1x6O8gdnZ2JBLJi5aqsnSWBQsWLFiw+KLYR2rb6QvzK9C1L2EY7UFi4in/a+9Gu49vHfz5EYKEZ/3tcYDQJpfLbWfYoNegO/hc/KpdfkC0TSOOwRkAMOMTjerg97Uv6Lvvh4iyH/wIlBUdjFjvm/zvMp39csDSWRYsWLBgweLEaA8f7pNXtkdnGSrzRXLix0d7SBglsARBkCQpEAiYgCJFUbVarV6vt1qt9uHtuwqGzu6jtuCRJxrVQbIIworzIHcPgOxWKpVsNlupVGq1Gg5oHyQzEpyk2WwKBIJ2sn7MiWKuol0Q0j7IffPA4XDUajWaOjFkmvlb5ofEF2P8LD4fWDrLggULFixYnAxMfhwRO/ybYbEQqrZnzxn29uJYTru8Ff1iKIqiKAq/lUqlSPjSNF0oFNLpdKVSqVarXC6Xw+Ew5HsfoyXalAkMaWu1Wri6Yw4Mf8XwRWaiEH9F2JhpcCMUCvl8fjqd9nq98Xg8k8kQBAG2yuVy2xXAAFrkMGT9+EFQRjxAPKWq7Yx23zeFA7hc7tjYmFqtxhXV6/VardZu+tRoNBhBwhHhbRYvAiydZcGCBQsWLE6MQ9PQ9Xq9UqmkUqlEIpHJZLLZLEEQ+C39tODphY4KPEwgEAgEAvBOfKhYLJZKpTabTafTZbPZVCoVDoeTySR+CzJH/LlWgeFzDJ3FP/YpAY6DgyFqJkYLZszhcKRSqVqt1mq1er0+mUxubm76/f5IJALne4lEIpFIWq1WvV5nxox9AjN+8qnhwHHQTtzbr46J+zI7kH2FfXw+32AwaLVafC4u4eBHk3+O488Vi88Hls6yYMGCBQsWJ8NB+kLTNLLkhUJhd3d3cXFxc3Nze3u7Xq8zbAmZ8Rc6sHZ+hmBnrVar1WpcLlcikbzyyitnzpyp1+u5XO7JkydbW1v5fL5WqyEmui9CuU9UwHmKE2XS22PGjFiWqZpqNBqlUomiqEajoVAo7Ha7y+UaHBzMZrNbW1s7Ozs+n08gEIDmarVabAmq1SrCokw3HEwsI8A9/sCA9vgxQ2dpmkb8lUG9Xm80GuVyeWJiQiKR8Pl8gUCADQOzn2FO8h0v//rywdLZU8DRuiixWCyRSKRSqUwm0+l0arVaKBQKBALisBxE+54YzyfET+1ipkwmE4/HIX4ql8twUWWNVFmwYMHiywS0kgdVs81ms1wuJ5PJcDgMB3eRSITOmofWEr2gsTHj4XA4AoGgVqsVi0WPxwOaValUAoFALBYrFAqNRkMul0ulUvCz9vJ8RkRB/Hm48fgjYRY15iTEU7EsUxPG4/Gq1SpBEPl83ufzVavVXC63s7MTDofz+bxIJBIKhVKpFBSWz+eTJMnlckFnMZ5qtVqv14/wyTp0YPu+i30BWuxPIMZgEA6HS6USYrQmk0mv12MwjHa2PfzMig2+TLB09rjARnwfazx4szI7Y9zZBEEoFAqj0Wi1Wu12+/j4+MDAgFqtlsvlh74UmPxLq9Wq1WoURVUqlUqlgh0tHpvNzc25ublkMpnP56PRaDgcrtfrzJOz7xEl/1x9z4IFCxYsTgt0W3E9QRBIxO8ToYpEIpVKZbVarVYrgosvdEhMhJIZAISn2Ww2l8ulUqlUKoV4SiqVQlhRKBTK5XKlUimRSMRisVgsFggEzJLXHlH+HKZjByW5TKyaYZ8IuFYqlVKplEgkfD5fLpdLp9PVahWckol3IjxEPOWaTESZoijogI9PZw/abzGclak8w+XXn6JWq/n9/u3tbVgZjI+PKxQKkUiE+WTY/4m+LxanBZbOngz7HmCyreBRq9UaDAaz2Ww2m7Gfw9OrUqmUSiX0QE6n02azSaVSsVh8qMqnnc42m00mx8HQWQ6HI5fLVSpVoVBA7Wc6nYb8HB+XzWaz2WwwGIxEItiw7js5CxYsWLD44mhPmjFrAd7SfD5f9BQ8Ho8JT0gkkhfXFQlg9ADMosBU/ZMkWSwWS6VSuVyu1WqVSqXVaoECMhpWLpcrEAjEYjGCoAyd3ZdJJ05CZ9v/s/2v2v25ENLmcDj1er1QKEAgy+VyoZcgnrYsRVgU0gjyaXkWJpxoo/LHwUFRLPP1tVetYQKZRblYLJbL5VQqtbi4iI+2WCx6vR7B5vboO74CNkD7pYGls8fFEVwQe0SHwzE1NXXu3LkLFy4IhULmoWIeORgvY1d39GchCsvhcHg8nlgsbg+4kiSpVCq7u7sRjm3fN+Nh83g8brf75s2bs7OzmUwGsq3jXAULFixYsDg+8GZmsuf4IdihQCCQSCQymUwmk9XrdVAxgiCsVqtWq32howIna7d0xZBEIhHYG9Sf+XweJBU8DFIEsHCaprH6MIYMDJ09NApz/FExNJEpsSKerneIByN6jThopVIhCEIkEsHQoFQqwbSLz+dzuVyxWMxcI/3UHuFEQghG6tA+SOb/mZ9jKhiya7Va+Xx+KpVaWlpilmDoCXk8Xruw+NA0KYsXB5bOngAymUyr1ZpMJovFghQDXmG43a1Wa2dnZ3d3t8lkwvO276k4KLE9+nZvVym1H4kNK9nWMxo/x9uBy+UqFAqJROJyuUqlUrFYhNbW7XaHw+EXMCssWLBg8R3FoQSI4WcQeqL+oVgs1mo1WKuC/eyjhqfFeDgkh8PhNIkG/SdLVC6H5BA0gSHJpFKSIBi+WK/XOSRJk2SLIGq1Wi6XY5gr2B5WIBo59KehGYImms0mQTxdldpJJJjcn08R+TR+TT49gAHdoukWTZM0TdAcDkfA58uk0laz2Ww0atVqrVYjCZKgCYIkMI35XI5DcpqNJkkQmMw/5fdpGr4GJEnWa3+K7HK4HIIgSPwP31Gr1Wz+yV7tT/Sa09Y7l3hmGQxJEBySJEmOXCYnSbLZaNRrtVg0tkwskwTZqDfsdpvBYBAIhX+KWP35OfZV1B1c1p9O3v7qtOd+3SwYsHT2BFAoFH19fWfOnLlw4YLD4dBoNIzRXbsYiGGZ++5FZneL/zz0Tj1a6nowt7Xvb0mS1Ol0Go2mp6cHCoRKpbK1tbWwsFCr1Vg6y4IFCxanjoPvbTBa8C1E7EqlUi6XIwii0WiYTCYIAPYtB0e//48/GA6H02pxSIIkCZKhTlwOR8Dn8zhcAV/QaDSajUajXqcqFfBLLkE26WYuk62UynSzxSU5ErFEwBcQBEG36GajSdM0h8vlcEk+l9dsN+o6uBT9GZlt+zHNkF2abtEETRA0QRN0s9mk6RaHw6FbNI/Lk0qkPC6v1WxRFJXP5ymKommax+E1m81Ws5nP52vVWqvZ5HA4MqlUJpPRzdbTNZjkkhySJKlGo1qrCQSC/8/el/3IcZ3Xf7eq9312jsRtSIq0bEm2Ysl2JC+xk9h+COLkwUBiZDHiPOffCpIACfKSBwcwggRIkNiw5Vi2+SMpixxxOEvPdE+v1dXdVff3cOYefl09pGZGssOlvgdp2F1ddWu799xzz3e+rMkaEWBZ45o2nU6tqyImRxD2sVfbHt0PG1vj2VKxWCgUxuF4OpmCKppOp6PRKI6iQr5Qa9SBCo7ZjeLyE5/Pb5MC2TNECmcfBp4hKoRKpdK5c+defPHFS5cuNRoNz/Pq9Tr+ubGxsbS0VC6XtaJAq93145h4Lk/1mD4G+x77FYXw+XweJ1KpVOI4zufzhULhjTfeiOO42Wz+z//8z71794yTuuO3qQ4hjTTSSOO0odfQGFyjpztNGIZhGLbbbXa5CwsL9XpdCzfB23EPj+cvHhNgK5PtlIepTpVyBalXYRhicV9EfD/jZzKe5wVB0G63fd8f1+vlctlz9q5Wl4d4WIBAzBFqNQKoCrSqLpDlKZCVtFasVX5gEtuYrHA+ny+VStVqFaA5jmKJrcRWRCbjyXQy9X3fio2WlrIusKfYxhKL53kobOAZc7RoKb7xjOd54K5jd4XNEVGavLh2BocfAfHYxNZ5HcAiN7a21+vt7+/f/OUvs5lMHMeXLl1aO3euUMhnMln9e/vYEdaqAmMplj1zpHD2YejiKL7vNxqNV1555e233/693/u9jY0NbSaXsPNAfLxP4eO525P8BP/M5XLnz59fX19//fXXIa5/9913u93u/fv3wSJrW+8U0aaRRhppnDAe1SETj06nU5iVAjKORiOsmOFb2Kkm1pepH02kTJy8VTj2o7hA3/N9zy8Wi9VKdTgYBsNgMBjQGTefz/ueH4bh4eHhdDqdTCbZbLZYLGYyGQBZnNTxVwNHV83Qf3D01F/p5vF8MbyihdPJNJpGyGnGt5PpBFRxOA4zmUy1UoUNmbVW7NFOMJRDKZFI9vKN8T1PaIUbx4DaCUBLdP6wea6JGPtLpZIc7dZ2Dg87h4ciMo0i3/eLpZLnNTJ+xs7u7vGBJwR5OB++dRrHRQpnjwKvUC6Xq1Qq586de+21127cuHHx4sVLly4tLy9DC+vNuiL/+mZRHzssxrudz+fjON7Y2Pj2t799/fr1g4ODzc3Nmzdv7u/vf1yHSyONNNJ4TuLYjhrgCb40cFpEjYDJZIKKVtZaZOjD9KBarcJ5StRamV4qPHlYLuXbI55CL+KBHcU/YQVQKpXq9Tro2CM6eRqZzFGqFtxVPc9rNBqVSgVZU9ZaVMB6OPyxjUcY8IijFYVQxakvPvTq8UNytEgIgRXDZDwBoEQLu93utrfdaDQajQaL3Cb2ozE08D28vThhmAf9jx9/cSvF2nw+X6/Xfd/P+Bm4DP3qvffy+XwUxxcvXFhdXS0Ui2hS4j4ifQ13Ry/wprzsR4wUzooow7l8Pr+6uvqZz3zmz//8zz//+c9nMhlrLQqBYEtM+J5GFpPn+OKLL/7pn/7p17/+9Z///Of//u//vre3t7e393/dujTSSCONZyfAYoZhOBwOARaxRg+Cs9vtgvg0xsC6UasUaLN6trHGxg+1CvM/JwOay+VwXBwoCILJ9GikQ37VcDgEBLfWFgoFprWNx2NkP8/v+VH4PvHHSYKAG8MWuOEoio4goBFcxmAYIOurVqvB/FXmBHj62ur8FkweTtUq3MHpdIoawrAeMsa02+1Op9Pv98EHA4sfS7VaVdo3wZGliPYjxnMEZxNdA1VK+HtxcfF3fud3Xn/99Wq1+sILL2xsbORyOf0T7UX3NAbfE5xRtVq9evVqJpNZW1v74Q9/+G//9m9bW1tyXKGUNNJII400EqG7U37CMQJ4hWID62piUYcahmGr1SLXWC6XC4UCd8W8+zP0xjTATTSM6E0j2mKxKCJ+xs9kMzA6GI/HNKMVkX6/jzbX63VUNdNoO3EdCI7pV5W4Pqc9F4BauFXiuGBVPeOUclHc6XTwuYjAj5b+lcYY2o3Nt1AeDcEfE5rThVlEtVoVEd/3wzDc398HUJiMx5cvX15ZXYVUA3R1QmvBy2JcXbGzNSkNxPMCZ/k+J9Y+rNOeLy0tfetb3/r2t7+Nbwl2zXE2e0/d05boeT3PQ9HdjY2Nr3zlKz/4wQ/ef//9nZ0dmxY1SSONNNI4TSQQG3GeribFDUCLAM4eHBwMBgNQdCsrK4lCqRh3TjXWHGkJjBEj5riMCEI6RCaTgeAhl8vBzGsynoTjMIoiIF1r7XA4PMr9sha1FZg3kgCyPMHE+r4ec89wYdlI7BPVv4wxMAuLoqjT6eATtA0lDzScJRdLQM8Wnq04vObRAWez2SyI21ar1ev1wCVns9lcPu/7vp/x53+eIGL5YCDOcPfTeF7g7DxQw8u8sbGxsbFx+fLlGzduvPLKKwkG95l8mBInZa3d2Nj43ve+98orr/zwhz/c3Nw8PDzU/W8aaaSRRhofGmQrdR97LNgleTkej5vNJoBvFEXVahUgkvUF5PTDkBExxsRzZgsy58CDoxz50VYqxhjjmeFwOA7HUEqg9I+IdLtd7LxWq0FH+6hz5IFklow8LUuicTCaAYVDv98XEXDenisGNplMUDMoDMPpdAp/NDQDNDnAIvamNQbzXNWHBrUKUD6IA824gL1eD/cUfNlkMtnY2FhZXS0UCplsRjPEVBoQmfDuPJPA4zcQzwuclbnXCV7WL7/88pe//OUvfOELn/rUp/DC6Gfr/6ilv66Y74Dw8ly8ePHP/uzPrl+/znIs/X7/111YPI000kjj6Q3dhfLDx8gfKUUgBYv+9uDgYDgcclkcBV3n1wZPNB4pESYbSfsnEaHkAPwlBjvymiAyPeMdTg8n4yNSuVAoRFGEqrPYvlQqJajZYy+OPqgcxyh9aPDaQoSK2rbGGGDZ8XgMfSpo0cPDw263C1YbOlo0AGdK+EgRM5t3Ov7bGCieoSQhuQs4C4OFw8PDg4ODXq+HErr5QiGXz3u+B46WdwSuw9Z5ugFwJ/jsNE4VzxGcFfXg5nK5r33ta1/60pfAzq6treFz6xxSnj0s+5jAyV64cOGP/uiPNjY2fvrTn968efP27dvD4fD/umlppJFGGk9fzINaoljkAKFwK/45Go1arRbQTBzHpVKpUChwezkrt6JJWUI36nGt8zolyEbqFb4dDAZhGI4nY8/zjGeyuWwcxzCjzefz1Wq1UChwQXx+xQ9/aCR9hgtIhMc5AI/OswNHazwznUyjKGq32/gKVXAzmQxAp2Y99VmfgZ2V2dvBEwRchlOEiIzH4729Pc/30YbLG5eXl5fz+TwxKzhjwHHqqh8zHUrjQ+O5g7Oe5xUKhYWFha9+9at/+Zd/WSgUILXhNo9KCJXjqnfwJTlblpiesOrn+GN8mj90V9xgfX393LlzGxsbKysr+Xy+1WrBayadKaaRRhppnCoS/blRJRKgueQ/wZK2222muosIqLtTIxt6CCgsC27SU0bp3myxBjZPRAijRWQymUymk/FknM1ms5nsZDLp9XoYQMnpap8pUQe1szlhciZTcw3oqQ2A3SQCJmiZTMY3PrLuOp0ObAeKxSK4W46wFKRy2MU/z6ZS1beGlxf8uu/74/H48PCw1WqNwpHveZ5nisVCLpdrNBrZbBZHp4UF74LeVQpqzxDPF5zFO/a7v/u73/jGNz772c+Wy+Wj5RX3WOOJ5IN+7B5ExBgzmUzgwBIEAdz7KDlHPGrmp3EwFD9BEEC9VCqVkJip/fk0tk485XZOcMO/5bhJ87GRmGiurq5+/vOfr9VqL7744o9+9KP//u//7vV6KaJNI4000jhzJLpZ8LJa0DWZTAaDwe7uLtb0jTGVSgVr66eFNa6YwEMUaJ1HlZmLo5+oHh4MKJSgg8Gg1+9NxpNSqQSLXGvtzs4O3A8wYAHDcecJRPvRl87JImNXwNMiks1mO53ONJpOp9NwHOayOVQRC4Kg1Wrh0FBQ5HI5aAPEjac6U40w94SNoW2CrmAsamTPZDLgaLvd7nQ6fbC9LZ7x/cw0iq5cudJoNDC+60oZ2jcpRbFnjucLzqIw3Ve/+tW//uu/1tpwHfN2ejr4yA6Hw1ar1el0ut1urVZDiRda3GERgVWhxa1EwMJW7+TBgwftdhv2dVDZY4lEG74k6prwKx5Ii2+wQTabBS7XjU90qXLcm7O4uLi4uLi6unrx4sVisbi7u7u5udntds+WAZpGGmmk8fzEPHRL4FH26hgIRLnuoNrCeDwuFApYlT4jUWdnWkI4KCIYj47dp16Rp2eqtbbb7Y6jMQaUYrEYBMHBwUEURWQZ4cBK+oYnqNkWHu7U0NwtxDN/y3MBUe8oHA0Gg3E4LuQLhUJhMBiMRiNQ3dlsNpfL1ev1bDaLTDu9pp+gbE8e2A+qNqAlBLi4gCiBi3G50+0eHByMx+NMJuNn/Gq1iqw7bbaQMrIfVzxHcBa87B/+4R++/vrrZ35ojDGj0ajb7e7v7+/s7AwGA6Qx3r17F/scj8dhGJZKpVKpVKlU8Fhns9nl5eVqtbq5ubmzs8NZ7HA43Nzc3N/fBxglO5vP52GJ4vtHayhBEAwGA8zn8JbiBcBRUKcEr9nq6urq6ura2trKyoo8opzgsaE74mKxuL6+/tWvfvXSpUv/+q//+s///M+9Xu9sVyyNNNJI43mOBPeJXp0EgS6uPp1Oh8Ph3t6etTYMw6WlJXgdaGbkhAFiUq+qc1E7sYLHIJz1XQB293q94XBorS2VSqBsUAQLqWzlclmc8aVRBreJ0z/tmBvHMdkf/XPd8mKxuLCwkMvmctkc2CKcOCYGOP3pdFqv1zE4MgeLwuVTNYkNgH4DgB4XASUeiLYB/RcXF7PZbLvdHk/Gd+/ejeM4k8mMx+OLFy/WarXEcq4+O0QKbU8bzwucrdfr4GW/+93vnuqH80/8aDTa29vb3t7e3t4ej8ciEgRBv99HDwX5Qa1Wq7uAkCAIgsXFxVu3br333nt4nYCMNzc3m81mGIbAqVi/KBQKtVoNU+TpdBoEQafTabfbcCEpFouVSgVgt1arNRqN8XgMGD2ZTC5fvnz58uUoiqC+ApjmehDP4thXhd1cPp9fXl5eXV393Oc+JyLvvvvuvXv3Op1OytGmkUYaaehI9KVWReJDo+yZ9M/J1QHFtlot0BP6J6cgEY0Yh5J1qVsNZ/Wh58cF/BYAGr/q9/vj8Rjg0vM8YFzaI2AnSPln8pYcN3o+CkEeuyVJ5UTzuPERi5zJ5nK54XAIzG2Mge/B/v4+6vFibMXp4Lzwt3ainT/Ksc3TrTJO+jx1AaUBEW02m/Uzmcl0enh42Gw2UQdORGCjW6vVmBb2+Itz8njOEfDzAmfffvvtP/7jP3799dfPNlNEIDWq3W7fv3+/2WzSzWoymRiVsloul1FtbzAYBEEArHnnzh3f9/f29lqtFtQ8FCchNxOrJ/l8PpfL4b+eS3S1TgOEwxWLRSjKMT2lnBxy3vv373e73Z2dnZs3b0IC9eKLL66urlYqFV115tjgOhGmnvjwM5/5zN/8zd98//vf/5d/+RcwxGe4dGmkkUYaz3zYuZBZMES6kcWrAFt9lwJvrR2Px4PBYH9/nwKAer2Ocq+PGbl4FM9Ac3aU9aU1mmxVAsZxvZscMAadbDZbLpfRyOFwuL2zncvlarUahxvwlGBhoPTVOWfyEQq3JmR1OBD3A9oVugg0cnd3F0uIWLQ0xoRh2Gw2p9Npv99fXV1tNBpUCLBhp1LNirKMnUwm/X6fFxYTAOJ47Nz3/UI+v7iw4Pu+53vj8fjWrVuj0QgX8+rVq+BoE6kylB+c9oql8ezDWfCXX/ziF7/zne/QWvnxb9f8JIl5lECKW1tbnU6HwA7vMxYdODmLogh0aa/Xg7UyCVTwtcvLy4VCIQgC6JAgMCgUCqiOjTUdyn3oRwjUW61WcS4AteI6SrzABwcHzWazUqlUKhVwt1EULSwsgPHVwtz5pQ2rlOl4ta5evXrhwoUoiu7du/f+++/v7u5+9ElkGmmkkcbTHhoOikI884iWAWioQQwwqzbVx4ocaD+mQ3iel8vlsOamD81fkcg0nmGhW/J/OgEj8V+rDG6NS7QnSkMVXBFpNpvtw3Ycx7VqDZg7DEOU48IIWCwWQbsksKwebhJX7NiLqX9rlAODRvP48KiemeeJSLfbpZwXmHU0GqFs72g0ymazGFg1IUoNxvytnG9bPFtRDHeHsFVPA/R+stlspVIxnrE2brXbu7u7o9EIIzvYJWaG8WHQct75azL/YeLb5zmefTj7+uuvf/Ob3/zt3/5tDeNOEvqhgaRpe3v7vffeu3///u7u7ng85hoQkKjnKoUAWSLw0Gt6FaBzPB5DVgsetFgsFotF0Lr65We3greiUChMp9NqtYp5MNd6uIREg2guMI3HYxSwbTQaKysrly5dWltb4wx1PvS8EH8jxe3tt99eWlr6p3/6p7/7u7+DxCKNNNJIIw0dCRD2qM1YwkBUVnsCDYtIv9/HWINKuYuLi+RorZKQZjIZLU6ATRdZG27J7TEeJaChZnk49Bhnben7vhixYgeDwd7eXrFYrFarYRhiiRKr/NlstlqtQiDHGrOEetYt0xsVojCuBoLEwVDiQiHAxosIdbrcQ7VajeO41+sNBgOYGMCrazgc9vv9ZrNJgbLnErXJ2mhmSl8Ho7hhrMEyES1xxxP3N7HPfL6wsLjoZzIA2b/85S+Rsvbqq6+++uqruGjcmBXX9JPAo3C+kWghr8lJntJnNZ5lOFsqlarV6m/91m/9wR/8wdraGt+Hx/xkfvKKN3AwGLRara2trTt37uzt7QVBgKkhs7Jojwyoit4KE3G8wDg6Xgk8i7QOwRSzUCgg/YtrQ9bVdMBv4VRgrYV/tX7WCWdhZZdxgRf44OBgOp0WCoVms8k3v1QqUU6kr0niEnH2ef369evXrx8eHt68eXNzc3N3d/fXccvSSCONNJ7SIOD40C2U7f/BAAAgAElEQVQTMGUevpCbAJDVzAL5SDNLfBLi4M8EatTNsy5jSR83gW41IQrvAmttHMVxFHc7XWNMpVIR51mJolxwhNXjrMb0ZjYFTf+XyH6ejCSuJVYjJE2oGqC7w4fD4ZA1wzzPgyGmOMBH4wg26diJR2KOQVdg4yQZx95ofRn5STaXzeaOiOFms/ngwQMkqxljlpaW1tfX5+sGn+r5OeGvnvl4luHsxsbGG2+88frrry8tLXHF5LQB5c3BwcHW1tb29nYQBMCOURSNRiNoAGBTghQu5GOKqyIIywKmQOIlRH4obFC40gRwaVxmqFVKA2Zocj4ahqHMFl9hIAstn8/n83kUifB9PwzDIAi2trbCMNze3j5//vz6+vry8jIY4pNfjbfeemtxcfHv//7v//Zv//bYLiCNNNJII42TBAETmDzPOZgiYme2D5EbQBjICPreIEMfBMrDjDH7sJ7CScLOpjfJLKFL5AQ5Qb1eR5N2d3fL5TL8czDq3bt3DxqJhYUFmAmAsqEGj/g7AaZ1S/hPTWCfJDAWr6ysNBqN3d1dlA5GSYVsLhsEwbQ5zeayvu+vrKxgBKe5AUEz98ZPNEsN9urUA58xnjFipFAo1Ot161LrfvnLX4pIoVD41Kc+df36dbjg40rizs43iX+wYYj5/MLnM55NOAve9MqVK1/5ylc++clP1mo1JjbNx6OeTggM+v1+p9NpNpu7u7vdbhewFbWymDIFJY0oX2VxPnnoofi0cZ0i8Zjy8ZVZo1mr6vsZV9AljmPAWaPqUHOxqVAoNBoNoyT5TDIYDoej0ajf78OpGwfFpFZmOWl5xLTv2rVr165d29vbu3nz5vb29s7OzmMuYBpppJFGGo8K4hLd5ye2oUHBcDg8PDwkX+gp5wGs8nEd3MbH043HBtf38M9jl9Gty38qFosYzg5aB4PhIIojP+P7vi9Wut1up9PB8JfJZODeRY2puDpnmlI9lpHlRTiVkRbHUJBEcDmAERCUEkbMZDLpHHZgg2BUSTMOcwnRKj/HGVm3TDrf5hNdYhEwWeKkCO12++7du8ViMY7jUqm0trYGsKuH/sQ14aVLkO4J/cNzG88UnNXrDgsLCy+99NIbb7yxvr6Ox/e0exsOh3fu3IF0KQiC4XDoeR6SOuFRAl4W82O4EyA9C3g3iiLkUWKOCBycy+XG4zH0Rtlslows8yLx8lP5ig/RHRDsMkWACx/YJzAu3z1rLURXIoK5OxS3MIKhTGJlZQXUNTsXO6ujmo+33357YWHhH/7hH/7xH/8Rm5FITiONNNJI4+RBjlbbP+ErFOKqVCooygU7SOjZxPXqosq0Phwsjty6ThHs/xPASKtdmcKRyWR8zw/DcG93D8uAIlIulyeTyf7+PoatWq1WLpc5LKK182vx8/yoVcKJkzce+wHThOoJgKcgelCmCyabyLRbXV2t1WpoObbBqKpT9HDKyMDL5/NhGGJJ9uRLmlyAFSNAneBoPc8rl8uDweBnP/sZxuhPfvKTN27cgMewVkEguNKrg0dJeVnEswNnNYX5wgsvvPbaa5/+9Kc3NjYwH/rQ+63BHDw4dnZ23n///WazyQ2w3EB3PWJQLKl4rjqIUYJxvMAUIXnO2hoTRy5kiHoh+QTrZFWZc7mjea2IjMdjFO4iy8ssMb4YEF3hQ0z0m80mRFEiQl+wR8079QW8cuXKhQsXbt269Z//+Z+DwWA4HKZYNo000kjjVIH+FqQGqAfNXIKAgHisUCgYY0ajURiGtKMCzIWtuCY7PGOM8U6JZpPCX93hc1zAQh8aY4xptVoHBwcYp0DWQIPX6XTQGN+F5hflEbwsQbkeFk97MfE3rhuGbJBHIJ5G4SgYBa1WS0RANiWunp1LoUPjjct+iU9ZRUzDWc8pFqArKBaLDx482NnZ+dWvfgUGChzt4uKiKBiQAAMJ3K/P/fEk1PMQzw6cxR0FgnzllVe++93vfuITnwBWO9VO4Cx7+/ZtFDhAyUE8bWRGIV2I4xjELeZqMATh+j58tdBJ0dFDnBACMn/oinzfp0zKcwYI8KzGhIwglesv2Axsq3UVd2u1GnzsqD2ANQmoYrSKr0Qcx51Oh0qJxcVFzFMTndqxgaNfuHDhs5/97P/7f//vvffeexQITiONNNJI49jAmAVbm263y1x4DGQoptNoNBYWForFIuHsZDLpdrtBECwsLJw7d06jsSPFwmmY2Ud1+AkalRwtxiPmomD06ff7oBUxuoVhuL+/j7NrNBrVapV4i/vXulgN0aC+4IrlGa6qMYYLp8CsKN4pIoV8IZfLTSfTTqdjjIHoDhSydepBGimIE3LQ8tZai2H9VI05kkSbh5caDcPFeeGFF4bD4U9+8hOkmn3qU5/CFEWLCoyrZGZU8h+vP1F46mzw7MBZxLlz565cufLWW2997nOfW1hYOOF8hXz+eDw+PDzc3d3d3t7e29uD/wjWSogjrUurFGV6LCLApvr5Y6UQ49aSPM+DiYF1tVXA0SJ91bqFHhS2xQRdVPESJoQB4JIPHo/Ho9GoVqtBCIvNJpMJVBbYgL4kOAQYaL5s1lqsvKBz1NNThL6MeG2uXLny5S9/eTgc3r59O4WzaaSRRhqnDc/z8vl8uVyGSarMClXhHc46t+jJsSAWBEGv10NWMTptZmucVmagO3zNcXrKBkvr38T5nWP0EREslzOHCZ8j1cRz9bFo+s6DWqWv4Ool25Nw5jrVudDvkpclCAIsaXriRdNoMpmAQvY8r9FoICWaR8RB+XOuPeJEHrOGeWx7fN93sF2I1EUESHp5eRnFlTY3N2H3WS6XFxcXYS1PblhfGXFaZzsr2EhH4WcNzr722mt/9Vd/9eqrr0JjcPIAL9vtdu/fvw8HA8w1QcdijZ7yU+syPbFaISK02QNChbEAbbby+TxoWkwWUaKWKVwiEgSB5wyoaYmQy+VKpVLsCgxyjsjSJsCs4HGxigE8Kg74YoPRaDQajfgrvCHapxDQdnV19fz58zidx6/14O26ceMGyvb+4Ac/+Ah3LI000kjjeQz0+bRoNMpNFovR5XIZ7jT5fL5UKmFQG41GBwcHDx48QB1XEcEqnDgZrhGR0wAbTfrEyg2XQEozMlTToeXVahVDEqq7IxkL7Q/D8PDwEMMcOFp9OKuUdfoTTdOekI1KnAsVDhgQOTSjpAJJojAM2+32eDweDofQ0cLTN3GasTJ3x8yBIP6EgROJ5ci8FngAbBRFEZlMZjQavfPOO8C7N27cuHbtmqcKZBBny6y2GB8S7J7qWj178ezA2ZWVlcuXL7/99ttf+MIX1tbWHr9OoecxwHaj0ajdbsMTDuWV8fiKy0PEe46lfBHBWj/Bn6hZLFYNMEnFy0PxECap1AxQPkua1nOuCNyGmgTslspdUsJhGMbKbla/kDS+Ras008xPRGQymcB62vf9hYUFoG2Zk0/J7Nwak9qXXnrp+vXre3t7BwcHH+PdTCONNNJ4tgO8LFeWGUA8wK9YNy+VSvV6fXFxMZvNTiYTFEg/PDwER4ti5kcVFsSItfZUeNYFhzD8k6OMhpWJ1W2oICi3w2CKYSiKojAMu90uRYAY/ugn4Cm3KYK2M2fo6xYSwgJz8xSoOrDWRnEUhQ9dF3zfJxlE/pWEN/fMIVtOBh8fwtC51Dfcd9+VUmo2m71e7/79+7Bjg+nY8vIysb6eZhx74mk89XCW+O/GjRt/8id/8uabb9ZqtZPcYM4LrbWYR77//vtbW1u9Xg9eBAB/EOkD/AFuUocK/RA9rkU5PJPQJYQVEQ1GPWXRjN1SM4SnGXg0DEPa47FHIMjGHoC8KSTgYgSxLH5IUIuCupj2wQwB1bdHo1Gv13vxxRevXLlSrVb5Dj/qYqLxN27c+OY3v/kf//EfBwcHiRcvjTTSSCMNHYSGxphSqVSr1TDEAIFhCAB+Rc1ziNMqlcrCwgJdaOr1erlc3traun///mg0un///urqKjSgcRSfynSWEasQZbBAglZDT54CslOMy9+CCgKbYbFxNBphxIyiCC4NZlYXq7GjJonjRziXPT6sMwEQ53FG3poyvFE4QvM8c+SA1mq1MIWoVCoQKnizJcRw1+I4BgN9KmcD62YXZjafDIulGLKhYRCR0Wj07rvv4tA3btxA0XvUp+AF0Y+QzD5Rp7pWz1489XAWz2WxWDx//vzrr79+5coVLdbmy6CnbqKmof1+v9vt7u3t7e3tNZvNw8NDyFjxPpC81FlZlL/gb7yr+m23rpqXXq0QVcyQAlZRpnGcdXESJs4AC+QuD2SdDFccO0vQrIUEVNDinQQoZ9Fqvh7wWIBiAQRtoVBYWVmp1+vztIEOtHxjY+Ott9761a9+9aMf/Uivhnzc9zmNNNJI41kIgg/gJ+QTg5UQEfTAhLPFYhGot9FocEEcMNfzvMlkAuVlp9Mpl8ulUimfyx/t/8TtsbNrlXqItHPG5+zh+RUSm6jum06nVuw0mnL4i+O40+kQYsZxjDwt7pbHoiT0zHDWOONINo/AUUQwbZhGR05ExhiJZTwe93o9LG9OJpNqtUoDTa2s8H0/CILxeIzGn7xJR2y3OWKLeZ25AEtZo4i02+12u721tYXLksvlVlZWUKuCMMPMJYRJimVF5NmAs7lcbmlpaWVlZXFx8YTF4vCgT6fT7e3t9957786dOzs7O5VKJZ/PczUhjmNAQL5dWmlAvtO6pQ0u65MZxZoLwCKOGyvHLm1TQIBrrR2Px8S4sbO+YycCra1xhQqZNAY46znbauwcX+GIaFKxWEROJehn6zI3PVfuYX9/HyXEXnrpJb57ctzbgt1euHChUCh8//vfl1mrlDTSSCONNB4TuVyuWCwGQYDsCCAwsDOwd83n88VisVqtNhqNRqOBD8XVRTcuz6nf7/d6vXv37i0vL6+trWUzGSNGPhq+sbMhsyyghrzi1BFUcEJHG5mINM1gMAjDEP9EhQVNgurBhUPq2bzMNYaOlRsDjgj9LkhWcQ4S1loU+8S8IoqiWq1WqVR41tZ5dELXd6oxzlobYz+e8YxhegxRATgyFJ4g09Tr9d59910c/caNG6VSCROYh/t0p8ZTPu2FeibjqYezIvLCCy+89dZbb7755sLCgq7+pV8SjbQANw8ODvb39+/evXv37t379+8fHBxMp9Nareap4ntaQZvQtkJzwznW/Bto3KI/bWK1owpAZOQqExpV8YtUrnGaJDunldGTWlLFhLPW5Z+JWsHxlKsf7BES7UTarOfqSiPpstFoaFA7H6VSaXl5+eLFi1euXDk4OOh2u2e9jWmkkUYaz3hwJPJcqtNkMkHevYiA6QQji4XmcrkMfwMoOwEB0dsvLi4y2Rd9L76qVavlcvlU/gbERgl7LA5nHIM8VfRBw1ytqTPOUxI6WvJB8DrgkARiRS9UfvTFPUI9DJ2Rqt3geR5YZLA/sDyLXaZXOA5t70haIKrAJ5tE7vxUPKjlHbcPLyMviCiqHrceYgxwtNvb27gd4GiXlpaoc5jHNik7K087nMW85Nq1a9/5znc+/elP1+v1R22pb3kURUEQ3L59++c//3mv1+t0OjDkAiuZ0IMDGiInUdwrhzUIqGZFIUJuw9cAP0TNML6u6IDEeWWzCgi6KuJj9BGYNWr5LJ9pLXswbubnOWMUcTIJcaJ4Ylb9VnDdxKqMt263e/v27TAMYfj8mOuPRm5sbLz55ps/+clP4H6SRhpppJHGsWGVUYB2p7HWgnaFxgD2OEwIIy7kKABXAQ4cKDMbjsL1c+dKxZKceD2c/IjnUun1t5qP5CjGcZCYjA6PHGiCIEBuBkcrVDUzru46rbt0fJSrqtlicQyUofOrCHQaSOPudrvD4fBoLdT3RGQ8GQ8GA1xM0KVIdLNKGABS+ZTNiuM4tu6+a9Ewz5fNwzQGje90Op1OB9f8+vXr0J9owi5xnBTRPt1wdnFx8erVq2+88cbVq1eXlpaO3YazK06Jtre3Hzx4sLm52Wq1oBxF/uNkMun1etbaQqHgqaROvM8UsHoq3UpmreD4LYJacs7ziEqxVGSdeECvjBCVQsFDSYOeFgNPiwgzN8XlPOpmsP3sQUS99sYVRTSuwgKUuGxYv98fjUacds9fUvwzk8lcu3bti1/8YrPZvH37tny06XUaaaSRxjMc7B5hIjsajYBlPedBi5Vl4FrCWX/Wg1ycyrbRaEyn09FohFqPw8HwsNMBz1euVAyZPGOscyTQa5UiYsVaOQJDxjOePCwPOeOQYB4KcjFUJfbDwQv+kuI0rHCn8pzXQafT4XAMP11eltjlNFtl7p64bvqgRq0xGsUZa/Eetyde58B6tIFYiY+szTDqoQHwrcfG1kkKE9YHCQiuwcbD1sY4xtHYzES9jO+LarZY8YznZTwRgSii0+l0O93tB9ue80pbW1tbWlrKZrPZTDZ5d+aujJllcBMP4TOJfZ9uOPvCCy98/etff/vttyuVClQBj79J4Erff//9d955h8oVzMNyudzh4eFwOMSbwHRISFFFJJfLxc4/C3mIOl3MKJm2KDkLJtxMwILAQLvVYsLKo2DFAS+/XunQryuWSLATrNfwHaYoR0vF0U7M72nOhbCuxjcdx9hIYwy0ROhJH3Nhfd+/ceNGuVz+0Y9+9BFuZhpppJHG8xLW2iAIjDHI5UUHDkOuUqlEjvYowSufJ5DSHo6+70OKio793t17d/t3Dw8PR6PR+vp6EdZdJFxEYmuNPMRiril69VKJFI5jJQihjBhNfIoqAIEquORoMdQat1zZ6XRGo5F1y4+QhOrFd+OKYHG5Ul80DSVljty1ymjs2MDOPVc8CNeNNJO1djQaxXEMTyEUpAU611CbcFxjbo2tuYG+glYkOppRHKFqYdG1KNZ7oAVEOApbrVav17WxjaN4Mp7kstlqtZbL5tzNSN6jmNU0Zofs+TnAsxdPMZw1xtRqtatXryIb6UNXK4wxrVZrd3d3d3d3MBiIYvjx5lBtQzcAvK4gUDUeBWy1bvU/dkVlaSyQy+USa0PihOfi5qx4qXzfpwxXZtPC8AohBxOngA6C03TOF1GjgVIBmX2mfVVehYlufHtp0SeqP4qiaDQaHR4ebm9vW2uPXWHRlxpCWyho9/f3U8lBGmmk8cyHUUlRMkcWPn4wApAFYSmOAUESmPY0oF2XXiJjJ4/eO5vNLiwsHJlA2bjdbvd7/W63i/K5pVLJGCOG0Mcc8axGLD90iNYCI7nzkNn/W3d0T4wxx5QTwyes8qMHI6yCYjNULDIubUuPL5QHkNAxajFQw9nEpWYQcRpV9zWBfamjBQuGRVoMuNDjgTACAWTm6sfa2Ug0RubUsZ4xuqXuohp9bfVfGc/3PK9WrU3Gk8FgEAyHD7a24iiycSxiX1h/wayuZtUjoTPD7KNVB7Gj53Ucu+VTGk8rnMUTViqVQL8zrfJRgW93d3d/+tOf9vv9bDYLQtQ6pwwwsniOoVXFxJGdDqAqfgLVLF1gsdYDoncymYRhCOqUYBS/RUvwc7zbnIDq8xL1MnDWaJxQgQQwm4H5K1S/fFipXvCcbZ4oxzG2RFRfgzeTbl9ILxCRbDa7vLz8KMkOm53P5y9duvTqq6/+7//+bwpn00gjjec5PhQrWGvDMARPKY41BJwFii2Xy6AGYUeD5UGrHCF18nGlUoG1Yi6Xu3PnTqfT6fa6Vuzy8nK+cGTdpdCsQmbuj2jWYWB+y0TjrTtNDejFLXiCNuaCIfAiR6Iojnq9HpCitbbRaEDgxxFTo89TXXamslmVZCauqTq1Gjo940xwgyCARa6I4MIedg7Hk/E0mgJpQNRH/PoYYM1LxOwxvdaqr+GjsvXQqmqlkvH9ZrM5CoK9ZrPVblsnS8gXCnAsxp6wN+N5j7ezAIDRkOAZi6cPzuLJuHDhwhtvvPGlL33p0qVLeG30NomHTESGwyGkRf1+HygQLCxlrFTSMOufvKwoLYF1SnOiRph3ELxaZx+tnZyNK35rHEVKTtSq9Q4tiiKBik80BkXgV6h/iPm9PmXqaxPzRfwTmQdQEeBYmkUOwxAnCJ1Tr9cLw5DK/WPDGJPL5a5du/aFL3zh4OBgc3NTa7zSSCONNJ6x0MAl8fmHsl8JMGSMQXUb8CCQzNLQgDaoVHxyJOJOkDRmneRMRFqtVrPZBErGMMF1SKO0cHaWV54/u0e1P7LWzG2pYSgyrsrlsrUWEmEMW/lC3vf96WQahmGr1YpU8XZauYszvkyc5qMawwyTD225biouLJNSWPgdG0wn036vn8vmctkc+CzoBo0yyn3UsYySYZyBCuWIDA10HMdIXIPXAWjj9fX1paWlTCaDPDactlGnP39BiLApxj1he56WeMrgrHHLBNevX//e9773uc99rlQqPd5JCtHv93d3dzudDt2qMWUsl8v5fJ7SVTzT1iV+aacCvjC+K+4Vu8Jd6IDCMBwOhxC/Ar9iY3QccDPga8PnDEIFiOX5qKHNnEUlOj5ROoR8Pl8oFIbDYeKdsa7sgqhEWnEpn1BraVEvEjzx7Wg0gs8XrBAHg0EQBInVrvn7ksvlbty44fv+z372sx//+MdgglNEm0YaaaSRiHkEDPAH1gDlFSCgLBQKZE9ktuCqHhfA7EK36vt+sVh85513bt26hV4dlTKJaM/Aeh7Tfms1Ups/Iw4uxIuwd8VJBRIEQTAYDIbDIdA26BUO0BpZzgdPIVbG8FAO+CeucYBhDvTTdDodDAYP4bhnptF0OpoyjRu+aRj6jUuwTlxJYkQzq3k47eXVgsBqtQqIMhwO9/f3gyDAnMd35TZyXk6cUkG3h4ySNl8jbXfaJj0V8ZTBWXEPSj6fR5WUD90edy4Igna7TbdkiE1lrhgstDKRi8Su0NHEznTWOKM+6woW4AXWmFLDVuoHcOggCCB7ZRUDiBbAubKQiZ5RUZmABpPQZcOGw6E+69h5GnjKWTp2OXN4UcWlFBhj0DBKe3Ei/X5/b28P13x++Yb/RR7D8vLyyy+/vLm5+d57721vb5/1JqeRRhppPEcBehUEbblcrtVqtVqtWq3CsQt9dexKDGhdJn5OPi+fzy8sLFhrt7a26vX6ZDLZ2dmJogj9OXt1Ua5bcnqbJ0htjQjGg/khz7pUEGYSA2iiCi6SlVEKK4qidrsNQImFVu0dmdihqMMlDvp4BvdRwQG0UCjUajUaTURR5BkP+r1+vw8qZ2FhARwQxIrHcp/W+SoQxJ+2SeLGd+wEt77RaIgIrt7W1hYPt3bu3MLiQi6XyygQj0sBkg47sc4jDKLBZ4+XRTx9cFZOzN7rJwnr5kxaRCqYcZID3H48qUS3eJ6sS5YC7Voul0ej0WAwiOMYLyr0sijljCRNHteqlEl8MnFhnVAdWgWiycjV9KLeQNxcjS8JYbEWP6CeWbfbRd4AZ8xEtNgbGFMuWBgnioBIH2AaRwHIjqKo1+vt7OwUi8XFxUVP5bEmLj6m4/V6/dVXX+31ev1+/8GDBx/P/U4jjTTSeHbDuIK36L0BZ+v1OqragkewzoSR/KWGU1jlAxasVCrZbHZtbW1lZaXZbG5vb8O9B6yHKALCU+aP8+LOxwfg7LxYk5QkiSes7OXzeQw3nU5nOp3W63WAxTiO2+02xLVLS0vIaaP5uoaz8yPO/HFPBR85QIPPNqoo/XQ8RQ2LyWSC4R7pMbi24KGIEHCy2oVX2zLEpywkJiJIR4P+BDuv1+vFYnF3d/fg4GB7e5vZKZ7nwezMc+njhPgUInNZlXB2/uo9G/E0wVncjEuXLn3xi1/8yle+sr6+rr991O3Z3d3d3t7e2dkBUc8pqaZLxSnHvdkisXg48DSgvxgOh1QgcLmBmBhLRdSb60nSaDQCmKa6AOv7FNFy/oqf423hJ9qcT0ToLBtFEaB5uVweDodMLIhd6S9rLcqfWLcig8vIwtNaTEOBBOnnbDYbBMHOzk6tVltfX0fHqklZHZDMnz9//qWXXvrxj3+cy+VSvUEaaaSRxuPDOO0sUr5KpZL25yLoJEYh+gRPgWGLYjaMKZVKZX19HaSjMabZbKJ7B91L7dzZSE2EneWMEnszzucV7czn86j7YIwZDAYY4LB8Px6PR6MRWmiMqVarXOfUO9eXi3BZs8sfynA9KtA8GhwNBoN+vy8isBjL5XJUEhpjlpaWjBMTEg3rtVPrGHS28LRXmKQsWVVggGq1CrY4CIJ79+5NJhOA5RfPvwiyiVMUcVXQNIcts+YbZ7hQT3g8ZXA2n89fvXr1L/7iL9566y3vZMU5tre3f/jDH2KBQz92nOx6SquKfgHTX+uWS+AyG4ZhGIasrG1c9hgwJd5D+iGg1gu2xA6RxKpFBXgfsHJhXI07agyQreUrG1p2VTyu53nT6bTX6yEHFiQx8S5+LiI0+fNcEgBVs+zRRE1V8a7GcYyGBUHQ7XaXlpYwGQADfezLAP3Wiy++2O/3V1ZWisXicDhM4WwaaaSRxmPCOO0shg/adSU8v60SiRLP+a7UDugSdvXlcvnFF1+s1+uDwWBzc/PBgwcY7NCH29kqtXJ6fGNEG9Qma7eKS3TmgIuBjAuY0P7BMWAaTUfBqN/vj8djmHYBgnM18vGXzsza3548+BNcRkwncBdEZDgchmEIA+AgCA5aB9ZlpBSLRdJGejgm1c01TyZbP14KnAhSqly5xf6r1Woul4uiqNVqffDBB/v7+57nZTOZYqFQKpYy2QyT1YwrnKSxLK/YaS/U0xJPE5yFToCAkp8/6vY0m82tra2bN2/ev38fzxymvFxzT2hJOQeKXfaopzyTgTI51wFglVl9Kt49zDtxFEBMdDTi5EpIXxsMBihpzUownqpPC+4WUzQaJiROnP8EPsaJiONuqZLBh57LSOMZadQ+P1n3PA9l0vDtvXv34ji+du3atWvXjp1IcEaYz+eXl5ffeOONfr//zjvvbG5ufuQ7n0YaaaTx7EikgokAACAASURBVATGEc1lQgCWd6FXz6zL5eUgJbMMJRAtBynSNPl8vlgsrq2ticOa+/v7XHVMMKmna78YM5tdpE+NfxM0s6lI1QejGQRBr9/rD/rZTJa2BuBoY2cWpM90Hpnpi8kB+lQnIg6Jku2mjpbcU7fb9TxvdWXVWguziPF4vLCwUK/XMe5jM4BX3U5qQk5L0KIZxBgcW0Ukn88vLi5ms1nktWNcFpHJZLK2fq7RaHBNWJSxEoF4Ik8uQdk+7fH0wVmIbOwjpOucJorI3t7eT3/603v37j148AAwERIiagPEwTjN2oKLFTUxSghi2BOB9aTOnY6ttPcClu31eoPBgD0UbBDg2wU2t1gsQkgEpUuxWOT0DnNZaGplVpZklaII7z/0/iKCB5ee1ZqQZnFwwlmicPK+RN5MTTPG3Lt3b2try/f9K1eukDBIvKLoFwqFwtLS0ptvvolbkMLZNNJIIw0dXAkkngBzCacaKGjJTeg+HOlTCTYnsaLNwpD5fB4aXAw3W1tbe3t72Aar/Dz6CZc69UHFVc3VLK9R3q4JcoTDK+Sn+Xy+3W5/8MEH4/F4dXUVNNNkMtnf34dstFKpoFWechYTlfU/z9oSSp48OEngseAYgJF0Mpl0u91ut7uwsLCysrK7u7u3txeGYa/Xu3bt2sLCAkAF1lqNSw33nfclm3raVgFOcNWXbUPzFhcXUTOs2Wzev3+/3W5nMhk/4+eLBVxbDULww1gZ+nqnFEk/RfE0wVmsZUNY8/gte71eu93e3Nzc2trq9XrsF4Ig6HQ6URTB+QL9gnW+BOg4IDexKonKKJ85CmK0Vl2c9nQymeD5hrRgNBqFYYh1HxZ3gReJ9rGjTgjtpDQK2FdP8tBPWeV9m2iDUTZeibUk/StPibG4PfvW2Fk3RK5iDfHu7du3y+XypUuXLl68KMfN6owrcriwsLC2toYiF/1+P+GMm0YaaaTxPIcmHTMugGi15wz5i8TPNfXAIMuIf8LAZzqdLi4uUsw2nU5brVahUKDN7VnADeorzLIqmjwWRc3K7BgEUFsoFCqVyvLycr/fx7J+qVTCin8cxwcHB4PBACMms5bZznlEq8fBMyBaglFqXjOZDKqpeS4dvNlsisjy8vJ0Oj08PNzf3y+VSo1Go1qt0juIYzdJojiOWXTp5HMGUF3GmGKxKC6xhxc2juNMJgM9RrfbnU6nd+/enUynKEp/+fLlRqOBRWYwVgAY/iOqOTxL8TTB2Ww2u7i4uLS0BM4yEZqX7Xa79+7dAy/LIrFxHMOoC1NDWArglSD9aYxBGia2JMQE1OOzzsUdHJrzJ/CjmUxmOBxCSzCdTsG/QueABwvwjoCV6lhxrxYeX4Bd4mz8gXcD/R3WI8i2sg10ZtAzYzSVpcj0dbPOQZpdJD7E6yEicGAYjUZ37tyBOn59fZ1Za3w90KlhsabRaKytrZ07d25lZQXS4Y//gUgjjTTSeApDr4+jJ0dvj9q22qWRWxpV6yfB/LEHNsqKC6t2GIMajcbS0hL2CY4WVSRrtZpONTtF+0WMGPuwpthDaha8JttGlKnhJvWdOP2dnR1kepRKJRQ/a7Va2Wy2Wq2Wy2XQtFYleyV4HPloRqp6rETggoCEEhHoDTqdTqPRWF5e3t/fb7VaBwcHkPmyBPFDhy/Pg/sv0KRmWE8YGIv1Qq6nDIPhUl+r1ZCZ3Wq1Njc39/b2ptHUitTr9Wq1CnIXNqCJbHJ9xZ4xaPtEw9nEivba2tq3vvWtr33taxcuXJi/DQR80+l0d3f3F7/4xQcffID6AryRWGpH9ihmrt6sfNsYg8kxgBrd/thNzFfw4qvFBX3IIUQEaxa+qiaCBwszTnGGr/RDYBeAPUNcIWpyhkeTYglPqYU4VSXr7CmvWX6CAwHBs5fBc08JBw4RBAFhqOcMH+BBe/v27Uwmc+HChQsXLszfBXH4vlgsXrx48erVq/1+v9vtzt/QNNJII43nMKwSlcJxFst3xWIRcJa4jQvEHKQ0hiMLwz1zgBARyE8Hg4G1tlgsggnCgVqtVq/XQ88Pg7BTnoE5NkTxSnZOF6ehrYiAYgRKQ7XO4XCIZXT6W+GPYrEIMkiD9Y9+F3SbMVCSRoW9z2QygW8ajWBHo1Emk6nX60EQbG5ujkajfr9/7tw58N/iGHGiDu8j1K3Ar3DW0+kUed7WlaXwPC+Xy1WrVStiRUaj0a1bt1ACaTweX7x4EQk54iDK/M4/+gV80uJJh7OYkuJmLC8vf+Mb3/j93//9Rz0cJBR3dnZu377darVGoxEXUwj48OACwLHLEJEEBgXWRO8gInRpJUCUufp+Wi3AfsoolTon4lxO8p0FLA/EveF0xGnAiYYpqUlMfAnoOSHTC1JoGz/n843pIybxfFVg+8IPeZqj0ajdbt+7dw+s87lz58jRJsL3/XK5fPHixZ2dnffff9+fNXmelz2lkUYaaTwnoeFsNptFgj+FswRARsk6Y1Xx51EA0bhalYCzcDBAvZ5cLrewsLC8vAy4NhqNDg4OsCW+PRXkMkYS/LE+NZnlYklMJhR6UA8yBxqyVMBZay3sLHmyGH91WrMeRIzip09+F9g2DpTG1RoAGMUwVyqVuJA7Ho9BTqGGMBYt4RmMYR1kFk6BC6FngLOcD2AnoJaohwSqQS6Q53nRdDoOw3v37h0cHKDQKQtwiFpufSYhrI4nGs4mXlS+FY96OIwx+/v7N2/evHPnznA4HI/HYRgaY3K5HH1e8SZrAMcJkHUGfkbp2bmUDxBJI1WjFKh4sECmwtcDr4Rx3rS608Hsjb9CELVjumxcQUKNv2kKi2Ohm0N/hO6PKx0U49KlgcdKvF04IphUHBo/xw7z+TwvPo4L8qBWq+VyuXa7fevWrXPnzi0vLyduhOcqhF27dm0wGNy6dWt3dxd35Nf0qKSRRhppPC2h0R7UWXSJYhKYzJY017JOfIs67YkhKZvNYrBjZogOY0yj0UBXLyKtVguVXcMwrNVqWFs/WTxE2xrRahWEdVI3nUJNphCjHoBsqVRCm4Mg6Pf7HMIAFjlWes6NVZNQ+kLNc5CPjwTbTVaLqlNrLZLS8vl8vV5vt9vtdhufo/qaMabb7W5tbcHrAIk95ETP0CSEdQbDECViV3QLBlqgUgVmEVEUWZFpNL116xaQwCc/+cnLly9jesD2nAFYP0XxpMNZ6xKYoBxPJIHpZwXQs9lsvvvuu1tbW6PRCObMdBtA4S4sIjC3ic7S4u401+Xxt2ZM2afwScJBmYc4Ho8xw+aBOB/lHkQtEpGs5ckSU2K6LGoer+dqDOtyGLnGhN7QqOA1TKhn+FjjcHyxsZlOGsOUgB0uCsxAhI63mhQC+2hUIRaRwWBw6dKlzc3NnZ2dFM6mkUYaz2qcnADTIxcAUE6Fp1xU0fPTWVJcz4wDoUeN52xogyCgMi1WiVPWWgyjgGuTyQRKMHC0AIuPV3k6VJRUG+jWajWqlgdwVBUHc/GrQqFABV2n0zHGoHy9dVY8vvNf15nToihMNiChgn0UmuTPSWlxPOV15t1h8aDpdIqSZrQkCoIAq8HD4RC4ol6vE3cmlCGJQ883hp+QwOIGOi+c95QTmKPiwNlMu93e2trqdrug53Cv9XQicWVOiLafFgT8RMNZRqVSefXVVz//+c8vLS3JXBojrvVgMIBvxcHBQa/Xg0MtSif4vj8ajYIg4HSQ0lU8GZGrBGZm1yw0ghS3Lh+7VEF+Aq7XGEPLWBwO7x6ANUskGGPgeKBpWuP0uyICWlevy3DyzQYQ+EaqqBgWqiaTCUA8wSv3r1PE2BGQ5dUIGwdFnikuhc4hw9wAV6bT6ezv71cqlUqlom+Z50x8a7XaK6+80u/3/+u//gsK2jTSSCON5zyIRcCAIJ2IaRUUDBC6GZeCHKt0fgo0raueE4Zht9s9ODhAQhJGHy1RAHmxuLjIfKNWqxUEQavVGo/HKKaqARaoH+SZIAkbQ8g0moo9PqPIzC6lypz2wM5asWac1Sv+SVKW4r1+v0/GtFQqlUoljWjxK08Z++jGWGWwoNtGhJfYPoEB9FHK5fLa2lq/34cdO6QIYLI6nQ5Qr7hcF1EuYPPXh+0k0CegJ/1EbHPsNdTtzGazYsTL+JiQhGF48+ZN+N+//PLLly5dghZi/iFMgFoe0arQE48nPJ50OIs712g0PvOZz7z55puoLyfq1jJ6vd4HH3zw4MEDLKBgVkeyE7ZZuFsQyONvpnZx/UVrdDDfIlHK+RaxoFXVPiAzMMZA5gLAl81msWfuFlCVFioaXOL5JlmLyRmPJa7WF/4ZK0MGBF8t9oOiFPui4LtVBZ3RZq5iUMyAyT2Vx5y8YgUkdlZi6Doh4tF3TRyirVarL730UqfT+fnPfy6qjzjhvDCNNNJI40mOBPF2kiCIAe9IOEvnrNjl787rLzUlQaihxZ3D4fDw8LBarVarVY6D1N3iJ/A0wIgDf/HBYBBFEY2xEgxxrFKf8UlkrbGiP9RnN3+JOObOj+Ce50HliRPpdrvAr5ThIZHDutQOXCVfOYJp4JiAuYl7JA5ucntPFR6bH5h4LtbaQqGwuLgI2IALixYCbxweHnKIhwmaUaEPYZT+EAMr7gUBBjg4zZTbWTZXw1zjmYyX8TN+vlAApG42mw8ePOj3+5j/FItF6An92SoP81cpcYs5d9I37kmOJxrOGmOg11xfX3/ttddee+01rF/zW/yBi95ut3/1q19BZqCJRhHBrI6/whQWz0rs3AAoScGbwz4FDxYBH6QLoroPDUaB9gBS4dOBvzOuYB2BcuxKFbAxfLv4DGmsrP+rkaW4HC/AXBxxflaHXgwnhbfFujIQWorEF4l9KA35SDzjHSYr0O12c7lcvV6XuW7duCyHpaWl5eXlarWaz+fpLPbre2zSSCONNJ7wMG4FGUE1F11C52Gf7qg5IiSYHTtrgAD2AewJVqutc4EsFAr1eh2ViTzP6/V64/G43W6Px+NGowGO1rrleHA6kTOsNMb4niePyGCZ/5CtNbPknyiukWa0+AprmNZxtCIC4tlzlQ4gUeW5awZaH5dHeVSrTtJ+BMZQ2GB1u11YQzDxGlcPa5s0+qWAgTvX907rBskBiWKaj43k5OGoRtvDhdbY6W5/8YtfgKS7cePG+fPnMQTzxD8UoaKp2CHtnp7keKLhrIhks9mVlZXLly+/9NJLly9fltl7ibuC+Wiz2fzggw8ODg7AsUeuyFvsqs5yaiuubhZ7B+pRAGeNMay5R/NXfMunk6BWlGCIcgU8qcSyOi2Me+AsjdZaieWA2Nlp+a7KCCfrfCu4w0i5xjKPTdz7o6eJ4hAwZoT6K+4ZRwEZjMZgA+go6JKYy+UGg0Eul4NNr8xO49BpFotFlFRZWlqqVCrdbjfFsmmkkcbzHOgkfVdL0ncVbulFxX5ejqMJtMrzUYiNWASiO+0SYJzvZLVaBb+AI7bb7SAI4GWJJokr9g6URpbXM54R45kPh0Qyy8XMo3COO5lMBuWNeF5YBuRwBqUvLpd1zLTmL+M5r4PEpUtcHP5xQt7Rdx5ehULBuoQcLL16nkde3Cj+WM89EkefvwhkxD2VOZdow7FNNUaMZzzfy3rZcrlsXR4RDH3hzICLhsK8Mkvx6quROCiBB6niE16r/5N4ouGstbZUKn36059+6623lpeXkYM/fzXb7fadO3du3bp1eHgIaQFQaexqGYdhCPhFhah1JV4xyWMRLI1ZqWGHFJWH08tAGh0aY7B8zxcMLx7m3KxToIFvxpWBwXGJHbkNOho6EnhO6Q/lPuwI+CsuPOHscNYJiwYgewihrKNm9UsF9M9nml9hEs+ORkTghFcsFvFW9/t9VBtP3B3f9+FycPny5a2trffee280Gn1sj0gaaaSRxtMZIPDADhQKhVKppBep9VDCMLPre7FyPNAABdvALgDaWevyQIixwNqUy+WlpSW0JJfLNZvNIAja7fZkMmk0GrBcsI6Rzbgi6rqAwgnDzlLIGuQRRQEpilOOQgWBAc44qhg2ujgjyI4JCRKH0BdtvjHRbK3gEwagKnzr0QYACSSH+b4/mU463Y7xzGQyQTVa0O2xyufmcTHaihMKFotF5OGcqklWrI2txHE0nYqrM1+r1azTQ96+fRuwJwxD6GiZxqMHegzufPCMExknbtNpr9hvMp5cOIsLVyqVXn755ddff31hYWH+W3FSmzt37ty7d6/X69HyDe8AKEZgXOOoUPwQs1IYFItL6mLXgKfTc5UItJ8AIa+o6TIi8UxYZSmgZbKajmX/As2rViagMdhAlMIdTcVuE1Nz69YvgJ7ZIRKG8hwTaxyJnZs5Gnh+iknAPR6PO51Os9lcWlrScNaq1MtKpfLCCy+sr69vbW19jA9JGmmkkcZTFBp7EUSyHhjgrMwqZXUPT5yR6NjFrVNztyIydkFEqIcb47R8xtk4UiCHogbAWKVSCUQp9vwRAY3maBmE4xR3YuUQUG84HBKZoSVcXOX4yIXN+XGKDU6QjjLL3Z78vEAbFYtFEEOYM3BEnkwnwTAQK3F0dFLlchlSDatWZXniGIsj57AZz+alnSgskvPiOI6N5+GJqlaraCdyta21eCSy2eza2lqj0ZifKbF5VuWIG7UOfOqG/cbjCYWzvOX5fP78+fNXrlxB+ZDEZkBUUBq022086KI0pr6rImtc1hefqoyrj8UVDUyM8AoVi0X8CvQqNsb0C7/Cwyci9BZANwGzW8wa0ZUkYLS4HoowF/ZeonAqUXJGFe/GHmJlpk0nWpwv0TB+hXm/MQaKBa59xE4ljIpfNLjF5cJ0E23GWROsa32PvrCTyWRvb284HPq+nxA344hoZ61WW1hYOLZAcRpppJHGcxXGrc6hm83n8xh0/NmKM/qPxwALTbMhMZcyA6zIiVrW58ZQEWD0wSfgQVCkvdPpAO8yewSkzNFOTn++omgXO6s60LwMhq1yuYxx2RgThiETYMCJInENuBbOmCSb9J4f0x6tjjvViVAvWyqV8Ee/30fmN3mu8Xjc7XaNs5OH3NaohDBOSIBGmD9jlVb45A2z1saxjeLYc5QW5iG8JpPJ5NatW7iGWLatVCqsncHxncfVN+upALKIJxTOIowxsDVlLRN+RQDX6/Xa7Xan0xkMBrpwq56Tzc8pefOAJsVBSYBRPQ3F06Dt7jhxoSxGHyt2hUNEwVMytXiejCta7fs+UsH4rMfKT45LQqK6My4b6bMjwGWwU2BPgfmfqEk8+VqcI+e4nPJq/ZY364Yt7qHH+fb7/Xa7fe7cOT37NC51V0SAdJeXl2u1GoD+WaahaaSRRhrPSmixAeAsLSDn0Zid04bOB8iOTCZTrVZ7vV6/32ce2HymFH6iwVMcx0EQ9Ho9VL2BfSkqlmEbrnl6xkA3e5LTPMlm8axrFcdWjrCxyr2O4xgiBIJCalWNKiN6bBxLD5882AYAfRFhZQdcZCNH7BUS18R5JZVKpcREhSdLCknHqVqFXxjFsJKHAgjpdrv7+/vi5L+Y7VSr1UTNDr3mrKnrs12r33w8oXAWl5IgUh6Rotjv999///0PPvgASfp6ZiZuFgUECQYekzx9oNgpVslxcv9WWRZz3Z/0p3FFFihvjV1aGNYOgiAgePWdX+BgMMAErlarUX5Ap1jPGXaAW/V9n9uLMxe0TgKFMyJZi16Mfh++q4wHQQW4Z2JrNBWqI+sEEsCveAey2WytVsMe+Fjj3KH0xQVB0TXMlUUEnhIJGQZo7FKptLCwcO7cuYsXL6K7DILg1/kEpZFGGmk80eGrCudY7CLxoYczRALekfXQOwSQAvc2GAyGwyGMenRwY1J34jpqgFc4fMG6C8wOC4ZxsPuIJ45RJgHZ49lkYizoi3LygdcBN55MJhgfxdWhxPiFoRzx6yBNMFySU/dcFgo4WvBNmqPFH4uLi+Vymf5iJJLo8s7qDGdYwDySoPi+dRU3YBgP2A1pAUj3W7duGWNyudzGxsb58+crlUqxWExMcjTisk6++LFdvl9nPKFwVkR836/X68vLy5waIqxafxkMBvfv32dNDrKbXJfXS/PzexCV/mmVR5V1rgUIVJHFkwEq13M+WUdpnp4HpKinktQ2iJoRYqJcLpcLhQKwNUGznQ2qAvQ7HzuzWL4D4uZbmjDmqQHCAviy5oK4DgJiCXRwZla3xBwyoyxpjXPMZZtxOuj4RKTVarXb7XK5zCprniumADXP8vLy+fPnDw4OOp2OTgg781w5jTTSSOMpCt3XgZWgURepMj0oaPomdv48eg9GLd9zgMjlctZawlmsOiKMkhzoJW/r6r0Xi8VyuXx4eNjtdiGWm06nCwsLM6JeNONktF0CLem/zVxuhm4Yh7PYJU8nxkqs8ulUaUwPeAhv1tRMt+pjIR1BbGG8I8WDIdW6JJlYWR7B7lcUjSqKDSWAOVUjQcx6xvNFotmaYWghHobJZNLtdlut1ubmJvTQmUxmZWWFy7DzR9Q35aNfq99APLlwNpfLXbx48ROf+MSxNVRx74Mg2N3d3d3dRRkwPhCxKuuHgA0b8VziFcIfpCfxc+I26llx3GKxCPk8VbPggH1Xho4Yjisj6ERwaC7fG7fQwz2z5FiszMXIp1ILhQ+5sWaLgbaNqgEmrtMElQsCFWYL2C3oW0zmAK8x4xwOh+IwMdIC8vn8YDBgrWCjyivAKuGDDz6o1WqXL18mnOXVxoywXq+fP3++2Wxubm4eHh7+Bp+mNNJII40nK9gzI6j1IgtjnWeiKMBKpGJUPkOkAl9BA4ZFeZT1QYUwmPx4yulcVEoZmoSktCiKMF5gmbFWq1EDegZ0M48puZsE6aM3AwMaOSN5ay1AOb7F+NXv9znYlcvlY7WnmhUStXh42rMgOQ2ULy73Lp/PV6tV3/d7vV7sCpjJbK6eiICdpQG8dQYLxuXJYLdGxSna5nmeExNGs9af0NECk/R6vVu3buGSgu2CpYYGRac99BMSTzScvXDhwksvvcQsPM074jkejUa9Xm84HEbKA0vfFT5JXB/HHvg0c5JEcIaXgRvrWS8ALpAZ2Hv8E4APjKk49MalE6s8QezsQpJ1Il2u6XP1R79+1mlxMMkW92LjBeAKS2JhBU+zdQsf+BunAATMI/LnmFZiMke7Lr6QRuW08XRYHDibze7v79+/f395eTnRDM8VFi4Wi41Go1ar6ff5435w0kgjjTSe9DCujAKxLLMdCGdlNleJgxGRKJcE9agBUQHSudDhY6yk+yx3y26cIMZ3VcpAzTAHC0csl8vqZ6c+Zd3hc8A9yVViqnTsfIf0QI+FR+MKepHZTXCfMgumveNMP08Snqt2xGHdcyWKPFcuPnbO9+IcLTEQgyoC5ibhZZ1uJJPJcL33dG2DcZpzUiIe1cgeh8ODsb+/z9TwQqGwvLysKe2Y2X6zkPrJB7hPKJw1xuTz+RdeeGFjY6NarfJ11SgKdWuJpWLn6yFu0gakJW45PjHhoBFBpFw/5hEhJ8dcZ2ddDeyf3QeeRQ2LdXCVRFQFL+t8CYbDYRzHmN6BRcbKDk4cq0Xoj1hSi6pi7TsL2QN+jv4Rn9OoBdv4rpAY3xycAllkbMAZPGvVlEolGJSwd+h2u0EQFAoFiIdgW6ivIV4YzAIzLtgjfMzPTRpppJHGEx96kk+vLjIplLFxe28uDZr7ESVOQIRhOBqNut0uxK8gXGD4ryVworhDYmvmYHiq8CS0ZEioAA47M7LR0JnjizgOKAF2CX+BaK3TcQJnk3Cxzo+WyWE4BSaHmVnLM5lD86c6BbQZHJamk3A6GOW1fSxaGASBGPF8L4ojEalUKoVCAfw3xkE8BonC9ae4pCISifFmUsC5DS5LuVz2PK/dbu/v7+/v74MaA25hmWVekMQ86snHsvLEwlkRyWQytVptcXGRVqZWSVHDMIRSEzZb/JV1i+z6teFDrwErIbKnDPwiVZJEZpfLrZPYEgEj0Qq9D/9m46lA1Vliuh95FDdpVW1bZpsBzgJ0eq5477EPHDu+2HlvsQuwjqm1atHKV6a2ekJGyQQ2xkuLbo5TT6ssIKCpGA6HiWQ7/ErTsb7vVyqVcrkMs5WzPiBppJFGGk9lEM5SaUB6Qo9E3PJReEKPaxy2RqNRu91G0VqwrYBNGLkSq476KGBe0F2zx46dpSOUl3Ecl0qlTCbjm0dWrnr8WXPsmB+juVkCaAIpgtrEJ0DqegwFWIerJgr6kKHU49r8ZEBOiWjn14HZYBw6iqPJdCJGoumRYgScVDAMDuQgjmPPeMat8fouf4sQ/wy0sbXWirUinvU4pgM5WMVY454CS4xGo/39/c3NTXxYKBQajUa9Xjdz+YWiAO6pWvWbjycXzhpjoNfUF5fCgNFo9ODBAySBAeThzsXKG49vjig8SgKVUoF8Ps80MnC6JNtlFlyKM/bCvBCyJCJOSEjxE9T6iqLI931sDLkqdkLukxAT2YV8/tCDUN1CK2ya2rJyjHFFeq2TAWCSjUdWL2Oxv7PWQulL4tk4RhZN4ldgDvAqGkUD8BR4puIMC+NZJTtvpTi9B2js5eVlGKul/gZppJHG8xYazsKknISoqKwgo+RwMmtuw11pYIqfB0FwcHDQ7/eRFwH6bTgchmFIOx0MapErG8SxAABLw2u0AYlEnueNRqOFhYVyuVwqFP2TVVVg44kmT8hicHuMdGwV80nA0frO3RxeB8YYlHXlec2vzZ459EXTXKaoDJxCviB1yefzQRCEoxCLumhhp9MhxERFUog6MHoCP5zROMKKtXE8W5QYu+WAjosAHS04WiAogCIkvZCj1acsTwOWlScTzhpjisVitVqFA0DGFZvVG0RRNBgM4NMBvMU5H8UrsasXoO8HewRsg06EHyamxXzzjdOhxi6rzBijfWpFTT0jlYPFHsFz9WmtqmigZ2N4mvFbrPuj69HUb+SSA1giwXP6bvyKqy1E0w86uwAAIABJREFUnwxeEL7k+DDRQnEzOXRViRm8VZUS+U9OkbEk5M9VuxAlFCuVSo1GY319fTAY7O/vp3A2jTTSeBqD0DPxoY5H/ZYL4iRoMRKRzJsXYmnykh/Gx0UYhijrRTEDVLMQrWGYwM/J6XguZ0MUkYRWxc6eHIo4MD6T8VjqFmhMc6uJU04Qrpp+nr9K878lD6JHWNCukavuzqKexmVIQxrBEY3j2vy9O1tYt1zpuRKhmtEEDeT7fi6b8z3fMx63t9bG0zgchZ3DTsbP+L7faDQqlYrvDL+iubq7J2nnw22s2PhhbhkwtAY2uCww0ADGGI/H+/v7d+/exbnkcrnFxUUk3/uzLrm8U08yrn0S4azv+7VabXV1tV6vo+CHzDpu8CkXN+ejqSrvHNWicRyjyK3vTP6oayHXmNg/wjqrARHJuPpY1jkqeK7YxmAwwBPsOSUrAK51VbVEPeLgXGFM7TujWeMEN5A9Eb+SlMU7A50rdPpIRSSc5bloHS2axLOwbtEBfZyIQLWjF7kS8360gYdmYA98xKeuKG6pVKrValzl4X5ipw2qVqurq6s4r3a7nVYISyONNJ6r4FJYRoVWeT6eR/TmRLREsZS9wcdARGDCg9QF5H4wIYzok8eKVf4ZzA3wW+BgoGTsfzgcTsaTjH8keNNSWj2Gzp8IiRuuKB4LZ81sUhenDdhhAvcjWQ0yg1wuh/GXpCyvsziAG6vEj48CaslPxco9jZQZ1Bo4ip4/4HQwMQiCYG1tDeavlUolcsZEvHRnAI4c7kFs4bnC7TuiugyUDgb1jA4ODprN5s72dr/Xwzi+sbGB5QLCWceHWSvWoFrDkxpPIpzNZrPr6+tXrlypVquxygBjcPJh5zx+japoILOTQojcjUvP5289VYCEv8IfPMQ82am7Ej0NQo+A/gI6V704gkeNOlS+ZvgJbKIJZzGZ5rkAjqO6N4Tb2pPZOt5UL6xwjpWYBmC9g2CdSF1P7OhCkuh3yCgz8wBpXmgYZFXz99RzxRTg0Q04zuN+HE9NGmmkkcZvNBJ8lR6nEmOK/pzcinFG93ScTayMG7V8lzhK7BScHIPIy4KnAHUKSEpUB7Q3Go1AtbB5sbIGA4FXKBRo18WWc+DIZrK5bBbbYzDSZCq257isr4OnnNHnv2VjZFZZkQCg4I9RYxboEDVmo1kzAYyhRvnsisPKj7o7JwnukH/r++I5zYYxBlcPF40pX2JEjITjMGyFuNRxHC8uLiauycnbgysi7tzEio1iK2JFjOcbOUKg7nytEfGMyedyuWx2OplMJ5PRaNRqte6+/z65v5WVlaWlJZyFjW0cx+KJiHi+9yTj2ScOzuIhuHTp0ssvv1wul7X5v8wCTb16zs+Z2MSEJGAmGh3wD7zhnkux58OtwStfA+uMCPD+4IeY7mCKxlV+tBY8q1W1zWLnPguONnZFZbnKgCk1vgKQZW6Z52SsQI3ooSjGjV1BEXG2dpyQeU5DI7M0tlXrWVYthUCH5LuquZ7yH8HFxA49ZfVAgJ53cazYwPM8gF3yytaJdHkTP2Ivk0YaaaTxm4x5BiTx+XyQYmQNMIjHEviVqIishziGUhOWkXKoBOHXarWweFipVBqNBrvlYrEIOAuBnFFV0CMVQIoQGwDO6no34sbWfr9nnExTRLT8TINOni/FckaJ0x7DZcTKwUp/qLEy6iuxdOhoNAqCAENkHMco7tPv9zUL7s9VnfA+zCns2DvIXCtxkIPt9JSpaMYVwhURIBkoQPK5/HQ67Q/6TdvESbG+8bF07wnDM668hTjhQTyd+dxKbF3tBjHG8+r1RrlU3tvb293d3dra2tvbm4zHnhgbxZVyBavZURTFcWRjz+LqPcEFwp44OCsixph6vb66ugpZSeLWaiCbUAhoVOq7sq6eSx7Er8DnYyFAzwL1/q1yCdDvm3GyUXFgDrBYT0ONMnsTNUcH4YouDMgYM3J2Qwg02M5K+62zrEMSGIAsVgQ4O2dxLzvn2CBqQskNeJqeU+hbR1cnXiHdz+J2cE6MYmzA2SAD9NXQe/BcvRb0v7BuhvAcSnl9/T/qA5RGGmmk8ZsKzacc+5VmYcSNI8z90hyBKEQrs/22uM6cYwqBLJOTYlcWp16vNxqNpaUljBqlUgk+Vui6sRzPsUxmV+HErQRCO2uVJI9HD8OxtT0/4/sZHwgJHK2WB/AsEmPoqSCaDo2DcVmA0XksDIXgnj3PAw/dbreNMahVqSkqjoZypkEn8ZNj92Ccj2+pVMLIPhwOj2C071UqlTiODw4OsA10tKIekhO2RCcVHb/BIzwxjDFeJpPNZGq1GmSTw8Hw/gf3fc8XkUw2u7y01Gg0jAg+efLjiYOzuJfFYrFer8ObbT7PLlLlUiJVHIETTXwLFRGma8SUURSB3USmJ52nRJXTiFVhBcTRvXfKgdgVcQAxyaPHzlFB1KIG4am4pEW0EHAWM1fMIyFeYaegG+D7PjQGIHQJZ+2sH4I48yzAR+uErYkmaYSKSaEmdz3nC8PNZI6XxdPf6/UwSwZbzDs1D4hJ9ELqVCgUarUa7i9tuj+mJyiNNNJI44kO9oeEsyRuONbInIyB9EesUpZjV4OKQw/SbRuNxsLCAuBspVIJgqDf70NTi4EPI5fvCjEkOBTP2Y0T6er2T6aT6XTi+56I2NhiARqEhU6rSABQDaA/NDRRxYvAS8QcL3DMXGhtt9uDwQCVegDc2+02xhdwWDhxDq8axP86AsfVIyDWYEul0vLycq/Xe/DgQexqQ6DaqP3NmrxaayuVSrFYbDabURTt7++jYKfneTdu3EAdOM/3bRw/+TzTEwdnRVkKwN8AT6HMOTDzhRTFtuoXkvQtGFnP5UXx2cU/PVdexai1EsJcHtEoGROQMfQ67JWIgzkl1SsjwNnwjsXcF5NFKmUTxsuiZvaAsNDmZzIZurpA8ACRKxlovQcdwLXWWc+Kqi4ROysunAvbjOMCuxvlbsaDlkolULOlUqlSqUBIkDnOZNs4YhvdbrVaXVhYWFpaOjw8BMWru+MT2rikkUYaaTyNQZkZBhcyBXqAk1kjcDNXMQEbk87gsFgqler1eq1WQ2IuVsDCMOSi/NSVsdRLc7EKDjrUsyVPwForEobhYDDwvYdDT7lcphORVfxxPJf49aGht+d+rFquFEfKQr2GBoCxmkbTYTCk0eRgMABCqFb/P3tf1iTHcV19M6v3bfbBOgRASqQoQrQUkkIOORwOvSj8F74/4N8ohx8sRdgOLXbIlmRZFAFumAXAbL139VKV38NBHt6q7hnMDDAzIJk3FNSgu5as6qqbJ889994mg5ZW6V9fwy96suFHgTQC/+x0OuPxuNftpWm6vLScpumzZ8+iKKpWq5hSL3U8MONbgaZe94iis91ut9/vf/bZZ4whr62ttZaWUtz5C/SCu0J7s+AsUSPEo8iFn4/dU9jOYA1cA4MpZFvR5oSxFVFaBRwQfwOEOc/7AthBaUTFT+6hBza1PteKy2VWKkhUi0LrMzFHo1GSJFCRJr6aGPK9nCoxppePuAoEjGq1GgZG34cEsjRNuYzO3UwOGyt47mt82bzUS3Up4Up90RNICOAgnK+cAFc4nU7r9brWZlUqFSzyFq6/cTpgbsDZtbW19fX1/f39w8NDKIat6vL3+p6pYMGCBXtTjAwFonPOZ4bp+cV6gZz+xPjIOOcawlmQEXCwxWKx0WhsbGyAXwDDmqiyVomvCAlEq9lZTRgBgQEpnnQtM9++lb1zxXO0zNnIoeSzY0eNX3NwVrLxUuJyZoEfHx/HcXzjxo1Go9Fut+M4brfbmOhR50Hve6lwlheOtQSm6X6/PxgMut3u0tLSzZs3j4+PP//8czECyhZpYee6VxcwXDsmdJwLS6Dd3d3hcPhk+8n2znaxVKzX68baWr0ub3aJLtgbB2fr9frKygpQEQXmuW2cUiABiY5GIxZtTX3JEj5D5CPxfooI2pyUSiW8vSQpxZO4SHISVcqE7oPihCjbcIvwGmiM7wmOpoM4JGVRMwVLZ8Jfpn/BSqVSvV5/0YglinRdLayfrMoAtb40N0rKkcA2Sq0lfrXN/zpVIIKUdqq6JuJEIsKnv+ArGlLRix9L320afVCpVFpaWoIIBJUQdJsMXCyw8tkX8cGCBQv2FTKjUsEY0NNkIdlZydY60BwneRmu/+EzQXw0Gg24VnIimDsqlQrkXjhaohpHiRLyYepEKthieYCf2qbTqThJZok+FwKJvBBOfAszK06yVGkIF36bqPZGxN/NZtP5Ej3T6RQSPhGJ4xhz9Hg8pjSO7O/VTDck46rVKuupdTqd1KVr62vGmO2d7VE8iuOYBX3Pfrsudgmpr85J9Ixa/uPxeDqZ/vWjv4qT0WiUJsna2lpreekNR7RvHJxttVobGxvQGMy/SDZbVAtPcLFYRMIm30Y8K0BaJPzSNEX6UafT6fV6gGIEgjwFtgdfiIUmPk99jxZKjuCPsL34NEYkVLJXFrAsy4UQ4+JtRCFAKNZ1bYRUVWwoFAqQsUe+Tq1ke5WRVyalWiqVINARLwg2vngyGdzU11VOvaiXThP3U0sg2EkYi3t4KxyQ6iX+KPPG5QciF2ma7u/vG9/lxSg5FG4aXM9reqaCBQsW7E0xenWKDWSO99IgxqpKOzmGkqQDoa0xBqE/Rsno58UrHMrlMvgCzBoLj085XKVSWYiojAD9uDRNx5PxeDIW82UvA4batJ5Bzs84pnOa3dxXVqV5gA2B1hMfdrvd4+Nj3OfJZDIajeI47vV6GxsbCKyTV7686caoxD7WpAecRX2xp0+frqysbN3dOjo62t7e7nV7w8EQv+BCbugkO+8lYFrn9C1qhYAbMktmHz/6eHdvF8mFD7/3vbX19QBnTzPeHecTKm/evPnuu++urq4u5GXxR6r615ExFRFwnAw6RNlKfoBirCPNnE2XzXbUuWX4gSPfVdl4Obl4rt75Al7YcTQaAQSLCAS7XJDhUKBLYSiMkAPTRq16qXbHf6FkosxgfgVPnEpvgmUWdcBW6Y1SX32WYFREEtUuASoI51ssghWGAAg+0arSsxxGNFfmVluhUGi1WpPJpNvtkmyA18NxoKMNWDZYsGDauFq+7CDsFZimNkivptk8DfpkMpqpksziOM6nghhfKdxay/xpUh6pynZizgayOODwcyJaTIiMnkVz1cGNMWLEiRNFYUwmk36/jz86nQ7DiXLRhgW5kcuiNmwmW/kB5BFGMhgMMNeT4sEuo9Ho4PAAlBPxQzovDn59RlSaqMaf4/HYWgu1RrVaBUm0ubGZJMnR0VEcx/V6/byZc+caFZ4lzvWpr4D0AlalLk1ehH9Rw+vB22+bN7uHgrwJcJahbSCbu3fvvv/++yzhO78Lf7aCL/4KmCgiWPogDk4Wk3qA1DePBRU6m80i33VWh0XgNYwSvALOoieCZhMLhQKkAjgF1lvgZXEi8YmNiP5jlYO3K4oiFru2vlqC8VmNgJJazGqtXQhn6X2iKGKelngqFCflu+R8qVcoeBLfAMb6Dme4Rsq29Ce4LvgF/DRwHNDf0N+d9KvxJwOcRWVvEsNA3kFmECxYsJOMvu6rDmfFdwWTbPoyXR/hrMnmKBN2iBfdYfoj0VitVgFnrc8S5tSQ+HI6jLOB/bG+uA0RofhCXQxvmrkCsS/+qT6cTqaz6WwymfR6PUx5mt2gnesu6aVLbhkzf7tExUJxvWz6gMApKKTxeNwf9EWkWChGqtPnuQZ23qvgmDUTh7NDcjAcDuv1+tbW1vPnz7d3tuNxjGGTPnupXeDe4iHhTYMAhmXynXMudbPp7OjoaHd3F62D33C7ZjiLt5orTsRKGo0GfuY0W79J/2B4QPHeWt92FVpYHBDspk7/cj4JFFBPRMC8ApkBE1tf5YDwmgwoiycAB+MgfIt0TIHaA654+L5puRLdmV6U41wkZXHJcA0z3ygv5wqd4pgxyCRJ4IwQZMFNwO54qwnZubrljaUkl+WprVfZk3XGjXWekwbkdT5XbN41aJfEHwtLjnq9vrm5GUXR4eEhyGCjMi5f9fEKFizY18Jms9nTp0/39/f7/b619lvf+tbNmzeve1AXMfp28BQkWcizanaW/plkBw7CeYddbODkUdaAqlnjy2MxLUREgGgjVV+STl7UXMbUCHC01Jt9aTmAK06cMAgpap66GEOhEbDJGjfQbBRvL7OidYIaJh3g+2KhaK1FVd2zR/NfxcxcnJmk2Gw2IwvOCb0QFSDnO0uVg4vdXvw6BCRANZzxcRv5aE2n0zRJXJoaqzo1vHl2zXCWDx//iYpUUK8SwOUM6KpWqwHOAgCxSzJIU2AsNHHGY81gjVWNFfAYDQaDwWBARyD+ra5UKgC74kvGEs5yAeqUfB7bcE1sfGEsPs3U7COUA45Wd7LV90FEULoLLx4bemkVLFft9EpwcAgqac8IkFqr1UAk63q0ol4J5xz0CUjwIognA40sLvxquPzpdApkjxfjFDjrVL4atNG1Wu3mzZvOuXa7TWIAvxobWAcLFuwbbrPZbHt7+09/+tP29ra1tlqtfkXhrMnGx1PVAzIH3SQL4wjviDsZYWMOLtw+KT3CWRychAvCdEZJWjWiFQ98McehP4KGhgsvSndSNdk6XxqFnx0+UsmW+my5KNvCXdPVxO7Yl9M96mk6Xw2JkUY2iSj4kpfmclCaxpr6/qe+/CVkBqggMZ1OZ8lMRFBSgJnrZz/F2Q0/EKZs3GTGsZ1z+Mr5pED+ENZEby6YvXY4qx9BlNbH+qBer6+urgKQLdwRry77woEtd74kNX4bfE5xJ1O48KzjUcZbjQJY2onkzmW8HheL1NTr64nejC/LqhfWfOuo6NWH1UtPUVAP0FA7Gn5uvfjVebV+HMdxHBtFsuK8LKFCuQKUGE7VPbFen85FIfwgfB/WsulcgwOQ38D0iEPRHTCFLvcT5367crm8urq6tra2vLzc7XbFLxW4vV5tBwsWLJhzbjQaIeI5m83+53/+p9PpbG1tbWxsXFmpzlc3LuY1jwDIhRB5wRdt1c6c++o5xfnCjnC/iEwCejJ0pqvN0MQzc/C6Jmui+FpEn0EbxXGcqPqJmJM4oYhnZ8VPzZVKBSjNqfQ1DuAsxlgfz6svR+bgrEal4Gtwn3WhSQZdgWiJZS8PzmrL/ZriBZOp72RG1M4A5lnEBheDs0alCfEO6PUAbl2G/w7a2dNN/8DVarXVagF+LS0tbWxssN/xwh3xQhqfgwW4Zn3rEQiGWCHL+EpVIoI3E+tOvDD1el1EsEROfMEsEQHZbnzFAFCGfMEo0DFexjpTPXWJR50qO5DDry4rexWVYaYrY3Oxy+wBoMlqtUoBq82W6wI/jffB+FhVqoxwFogf+B7rsDiOcdW8dTw4FrUodouEA6PIBuixcrlc2k3g71KptLKysr6+vry8fHR0BL+j33PtXHivXs8DFyxYsK+gOefiOB4Oh/CWf/jDHx4/fvzTn/6Unajkja+LaXxnL7IwABNQTzJGpwlIUZUiRcFBuvHZbIajYcpjhx2n9G/8VsNZeHJMTDx4pKo6YrpE2a9qtYoGkLwWa2zBi9ZSp8rB2hcFalD9Bm3YE9/xITpnoS4StJwceSHkj8ieWFUIDPFx/IHpPlWJdFDiMVPtKuGs/psDxpz7Yilio0JUKH6JZi8LzhIGiHrkaAAMbNj5Jeh/s/HsNcNZIk5r7cbGxjvvvHPjxo1ms4kFd3RCWh9u9NHREXIAAUnJO7Ljn16T4VBkajXV6nzVAvHtuzSLSc9ClRLGYK0tl8taeC4iWIxynIyewwWnSuQk2ZU6sCCAoL5qomqGhzj+JEn6/T4U3PjcqIAUQvm4RiBaymLSrKJX3yjnU0cZXBD/tjuv04IoGYmrxJoAsiIC0O+y5RpyBn8HXQdDP1aJt1Jf1pfjOfeDFSxYsK+dwY/V6/V33nmnWq0eHh7+5je/2draunXr1ubmJliJN9yIGkkWMCvLKbEBt6dLJ6pIfTNzemzcFjhVPQs4VckrRw1iDWBUkplkJwXiYKjOcjDUiUtd+gLIvsw9mws13wKqxt+8V6fvwhulKRiiWNyl1KtFSc1y33MN7wLG6cypJD+uamCazdHk9xkPfi7LPWn6UPqxEfVgvNlo9lrhrPEp/KAGV1dX7927h3YmqLRq58ry8Z/T6fT4+BjNP/Tz6lTlLD4ria9UAB0tMCVJVr7MrFrAJ4N4zimVkvP5idC1oNEX2c1UZVlxS6Bn56suQBPMtWbqG+6xq5lRZVyd1+YSkWNtjTU9jqlfCZwIuqXhcDiZTIyvruBUzwVRJWklm3xKL6Cf9dQX9hIR/ED6ZeOypFAocH0yT6xyzcBC1lG2ABlPhFud+Po1r/fBCxYs2FfUisXi8vLyw4cPq9XqL3/5y93d3W63i9r4TKW47jGeaOTk6OHh9hEYpA/PcSIEE5FqFUbGgUCNWlXu6FStrpyfB/MqXlqWZlt2EREWsr3BMhNTeiKQ1fOInAybXnqvaJxV5WSQlzsjpg9jTJIm09k0damxL2SgnGK4tEiuqg+lU/waQYK8WmDhYvOjvr1O1XZwqpdb5ud7g18r2rXBWasK3eGTo6Ojzz///P79+xDRLi0tAYGd8kuj7Uev1yNLymUZHlmIwSkBYQoUFbR80/Q7T5wHgKubb5G7RVIUwCWC+3pH4FTKUskfk8q11kLr/aLH9GzmnENFQII5UT4LeNFmCwhw8BrOUlKc+JqCuM9ci3NL3gqsv/FhFEWNRkM8jGblLDpNRPeQaUehD0NgSZIMh8Ner4e8Ov648z8iJAerq6udTgfQFsQDVw4uWzM8WLBgwWCgP370ox/t7u4eHBx8/PHHg8Fga2vr/v37S0tLVzaMk+am+c+NL89UqVTq9To0dXChyHPARIaNGTT/khXLxsRzXpEoWXz+hv6WG2vAR/kcGz2KT/8XNRsyo8t6uercpeLQi+8Pz3gxRKvPqHfXV5TbmNT1C+SQPefCW3EFpn81DTk4Bs0TvznGNYyIiDgRJ282PXsNcJYLTeurxuKH7Pf7BwcH0+kUtbpardb8vvpxROC71+sNBoPEF5sw2SgDIwvYiwF0ArvIN2vIwVnns8rEq0uNV8Gmqm4fXnh2xE1U9SusDkVJ2rEBC+UytZDEZ61Wc74jLnTDwN+8isjXHUt8I1x9Z5zqlEbgTpwKKpRqGPFyb7gw5+MLkOSSNU+zdcSKxWKtVkuzdb4iVVxwNpsNBoNOp4NsgFSJdHNWLpfX1ta63S4KIwDOJqpR2VW6m2DBgn1VDF5reXl5eXl5Y2PjV7/61RdffHF8fNzv95vNJvpEXg04OAWinUR2Qo3KEVqfCTQYDPr9PuYFp2pEGp+gY3wBck1hOJXyRThLAliyAW5tgLNQiCWqJDnKeBEXYjbR2ckvDE0UFsFYfviKkJEj1zdBFkLq7Pb6pExfcs651KUunSeqLwy1z248PsGrRh3ic8IkO+td9qgWjlBUQIDhcYefGuN6gwHt9bCzRjUXQD0ma+277777k5/85M6dOycJZfTzh3LN/X6fjCyIQ3Cx4l0eJKSUFkTZxgTaLxAgUsBKBpeQTrLvFfClzerTjZeoO78IxsG5/HKqsBcAHAha8aVhcRBCc9DD8/lVQJxEk6LafbGew/xJueYWpQzW7zOfYIiD2SoCfrZUKiH/jE0isKjQT//+/j72bTabJ72QzrlGo/HOO+9Mp9P9/X09EmyAkofoefFKj1qwYMG+vtZqtb7//e9vbGzs7OwcHBz89re/vXfv3ne+852VlZXrHlre4KuhCoh8mR3QDdPpFCwAHD64jFyihcxF7cnv6s9fCh81huMMyCmP5dIJlIuqJxFH8qIr2Bksy/Cdz3JT3inH19tnMLQBpPXYMUmhiJvnsC7PeJ/1DTQqNP0qt+jV7aQH5rrG8yp2bWID9EFwXupqrX3w4MGPf/zjWq2WqD5+Jy0x0Sh1MBikvner8dKiOI4ZB2c6J3AzQBI7qVjVpjX1uf9Alkw+JY6cXzPxINZndFnVNM+pqgUgIBmRN54DNr5WKw5OylNUzAi3iGX/tA/SHC2JUqf6UEeqD7BmprF214W7eRzsjg8ZewJ4Za8KLQ6mNIL5DQcHB+Px+ObNmygMmcOpNDRBabfbzFQDdHaeYwZXHeBssGDBTrJ6vQ7wOh6PP/vss7/85S/9fn9tbQ0h8sin6l/GqfXclPt83unRP4MUgKMGWDS+rmKv1yMtAhdNckEfWROQ8wqEMxKiVpVxxS44FNSlkq0RHqnW5dj3Rfg5S4WKvIhI54CaXOgn0Ad/KZadv+QX4zcW/8uVxdVc72WjST4J/PlyTLNR1YFyG8+PauHz9loGqRGO9cUxzvIsvTl2DXDW+Sh/tVrVZUoR14hUlaucaahH+bymUbEXFO42q81lSSkSrqJeGKIxPtypr3iQqpoJRMzM/SL4A/bSDwSfXbrU+ceFkFczxJpApRSB6W5F358WIlcNUrVTs6qUib4DRMAc3ng8jqKIDSOQYYZPrJfqkk4Q9QZiSDgOqPEkSQaDAVQfR0dH7XYbCtqTfkqQuK1Wa2Nj4+7duyLy9OlTINrJZDIYDEInhWDBgr3Ums3m+++/v7y8vL29PR6Pf/3rX7/11lsPHz5cWVl50ySJVtWdhSJLROB7+/0+nLZmcCVbqyt3KLAAJwHr8xqnSA2XMTnmoLnmlr78UL6MRHN37vXVAkbBvop2Peysy3ajxidQArCa7MJ32PoyJUmSoJ8W3jfykSLCNmN42UiUWlVtim8sjMJNnlTvK9lVJtEkD4gFN1jY+aV5TvAq2WIcWKCDKKUeQBO9QI25ogeUvYpPTdXOxSlelmBXvDbA+f66xhcg445pmo7H4263ywYqzvfOJcrnMKh7jnz1vrG36XR6eHh4dHSEPLPcj8jBEM5ubm75OqqEAAAgAElEQVQOh8M4jiGexqhGo1GqKpgECxbsG2v0bwtZq1qt9uDBg6WlpUKh8Omnn3766afD4XB9fd1aCymtrmx9ZUPVAM4pHo5Z7ZDS4itkHcDjNZtN5hxry5GRGhnrmyMLeVNl83yk0bVFfUUg5xNINJz9kotR1QC+5BSzJGhuwMGCXapdm9hgPB53Oh0dSgZuW1paWllZqVQqblGUgfgSGfQokiUeLDL6LyovHmShKDAnKrAOmanWmIovywcoliQJ22uR3NXhGHC0qHLA4yOoRIeCHemh2JUEq3NULWC6GK4F8X2iaiBaloZG3dnhcIiTopkCpBT6dum7wYIsesVsfTuZ4XAIwhuFz6CRwAG5LwaGIhLsmojfAoUOCMfH4/He3h7KaC9M6ROveahUKktLS+vr69Pp9ODgQBMSWnMSLFiwb7jRnZ4ETGu12r1792q12urqaq/X+93vfre+vn7//v3Nzc3V1dWzVKS/Aot8Nx8EtSCTpWs1xqDgAONXp6Bwzc5qvHt24K4RJ4lYBgM5yPnFgDXGFgpfxgZ9xpXGr7kfKzjzYJdt1wZnJ5OJ88JZ8bTfbDYrl8ss0SVZ9TSB7Gw2i+O43+8DhDETM5krlYpIPb0DV5z6HUtUGzAYnYKO45Ax1VeBw0LbyuGlaUrpLYlSYmsgYzazIWJGYJ1XDaKXBDYvBOdFZJ9SDQzA+rJcRlWzI6tKxbDxPT+IvHGoiTficoBdloYwPvELyWE5YS5/CGNMkiSHh4eVSuXu3busXJH7HTU7u7a2hpVMTtIgWZFGsGDBvsl2OpxF6dlGo7G0tPTJJ5/88Y9/7HQ6cFnW2kajgdYtlzewl5pRGQ7GF4vFfNTv91EqBzMjudLc8bU/pBg3dwo5QUGbA7u5QCKpWcxT8NvGC8lysgGc9wXD4vJHI5fE3yv48GBXYNdW2QCYSUeTE98wFuUI+FrmXr/JZHJ4ePjs2bNut4s2ASwCkHNV+IScKF+21DeJtb5/LDKcCIjBtgKxiQi7zhovD0DKP1QNuiotwShPwQvBwXPJWDw72GhiVmZfagfB++N8MS/x9cKAC621PCnvGJC0UWpdzRNzM0i1QPqSMgfOxhXhFuHsWEug+aHLSjKgncBoR6MRmg9DQ6J/Gv4i5XJ5eXkZKxN6dv52vJlBdRAsWLCzGApaf/vb315bW9vb23vy5An6R7711lv379/XjQauy8i8Ao9CDgEEyfICsHkCRR8k8pbD92fH1hrOaooH8Tc4bRYIIimTpmlULtdqNQrD0iTTVEyU337TtMvBvsZ2DXAWrzFD9jC+4Xx59CtKmAgqdH9///nz56BmNZUYZZviWl/YjwfhqXVlqEgZk7EoKrCqXICIYGB0NERaVqV2UTMgi8q54RoZIULAqFwup75VCQ/Ie8LdeUYeHNwDSgNyA35lVb6k9XUVRJW7483HqLCLxuUgNownFTBItJDgsHOIllVdkNzQ7Xahacs9BrgzpVKp1Wq1Wq12uw1xAojnhVx4sGDBvslGtHSKgU1sNBq3b98uFovb29uHh4cs5r28vFyv118vxsq5KbfIRDlwpl7gWiqVSq1Wi+MYThWzQ67sgD6yvhWaNyVHoMcgc2S2mWNnrWrZIL5RPOY7ErGYlHkJhShq1BvxOJ5NZ5gUrMmH4DjL6DnlpT9fsGAXtuuBs4hT6JT8QqFQr9fha8ACzj/3+GQymezv7x8eHooI+DzkHokIe8xaVS5AI0LSqzy+zRbsIJdJ+EUHBNyMHrlYTIMKzdXki1QlWsihiJUxWnQiQNtAnourc6M64hJqE3bTwYlfFegcWLg21GoFCWG8+moeHfL2Wl+qFityEWk0GiwrxmsBKcsCC6iEAEWE9Y1tmDRgfAmIg4ODer1Oidi8FYvFZrOJbWq12vr6OkqwadQeQG2wYMEuYDdv3vy7v/u7zz///JNPPvn444+Pjo7efffdhw8fXgtHy/gb8hywbp9OpyhKiDo/iNTlErzoAMmekF+AIDi9aPFUPc/iREzS0GnNmKEQu8NmUaFQq9eNtXEcT2fTF0fIVqINUbVgV2zXAGcBXEajEZWggHrNZnN1dbVareZI1pzNZrNOp9PtdmezmfVZohq2shYVWUO9HtWoLhcWMSoiz8O6rLgW7zMgIDE0iU/GVghnqRwlqEXUHhH52WyG3eEvEtV7jLoLrtStKpfNS4PMQLxHK5VKEL+KJ2ipxJC5YJBTyafEqaVSKdfSEMNLfLtguDmKg3ntXA/Q0jTt9/vHx8coQDtvcJTVahWXUKvV7ty5Mx6P+/1+riZusGDBgsHO7haWlpaWlpaMMYeHh8fHx5999lmxWFxaWlpbW2u1WlcfB0e8K47jyHfwgjstl8uVSqVaraLWAbiA1JdC17uLqgtEokEv+HNUrp77coPJTQc4UarSjo0XxYG10fNyoVCoVaviXL9QjFRXyBz+zo0tWLBLtWuAs/V6/caNGwcHB8PhUEQAoer1+urq6vr6+kk0Hg3izsFgAF2m+Nfb+XKwfC1Zm5bvGEoKjEYj9jUgsyueW51f6ZJxJMcJjEh5E8Jbk8kENRA0DqNACocCD8oGtiSScRD4JhFBrpuIoOC29TW5NNOMGrFgZ1Eey/qKWvgQy32UlSVM1+v+1Geq4ZIpkEJyK2Ax6/WKqjUb+ZY2ka/Cq0ttc7Qn+TI9G5G0nkwm9Xr93XffjeN4Z2cHiXFRFJVKJUa+ggULFuy8duPGjZ/85CdffPHFJ598sru7e3Bw8OGHH/7oRz+6YjgLpDgejweDAehhuNk0TeEGa7Wa8W3JdQYtTIfvNXGQg61nMaMK9YvPhwY9RP0eoDbGJiIUyOEI1tpiqVSczYqlUiEuRDZyzjlf/fL13K9gwc5p1wBnUbug1+vxE8DZRqPRbDbnRZaSpVFns9lwOBwOh+PxmGJTkxUMOVXcymXztBjC5mGplJ2P7/APagCMT2ITlVjKTDKeSO8Ip5M7srWWXkM86QtQCCUGkCIhJsUDrP+FhT4TvyiHsKodWu7mGKXEYjQ/B7spb2Dqm1MSKC4bXLYPcORLz9psZZlcxYOFvyx43MFggLgbHwBcLG7s64KzUDI8e/bss88+63Q6r+WYwb7qZnwNEyqgFm5zrgOedwCXt/3ZN35zrnF+4+FwyJbm88lPpxvU+VEUoYDg06dPl5aWVldXV1dX8fnCSedcdhYMB0cKdhbeFf/EI4f+4fCr8LE682F+ThHFszglS51nRl1WtKr/4O6M47E8Iv28U6XQv9xXjDHGGhOpWJxk57hgwa7YrgHOmmw5PYRaWq1WtVpluf6F5nxB1l6vNxgMEt8xK51Ln4SbYK4ol5VgNK21kH46X4uKiDD1XW2daligyUtRqgONQXPvsFGGAYCLNUoCi4vFGVFAt1qtlkol9ImJfBdEnRZgvCaVsNV4oQX/Fo+VUcUQZ7HZxLJUZcJZ31ORtw5/QMFMZS1BeRRFSAXTwJ10NQEuZggWsj3lN03TdDQatdttJG3s7e0BvBpfJwG0gbyO0FW/3//0008LhcLx8XG9Xn+VQwX72lixWGy1WsaYbreLsADpq4Xb68/nUcLpm73029O35Cdn3OzCpz59SGc8+ElbvvTGzu8ynU53dnawgEfzyIVHOMXW1ta+973vra2tPXnypNvt/uIXv/jggw/+5m/+pl6vvzqcPYsRNcJ5Rr4II6YSyK4Q4n+RXOWN90FnFGjtmc0mh1xsVJzXnJeNMdrJNuxqr3Q2m6YuzZHEHAYnl6tXdAT7xto1wFnAIw1xWq3WrVu3ms3mSU4K78l0Ou31ekdHR71eD/iPbxpXtKROxSMzDeaw+tTrXY2tiVxzy1w9BvGaVOPVS1pmSgTMLeEoU5X0pgGl9RUeWJ/BqLYxPOZCNoJhet3RQKdPOdV6jWoBXotTObCQBziv1khU/4LUFy6wvvQBLh9YmVfE0JjJlhjMHe2k+8n1Perv6u1zXnL+dzmXkdpHNsaFjxPsa2aYztmpBHYWOHvKBmff/SyfLPz2jJtdYDCnHHn+sLmV/CmHPf2TU06RpmmpVFpfX79x48b6+jrW/Oeyer0O5FooFD7//HOsnKvV6sbGxsbGBqSr5z0m7OweyfmwvohA98UpA2kS805Yz0c5dtaqsoZnHEnuxnIq5HScqC7o4lkbnT3CXabTaZq8mAfZkl0/mQz0nesWBQt2YbsGOBvHcbvdZnFTY8zm5uZ77723urr60h13dna++OKLXq8HspNKWfGMrNYSiAjhJv9JZZJk4zIaoQpq6an0MqfqQqe+0grKYxkVCbKqQyDY1nK5DCEsO2yJTwjAtefYU+c76KISLa4InATORWeHQDyJ0pzkQPPcBMfOywxIadNDaSEBBMcYBovIEvLyCDhduVxGIpdTiXckFTQ1vtCg9202m5ubm71eL03TTqcD8a5zDlQZbgLd+qtYqVRaWlr69re//bOf/Wx9ff0Vjxbs62HGCxZ1Z76FW85/fvpS7WK7X+xEr/3gV3mis1wdRE0bGxsrKyu1Wu30AZ9krVYLxQFv37795MmTX/3qV2+//fY777xz586dC8PZcxncqfHVHnXKAeQQiSoKTkfKT+YZUPEkwsUgI2c05wOS4vMiMMmKny5p4GKnkxffRqoFJuF1jlrOzcvBgl2GXQOcRTlSZHGJiDFmZWVla2ur2Wy6E5LZ8SagRNfz5891a1y+P2m2ACqMnKX19apAMabZniU8lA6pEwdzbZqDs5QZ6GWu8flk87QrPuf2SAIgscoj0KGIqkGbi7abuRoCophU5xzUt0aljlFZqw9isrorpNmhd66IEBPj+CS2UZsCf7OzrqYZOHiuN04hh4DUG43GysrKbDbb29vLZc6dJGe8gGGdsLq6ev/+/Rs3bryuwwb72lgONMjLEJheEp+y2UnbnPTtGbc849heeqiXbnmxqzh9SGc8qQZwkIVcGMuKCJbfQLTj8fj58+edTufjjz+Gn4HK9oyHOv3WzW9JL8pVE9K/nHPD4RDlbgAiQVIwH8Mo2Rs9Kj8/iap3J6QrcA7iPKiPKao4o8l2CNNBwtksGcWx9TXUoyiaJTMnDrW6NEFzxpsZLNir2zXAWUhF2eBKRBqNxsbGxilOCm/FbDZrt9vtdhtoEot1cqgwwkfShJJVAhgvANBNX0XF9FOf74+/GWphDzC9VHWeuSwWi1DrWmshgUIlV9ColMliAICA6ChLh8WyBtoLWJ9tBmAnIhi8VQUWKpUKPCCunVgZ1Cl8ovNELwps4fiRb/SCT/C79Pt9ZOlVKhXcTwxAu6dGo8HRVioVXAv45iRJcArcDWPM6dpZXmahUMBhl5eXNZzl+kSD72DBLtWMyQe75+0Cj+LZd7nUg19gr0s9+Nn3Io/+ioZ8iffff//u3bt/+tOf/vd//7fT6Tx79uzhw4dnh7OiMg04vFM2xmSBUBvcNdo6JEkCKT/kds459GJEhjGTJVLVM3Je5yZKhOC8PEwW3UxWp0mzRmIIp2ayGiYpTCVkNybTyXA4rNVqtWo1SZLhaIj5aJ6XXTiGYMEuw64HzgLiEJ3Mq0UX7ghtJYphGV80Cl/lqFYdiNFErGT1RqkSuVpfMAuwj0fmypW4GdFzIDxYFDG/M8+hGp+eT8hIqG18dpq1FrUGdXIA29XisM63NMv5CIJ4503fEJwOA9ZuS98f8SQofCUwMSA4gKlel7P0AdEtJF/MJODZ8etYa1EsbDKZsEYYfyNRDAc2BkWhj7Pw72DBLsnOzicF5umra3BiKG7QbrcPDw+n0+mTJ0+gN9jY2DgXqJVTo0/0tPDJcIxQaVtrK5VKHMfIUYaTrFar+Ce74USqHSOTQ3IOX5v+MMfg5rbXpK9VZXmMClTidJSNYYM0+TJrxVgl7XWZg+dGcq5bGizYee16UsGm06l+0FE5HzlACx96BmtIqTrn4jjGSpekrKgoPCr/Yy1Lhi9SFVhBiHKxK16bj70wGJYycL4qFkAeOUtiPvG5WeBcE1/Kqlwu620wfh2+wQDQJ6xcLoOIxf1BRwPsJSIIRWEDpl5pp0Pg63xJBAStUDKCN1+yFbW47sdXaEtTLBaRNqFRL6E5knNx+Rht4rtLYJFAZBxF0WQyQfZVrVY7qXJFkiRAvc5nQuTcLod68ccuWLBgwebs7bffXl9f/+Mf//h///d/f/7zn7e3t3/yk5988MEHl3dGEA0M9MG5DQYDtAdrNptIDonjGO6UswAMu2A+krl6WzzLKQibswZxdqoyQwhDOU0YX5AncxwRwfapEydGjDU2d8DLuHvBgp1k1wBnXTb3X4Oqk5ab3AsgSXOfet2piU+gK2Yy6W3ESwus7xDGXfQ/gRq1s3BexS9Z6YLLdg7jm4zmrvrD1LcZIwSEeyL+BrY2KpuKJzK+EpaI5Fhe4OzcPTRKcaU9FI+vE2kphADw1ZGs1At8tRjXZZuPU8PgvKoBdO9oNIqi6PDwcG1tDfB34e9L3A9E++rPWLBgwYKdxZrNZqPR6Ha7cRwfHx+32+1PPvnEOddsNs94BD0NyRkkB5wCCE+ttQCvpDAwQcRxDBGt+BCWiOjSkLlzaW6Vnyz8VrvxkwhaeOxItW23Ont4/hP7JZzVx9EjCRxtsMuzK4WzJ71m1rezSucqyNKIn+gCUH2QWE2vCPFyomFgmqa6MxYQGNWZTtWrQs0/5wtXGa8NAFajD+IuPHsOZ9MKhUKlUuGY6blSXxYXmld6CugoUH1W55nBneHmABECBzPcgxOBrtZ3jD4LGxufdwVQTqzPwZN+Tuc6F4C6ptfjNtDO8ibgioBlQTCMx+M7d+4gfneSL0NmBupnnfTrn/RQBQsWLNgr2r1799bW1j766KPHjx8/evTo0aNHP/rRj5aWli7jXJxKEJKCq59Op4PBoNlsohgOtAfOuV6vhwko8v106vU6EWSUrYTlfP0HTdbmoLYmaCSbn5CDoZgLtMCMnIWxJooybXdycDZE0oJdvV0pnCUjyGcdbw5wJwIoVrWE1aYJS/3K8cUWL29l7YLUy9j5ehufvw9lam6RypJ7GnPjPYfgSS98c5BXFFh3SufK9TQ8F3AqgCAwHyUH8F/Wl2gQtXQG0OQBefcAstlc2/oyYUT2kerCQETI+4ZL1hlpcF64KC2ZoPpWw0pmkkEJnfgywMPhMI7j1LdJLBaLR0dHh4eHN2/ePOnBQK2uXq/X7/cv/ngFCxYs2PnNGAO519bWlojs7e0dHR3t7Oxsb28fHR293nNpyIi+6FBhAeMOh8M0TQeDwXA4RMI05ym0DQMpQBApc0rZXDhR5ghR4k5MLnTdmAI4fYhvbIuza3bW+chnuVyu1qovEHkhipIvIa++Xgl8RLArsauGs0iZzEl8EJQXEdCo87mrXPzpN4qpYES6YGTZFnU6nY5GI6NKFgDbjUaj8Xisl55gKykAZQQf/CsZxyiK6vW6tRb5+yhQNR6PiSaZ7YRhiMhoNEL1WdQmQ6oTMChKDGIYIFYpfiW25o1CtzDn3Hg8pq8RL0TmnYlUOwnrM6usL1KW+pw23BBc1HA4pCwYqlkRYS+D2WxWKBTq9TqArygNQ6VSASXc6XRQ2QCD7/V6w+GQEggR6XQ6h4eHFBLMc7QoB9vtdg8PD0+i54MFCxbs8sxae+vWreXl5dXV1e3t7cePH//1r3/d3d197fFxYrvJZDIYDJAHLCIAsoPBAHlg/X4/jmNyKLVabXl5Geo1EqK5A8oJvXJyl6lJHDYh5ydOCWc5fej5N03TyNpioVitVpuN5jgeF4qFwqyQzBKdJTx/vcGCXapdKZx1SqnDT0SkVCrVajV0JVhIzRLhpSrfC1gz8Q0RNIWpz6VloE5J3WFaicta0LqsgfNJY2QuCV6tzwCjU9C+gOta4D9cI6AwDg7wp9fZtNzIrar8AOQNwQDTApySVZEk5spefCezVFVsIF8LnwX8nWNhMTZ8Lr4UrhYqwOey4TAUIyR0UY+s0WiwsAN/Tfo73HBrbaVSqdVq9XodPP2rP2zBggULdnYzxqDPoogMh0Mgy9ls9lpKg9E4DYGJGI/HrD8jIqAYUNkAlqg2XfV6Pc1WouUxJUvN8vOFyBLcDfRgrGajw3ei2nrZuXI9pGvL5XKz2UTR3NlslswSO6eyDVg22JXZVcNZvRakQQ9Ur9dRnH/hjtSnMuiP3Cm2jIJHoL6Ti1p9QO6u1UUsiQWHEscxexDoPC1wsTBsjzMWCgW0Hkh9lWzuAjIYvgPEJzwUaxRwhFrOK2qVjCMQ8lJCUC6XcSjjuzMkvtMMQDmKv1jVUJf3jV4GrgfXRR7XqVIykc/QwpZw69PpFPkKKJoGOEvgjuwBaHkhq200Gq1Wi43R5wlajARwv9lsot7tqz9swYIFC3ZeS9P0+Ph4b29vMpkgPePyToT5C1lfoHJYsQv/peILHpLRSMwFOA5Z2HMNFadmcXSNZU+BswrRmiiKKpVKq9Xq9/vlcnk6nc6mMx1BzZHHgaQIdtl2pXAWLwBfUX7O9+QkHKOj/1YlJJHXZDRE/MuDrwChRESDORxB7+hU3WkOSVRgnSIEyXLMOWTMU1N1RAJYOwWcFItj7ELlAB0BAaVTZROwoDeq/RgMLomX5nytWRxH65k0nMVhQUhgeByP8YV1xbcT07gZCV7wts45onO2bTTGgG5HJXDrs9+gapj3a9DOHh4eUnf7ag9asGDBgp3P0jTd3t7e2dnZ29sTkbt3725sbOzu7rbb7dd+rkT1BkOiAogDti7XPpCErihYqRlZyfa55aSG3edZUvBKOQJ43sj1Op9MnKqGZKmvR1sqlaqVajJLXJop7q6HkSOJgwW7DLsKOMvXCc1RRYQdbmHAOqRUFx6E8WsWXiX3qU3zlNbnTiGaQwScw7JAliRi+V/ne1gTzmrV0XwdA3occpmAvICtJHT5YmMJjsFo58VhU0dLhIqjGU8bE0c639UW63vcHKyYCWep0wDq5S5gIOBSUc0At65UKjnVzhvKWtyoOI7RZ9j4UgnAsvy5oygCnMV9cM6Rb0Bt3dyPC7o3iqLj4+Ner7cQzmoHHSxYsGCv15IkefTo0e9+9zvE0N99991qtfrf//3flwFnOeWJCHI8GM4SEaQZ5PCoNh33FwVVSZecHuCizgE+n0D5pO2dc2SRweA4RXNgWic0Zy3LYMGu2K4CzvI9KZVKzWYzSRK0UaUxj15vvPCVALbTNGTki6HyTaYElkjReYkqwZnxelMiVD1azZLmsKbxsl1AyTRNscAFaQpOVLyg1qjWtczHooSAwSMslJn7RXrSOQdqk2ID3hOMkN16RYQdChByckrXQYlt5NvV4iZAGKAvn8JiS3mUD2CREsaJANY1yucKoeQNZAMrOcB7npTnJyJJkgwGA2Q/nO3JChYsWLBXMsTcd3Z2dnd3Dw8PV1dXb926dePGjc3NzTiO59fer27wyagnY3x3ccSyGM46fXdRYgDJ9kFYyN3qT7DleDxG8QRAZ00M8Sw8ZpqmGvhaa12aQmLX6/Wcc41GAzkY6JgjPhyaG7MEyUGwy7QrFRugvCiIPW0oUArUdYrpwL0xBm8X3A1ZWLzkZGTFLyJZQABORK99YYyM6Dcf6DNH5ZIkRpQfcBYZA+hqjR01f0ynw4QtkJ2pr6Sb+p5eQNi4EFwUglBaVuF8ccFisYiIv/UV0MR3+ka9At6ZNE0xZoBR3By24da3ApoqXiOVrOzKiA9x/9nbljfNWlur1VCnwloLLjZJkvF4DNeJ+gwLnRrcOosqzP/6pz8ewYIFC3ZeQ8HXP//5z//5n/957969+/fvf+c737l3795oNPrss89e++ngKjWcxUQGb6xbSOpdTDbZQFQMUPzMggl0IZzNHQ0OmXA2R1twRmC8MfFdG8G8gqwZxaNer9dut0ulUqPRQKmfNE1RPX0+Q+Yktx8s2Ouya2ijkHumEcgYDofERqdb6nuocuHIz/EJ8zSR0sR3ngRw6pvEwiMwRQnUr07MJLOLU4BSrVQq9XpdfGBFH4fORbObAIiiHA21p9oxUWMwHA6BJvHJbDar1WoAlwCLhMskWa0vXpv4NmaRaucLNCy+1kGkChlSucFEVxGhigvAGjecd0DD+hyWZfYb7jMuHPlkTCk4xQJgDRYs2JVZp9Npt9tPnz59+vRpkiQffvjh3bt379y5s76+jrTdSzqvy2Y2iw/KDQYDuG7UbQRfkPpi6gx52blKWDBNr7q5mgbaV6PqIsUGOb6GkU/Wo018DzOnapaP43G3293f319fX19fXy+Xy5VKZTQatdttxgYlK+qVwM4Gu0y76ia3C9/D8Xjc7/dzbagWGleWTNt3SiNvfH6V+K7Wk8kE9bEh93S+DwrIVHCNLC+FKD+rAM6XQYBPqdfrS0tLkExY1ZwWy1OSxIzCp9kOW9AnJKp9rg7rA84SQONKeZnlcrlarXJxjyIJYEB10pj40go4L/hauMjI18dlA0OQBFghoOsBJFwkuVHBAGJcnQ/Hq6Pbwq2mEBm/lLV2bW1tPt1VPxKpKnB2kr/T9PlLn5NgwYIFO93a7fann3760UcfPXr06Kc//elPf/rTlZWVpaUlc5kyfQJK3SrSGBPHMXy4tVbDWfE0QblcZp0ZjVwlG8q3voyXnMrOooMD44p6d1KzJFmxPVhk0i7T6bTT7Rhjms0mUmJmsxl0xqkvcM7D4mgBywa7VLtqOLvQcmKD+cBKzoyqtMq3i19xcQkCMk1TrHpLpRIacZH7xJaAXMYLTwG8Et/jiriN36a+Dxa1RFg3W9/HAaCWlVDgMsSXCygWizpDSzxuNl6/j5EwNQ2dDiS74KYMX3xpMC73cR+ozYUaQVT1bLLgwPfD4RCDQZyLI+x2u87rOlAxl+gf11WYax2O24WrI4+LU6CLRK4izPzPehLklbl03YvZZDLpdDqPHj361VJu9hwAACAASURBVK9+tby8/CqHCva1sSiKUJ0efZhy356yvnrpNgu/OssnF/j8tRzk7MO72FW84hUVCoX19fXl5WXwlAsPdRZ79uzZ3t7e3t7e7u7u6urqz3/+8/v376+urlarVdIKC3d0i/Sgp1OPmjGdP5pTOQzgMkCs5MCuy5ayMV5yBo/KdGENGefX//iE1CxSPrRPzqFkURXfsaWoMGaSJON43LM90ECR70BprBEnZCgChA12ZXbVYgM+4vrdRrL86RmRmsu0vqoUE+c1vcfAOiAaOq+gRH+SJGgqWKlUxId4iMyMah4IvKhRsvERfA1n4T4AZwHyyuVyvV4fjUZQr2KFTVFv5MvN4mL18ldEWGWWUX4KA8xcY0NgTYZ1jDGEs8ZnfYF5xX/RShHQ2fqaCdPpFGl5jUajWq1Wq1VcIPp4WWur1SpunfjaFLiliMSRneWYmQALzhgnQrcFFgw/aSLk7zv/u4svN/GKiBYw/dGjR8PhEM9AsGDlcnltbc1ae3R0NBqNct+ehMZyuOH0XU4/yNm/XXi6Uz4878FP3+u8I5/f/bzb5z6sVqvvv/8+YkevAmefP3/++9///vDwsN1u//znP//Hf/zHCx9qoempihPWSZElBMQwKYCXzXG3THcmnNVhMZcVquqbzCmGnxtf7ZFaWM6bJ0XGEmVOaWoxsxB8v4CzhRdkkPOGg1iVhRIs2CXZFcFZPMep7+yVe6v14m+hMUCTIzKdr1FA8Gd8ZQPxZRBYpSvx7azoDoDPqEPNqUWJvZzP6K9UKgB8VOUCQbIBGK6Fa19cLEhiXgg/oX+hjxBFwepvSTYDSRtfMIFf0cdB+QBtAMYJmpaddck3G09jQ0LAlrwvlt1owx1FvD+igkfOObSBge4KxwHtTcwNp8lPEClj5tlCv2Z888b5n17fn4s9gbBGo3H//v0PP/zwww8/bLVar3KoYF8bAztrrR2NRmeRPF2L6Sd/4aKOC90rG8Mp355kJwGal+47nU739vba7fbu7m6hUNja2rrYcnRnZ+eTTz559uzZaDS6d+/e3/7t377zzjunbM+ph+m5ua/kbATkwl/H+JqGjUYjUQUlOanhQ6RtDQYDZMrqIgbzx8/BU03ZYsfhcNjtdnE0FhqXLO3qspFAqnjFT3AudWnqjKRJkvT7/efPn9fr9Wq1Op1MrbHW2FS+1BtwLjvTLxQs2EXt0uEsn2PCrzRb90r8G5KofrMy9+Zr9MZ3lYCP0JNSAfEReQ3CwNcSzoqXJSHICBEtBAl6RyC2UqkEqtI5BwpHg1EoTfFPagzEOywKkjAMJp9pCMs3X9T7TzckIrguAE2UJ3S+ujWuArAVK28AWSBdfs7ivrx71hcfgCqD3EDqKycUVNtbrVHGAdHekDSJVTXFWD4MBwGWZWsGyfpfumDA34UP0muZpxuNxr179374wx/+7Gc/W1tbe/UDBvua2fxjNr+Omv9bv90X2/G8317SYU/69vUeVtsZTzoajY6OjnZ3d58+fRpF0bleXufZDefczs7Ob37zG+dcpVK5f//+3//939szpKimKnt44TXmBny6s+I0h/kIyRhxHGMa0uFHMgXGmGq1SgBKaKhvET0qKWHNlcBAdvR6PZRETFSLeD3DEs46D+XJQznnoF4zYpwItHz7+/uYXDDmHNfLGeeldyZYsFexqxMbGGNGo9Hz588Hg4F+pjUBefruRikNrLUodMWuAamvsQoslarKrM45YCnj8/FTXyGL7slayzWoU7Db+k6wjUYDhUi4aGZu2XQ67ff7ojKZMBKCM3oNaqGM1zPoAfBuUHdBthKnE9+4y/piCKSE6eOcFyHw4PAygOmSTRdIVTkIYkqOkOUIKL2gagJHAKeVmw80yR2psojpovpopxtUZUzvCxbs6m2eVcpRdPqrkyDOvJ0F8ZzyydkP+4onOvtm5z3RGY+Df0IwdlJA/HSDf9ve3v7444+Pj49XVlY2Nzfv3r27tbV1xqNp4ZnNdi445aSpMn0tZk7SiqkKnWvItrBoF5iRHDvDg2gsKx6bkg3Rac2QwLXb7W63qzs1YFIDSE19ry9OInoxQHxsxFhjxDnofY+OjvAt8zTIXGjAHbBssEu1S4ez+mVDKiWDKXobLv5OCkM73+yEIlcShJQZ6FqzSZKwEKyIsPIUYRm2oXcgAtPcME9ULpdrtRpLqABgIe5fKBRAkUa+5pd4B8GwO19mnAJOyvm4kskmgekAjb4/cGrkoXW1bUop8Df/YMEEKrGMD+gbr9+lJIPXS1eol9S6ZARgOrAmbxQHzG63YIjp1LT6ShY5OO2dYeg38yaHgIN9zewkfHMBFBXsNRqFXtoxvtTg3LCY/+KLL37729+2Wq179+595zvf+eCDD87SIoG+NJdHkdsmhybTOdPbax5UPPjj9AfmRXzBRCZ7OVU5Sw+M+JXFbXQEDAYPDyzb6XSQycAzJr7WON2+zod2ykjZihFjjBPnnBuNRsfHx2CagZJz9PB5WYxgwS5mV9oVbOFC3Dk3mUzm2yjkKBBaqlImmb/PD6kiNcawsDORK8X1HEzqtafWZ/0nvqer9ZUKmCPlfPoUEsjoxTAMBt/RKQDba0GwzXaOBRyEb0K8Hr5Al9EGF+tUdYVEVdXNgTwcFhVVWJSblWVNNt2K/wQsJp/Nm6+3EU82sLJs5BuM4TYSwuITMMHOlzYDva1539xjwBPlnhC0kXNe3bHwEQoWLFiwhQak9fTp052dnel0+t3vfndzc/POnTsbGxsv1RjQMJVAjpX6npSvOLBUSVSZosDpACzMeDzG/AWClnQMiQlRPhMcDURuxP2ca8DLos7uYDBAFjXCmyKiK4hrYkJUuovxodEXk5oTJ47TBMKkw+EQ+b5knQh/TyKqggV7jXZFYgNScVyo8f0B80cdzynGV4u7wwUYYwDsrG+UAncDjEUi1jmHMq7UAOiYeJRt3IVAz2w2g2S2XC4bLw/AMhfYDu8q4Bo0+yKCVTJVDeLRIVbhxhhQvJVKJYoiZFOhjRYGAzGrZpG5YhYVcgIEB2AVDzcxBlyj9XW16Iw0lqVz0ZUcbLaioc3qXBmHIqilM0VtBwxDV0ysVCoYA4aRE37J3KJF1xozxqB5OlQWmv84/wMYLFiwr4OdkZ2F80Tq2CeffPL48eO33nrrhz/84Z07dzY3N08S6J90RjgxCNs0LyAXou3pq4lo4SHxLVgPay1agrPaK/NoAWe1G2f0DBljiEw6Vd0WpRI7nU6n04FzttaWy2U9Heu/CUNTVf8RU5hnmp1zL8RgUSES86KnI5w/E1RsKGgQ7ArtquvOLsQiOYy7cAOGjSjJJ+ATEZR6hQ6drO1sNhsMBjpMQzWC9R2z6BFS33xF/HK8WCwCyLJILWAxuGTJFqmFE8FiutfrgfXk8EQEsFs8StOdt4CGjTHIM2MTr9QX/APkpSpAu7NSqaS7G/AqUt+sARQ1a+6arDZXRNDkkK4HPWxTX4RlplpCUCPBbShsABDnsoFfsSQhRhJFUaPRQM3teYvj+OjoqN/vpz7nrFgsNhoNVMA95fkJFixYMG3dbvfJkye7u7t7e3v1ev0f/uEfbt68ubm52Wg0LoyutA4VrvvCh0p8b3NE3sAOwM2CkTG+RE+j0WCyL+p5oVA65bbiW/P0er1Op9PtdtFik9MHOiYMh0N0tcUAcEDJ5qXhK2rPQPdCIoiJknSSExFx5Up5aWkJbXeccy51CF2K53RyRw4W7FLtGtooaCUNXhJwirO5AubagGW5sgRCIqeoi7kaLwBAjj9251JYPImb+BKt+mUDkGUAqF6v6wat9A4I1hDnpT6js1wuw3EAB2s2mtCZlCpbc7FBV6PR0JsBF6L54XwKKsdMqRP3BZyN49j65giI+FPGSs0uGGs6UHyOsBodrr6lerWQK/ICekD/iCC/KeoANt3a2jppvR7H8eHhYa/X4wboBs4yZ8GCBftm2rzfO8kQ63v+/Pnjx4+fPXvW7XZv3Ljx4x//eGVl5VUGQJ888/3VT9lS28JtABl17A6OmpVlsdl0Oq3VammaVioVay3gLGp1gRaxvotQHMedTufo6Oj4+BjKPee7eYF/AXWKAj6Ey0bFSPVQtZ4NsUSMUyv9rDH1en1zc7Neq1cqlW6v2263MZUDiAeNQbArtmvuCoY3+fj4+NNPP+12u/or7S8AzvBC6hQu+AtSieJxFZaVeOHBFPJbmVP385+AvNZXmyLLaH2FrMFg0Ov1EAMit8pBAhSi+27qmxfQMenFN7vIUnuq4zKUyYpXAkRRBN8HMI1PADcj378gSRJE/OFE4IPQRxvSiFTVGXDZUhKJr8wVRRFHDhYWJ0LAC5C0Wq3CW+EG6qvAALQcmZeM2oroveSyhWaIwvv9/pMnTw4ODrgsqVQqrVYLVclECVRe4xMYLFiwr5MdHR199NFHe3t7x8fHy8vL3//+9996662TIkJnN4b4QGpalbZvsuop+nDmGOTICB6NFAA8HvElPkRjdmtto9Fg6q0xBhAzTVNoZDFVxXE89Aamlkh35rvbYIRkbemljdLC6Vo6Ohio06aNMcVCsVQsrq2u3XvrHprcbu9sD4fDgRkQpjNGF/x2sKuxK4WzuUWt8TrObre7s7ODmLLJiinFt56C+gcvId4T8ZoBDUwBZ6GIR5zdeBmojn3k0Jj4l5xBfDodkotY4yKOE/nmXjKnK2WZFSgEjJe9ajq2UqlAOCsiXPhaVbGLAwBXivxWLHxJlM58F1wRYd0DOlmgf3gTgFQ4LOPFBmm2Mhqu1PpODfiQUgpddwIuVR+BowXEBzEApsH5XAfdcJznyj0Sw+Hw2bNn7XabcNaqSrSkk1/f8xgsWLCvnp3EekI8ure39+jRo06nU6lUbt68+YMf/OBVeFmNQTHv6BRYbqNHpd0+zXi1GI2xPibOciYaj8ej0QhNE+A86/U6glT6K0wH+BzYF0HOOI57vR4rzyS+R1fk+9BiRmD6b6Sa12hiRXt+zbYiDtlsNDY3N996661Wq1Wr1UbxaHd311qbutTJi9kzzaZtBO8d7FLtquFsonp6iXcQ6FOCknXa+I5Np9Pj4+PDw0OCNr4bker7Kl7uAx6RgQ/qVkl88i3VwgPq8Yn86JK4Pf/GWcrlcrVaBXiFjzDZll0iUqvVwGgyKYobWJ/ghbednxNMU0pBZI+1PrAyHBnXzfBooH61AoFMLYS2OmZkfS4dC3VxbYArRYoev0186VlZ1MSL901EcC7eN3LkuRicXrvTw3LyiOO43W5D75Vmi90ECxYsmLajo6M//OEPz549E5H79+8/ePDgzp07r87LwozqNylnyAAjqOV8p/0e3J1WtWLBDzqm2+32+/1+v58kSaVSQcMt58s19vv9Xq8XxzEUXwj0DQYDBAar1SrIXUw3ohor4BQYElnhme8ZRFAO+jmdy1RhRDSKokazcevmrdu3b9+6dQt6sGajyVo6hajA9A+tgpPA0Qa7TLsGsQGQVuorlYgImvghb1QjPO4ym83wDhNLyVy9aCJIyFjBaIL7xAEZ/k6y1fus7zFNplbHiTScJQdMiEY6mcGj1FfVdUrJiig8JQpc74rqx82LJdJ1zqEcIGs10ClwVc3qByLCpDHsS6UXeWK4Y/pZ4mnjVbPkbnEurA0IfCm60JEp8U0cRLkq43OBucTn9Zq5zAASwGxIxpswGAwODg4Gg8HrfgaDBQv2lbQcNZv6FgBxHO/u7n7++eej0ej27dsPHjz47ne/u7S09HpPrf95RmibY231fIHiVihHUK/X4Sen0+loNOp2u5jv6vW6MQbFH9M0HY1G0LwNBgPMcZVKBXnPiImxmA9ZYeMzmxEVFB++A5vLlF9No8AnwyHnksZg9Vrtxo0bN2/e3NjYgK63Wq2WiiWtMTNz1RIClg12qXY9cBb1R5hfj3cY8XGsNef3IplKhCReKUsyDyofBtZxqMlk0u/3oSIlY0q3wgxQvHjIHkVYHIW74TK0YTNmcWEkjPjMfJsD4ysYkLWl1ja3VDWqNTaCWcwGcL77AENUgN0QG6B2AQM6QL1JkgD/YQkOLIvtIdUoFAoYGH4CIH66MPg+3hMOGA4RfpAiXY4NV8Qfjt6QiJ9rg4WuH23VkPGmXV6n00GVmdf17AULFuzrZNPptN1uP3369NNPPx0MBmtra+vr66gsi+qHr8vIX1iVEEby5aTtU1/vRR9BVMF1YNnhcEjVmYjAt4/HYzpn5xxK5SAzmPqE4XCIb5GSkUOT4mkIeG+4fVFqNJwaZdSpkYWXhhBCRFgbB0oGXHupXN7Y3FxdW6vX65gXoigy1oiISzPMxUtp7GDBXpddD5wFCiS1SSERtAHYzGXFSUYZuU/x1CAVmfpFAoTC2h2p/YStPDidDmPZURQhUI532HidKP/rsuW9QBhjfUwAx0PBfRivtecynWcn0+mcg78gX6thulNZYsbLYanQt6pZGiAsIC+vFDcc1LWIoLStlkZRtkU9hl4/kGPGb0SAbn1Zb+szEniBVEQQywL9L/Ru4/G43W73+30uTmCgEF7HQxcsWLCvlSVJMhqNOp3O06dP9/b29vf3S6XS7du37927d/PmzdeoMSD1QCOzYLOVuTVU5ZbkUHRQThSJA9MJAxoKI/dXfKsd8jW6K2Tk04u/DPf7bF36XpZNwC5suNDv96FtADkCjkP8xBpFUbVardfrjUaDPTidc+VSeW11danVQrEFTIJGjDjR8ykDrYGXDXYFdg1wNvJFYXOfa/kBzakiplb1oMIaUbzEE68TlolAUaIEqXAETM/XRl28PqkmI/XGpDABkWe+yQI3ZqYa3Bbi8ijaZVXhAu3UqPQXv2gmYCVKBl5E0QB8C5huvDYgUVUOiLyxl/V1D+ajUalPp+O94sjJqurRWt+MMU3TOI7BYWOo+ArBLJ0Myxpkenng5orCjEajg4MDlPjmqKwqppu8rMVGsGDBvlEWx/EXX3zxxRdfIAPp4cOHd+7cWVpaeu2l/XK8LAkUo5KcFu4yz87mZrfEF9JinQGQAqzemHrtKVI14BUBLsVruiqVSq1Wq9frKCvJ4jbw8OhSicgY3DJOXSqV6vU6dgTXA0TLwYtIpVIp+nZoYGoZ7itXyo1ms1qtYvYkiZMkyWQ6Ya0GTV3PX36wYK/XrgHOViqV1dVVEdGaSCC5Xq9XLpfnF9ZASwzWa5qTHC2DLBShS7Z7KiGRy8peeUAujvU/Rb5cbvJtTHy3FftllxTJnYj7QvZgVW4ZR8ITAREiFUB8hQTj1a6Jb8oiHudhzc2WuXAfLCjIw1LAxIowAJT6WkQJm1LfFoFYNvJ9wLlx5Otji08LYDMIq4oV4AgaB+t6DjkbjUbPnz8/Pj7Wi5yF80SwYMG+4TabzVBd9fPPP3/69OlkMrlx48bbb7997969S3IacGhkQ52XGdi58iySbeqeC/3BGP6iW059DjHIF2QYz1QLm8jXxkHkkG23jDHYGBi3VCox7AY4C5UdDsLCOOIb24LNpbsmNsV8yuAkcC1YIcTQatVqrVYrl8vW74IJMsUVo7iBEYM7pjnp1/FbnPFDmYvx0l55FMHeRLsGOLu2tvbee+99/PHH+/v7+s1HQ8JKpbK8vKy3x8tcrVZrtRrgGp9IUonaa2A1SV/AXKjIG/AZPRFIxMhXsyLHmaYpel+hMsDMN2Lg216r1egOkMcm3knBiZS8EWXCJcFH0BuitArGBr0X9RgYLf478916RXUliHyLWiTA8Rrh70jKpmmKUBEGEPkKXLyNhLNWJaIapb6y1oJCcF46jMHr9raU5wKI81wiYoyBFnleb2CMGQ6Hu7u7R0dH4uuypdk0u8t8HoMFC/ZVstFo9NFHH02n006nUy6Xf/CDHzx48GB9ff2SVr/ElOIX8JqU5QTELSXbSSF3NHIEqZfYiecvKAao1WqtVktEkA7BZGL8QXDJsBgnGkrOGFiLss3btTrC+BKKtVoNMxqq9DBuydKKo9Foc3NzdXW11Wrt7+8fHx83m81KuRyhBoKfm9I0dS6jrHPOvUCwYEzSVK7EmRsl53PZMmqifp0rGEmwq7RrgLPAYbl4UJqme3t7f/7zn1ut1u3bt7VfEJFSqdRqtZaXl6l25xOZW2zlnuNUlfTn56LUPHAHBH9WZfqnqmJU4qsWMHwPulGjRm5PxwTXAzck2RTXSLWxtb7PLVbDFFE4r6wVVY2LF65hN7JTAXaxjkcvWXY1BBxHbgHOqN9tfcd4f/Rd0oS3eLkIrpoLDPHtH8kK65UD4Cx4gtzzYIzp9XqPHz/e3d3V+RD8sQKcDRYsmHhhknNuPB4752q12p07d771rW9tbW1d9qnnHaYoLKs9Ff+5EDDBe5MEJUuig1qVSgUdIjG/IC+ZcJYUSaRa82h1FmcH8hR0oTZbQgfTH6qAQYCrZzGKcafTKSbfYrEIUra1tFQslYw1YiRJk1mSzJIkSRMnngqxVoxxwgnl5aXN5u+UYJdT/f/87MCbQE5kHi2cst4I9tW1a4Czw+Fwf39/NBrpSP1sNvv4449rtdrW1tbDhw9zIelCobC6utrtdkHQQlQkIqnPqcfLDKVpHMdgB1loGhIf61WkxrO24F/xMouCoThp6ovLsgKAcw4rYOd1TqR4qZEC1AMqJYNrvepXZ5KxZy/XwSwumMw1KYCrIjpnipsxRmv/0bEsiqJms7m+vt5ut43nbp1vWgjsy942oEtTn3AmKiM19QJcvvbaaeq2DjqgVvDdzNM0xQb1et1ai1u9UGxweHj4hz/84fHjx5ir8FswaiYB0QYLFkxkNpsdHR1FUdRqtTY3N99777179+69YvfasxgdoF7zp9nULnpCeC2nMoY1lkp9IUJRojWa+NY59Xqd0w3gLPJ3mVPLCYinkDkykkOSORfqVNouEC3hLDbARMbZFhW+OMLl5eVCsUDVxGQ6mSUv6kXaKDKemn0xizlnT6j/ECzYa7Rrg7P9fl9/mKbp/v7+J5980m63RanRYcYYxESwSGXpU02y6nebR5ipFtU5TAaISbGRU3IocqKpT0JyKhtAlHiXi3ItOeLYdACI2wPy8roIoDVbzG8BDVOVoZX6bDDiZhEp+G60qco8wFK+Wq0i1QD3kyCYV8FLMKquiiYbcrdO19tyvgcbBszaBQT6ei/cjRxNzkdib2/v6OiI7GypVKrVamjD9mqPW7Bgwb7yhlB4q9WaTCaFQuHGjRsPHjx4++23b968eQVn19MKIaOepPSUQUrCeUFqLiSl434QaMFFQyCH7eEAcwIDQtgclnVZ0x47h7YXXhqpDeZIGCWNQ/qvMWYymaytreG6lpeXWYwWMjZI8kgw5e6YwR0TJ2cnQyFSEJHzF0bIXaxeV5xyK4J91e0a4OxgMHj27Fm/388BVtYBIbzTIRtgNSRaGpXMRBRofMo8+oGx4Ig2ykbpDpzKcyIe5doXI9HQlqcTEdCZkZLPM5MJSaNIKcW+OCZeeMoJdMCIVCs+xMEpyeA6nv/Ekhp1rAq+7yK95HA47HQ6zjmoeGe+WRr+IOAGA00HlEPe8HSasYZv5T1kowRwBqjhgF9KLwywCMF1LXQloMB1HhjyBTudDvnaYMGCfWPNWruysrK1tYXMpPfee29rawsJ/ldmOUdkVOEXfmUVMZn6cuNM9pJsICtRfW4JZ+mK4TPBAmAqsdmU5RxgvbDR85NJERWjI0SG0mB5edk5B7kgLh+NytAIiXA2d9/AwrziOIMFO92uAc5OJhOUZNIf4q0YDAaofjcPevDKVatVBqw1shRPfKbZggbErMBkeDMBxeAsUOrVeKmuBmF8k7nIdqpqgVOdVKh/0gt0+h2tKNW0JZGr8XpZEsAA97lwlVV1BhLfrAXCJiS3ovI2bkK323VeesX7ieh/6osRUgLhVH1ZUQsJbkbXxn9ySLxXHKEo9hojrNVqUInMezTNc2gyuFqtrq6usuZasGDBvskWRdHGxga8RKVSuXv37vr6+pWdncGxHMnCbyUbvmeKVbVaJZsgc9VaAGdZ1pBnIUFrrSWiZQLG/Hk1np5Hky81DY7nT8GBQY2AJYSuPolW5Oi7O19/87LtdWH6YF8DuwY4q7OmaHqRF8cxw9Z8tQBAAYw0nGUlVDgFHhngyXptq/Vtb5l6Bd6x4NtwG5WMzzeEBQ2MMWiIQPGQeMKYVV119D9JkjiOUaaA8X3jC6MYXw0X58LwSEuLEmCJci5WlWKgvhafl0qlRqOBPAnGudBiDVeta8Gi8AIux2YzA0juGq+C4AiR+pZ6M0pFUPAlu3EK4/sG67E1m0299Nem0T8/BDubU6QECxbsm2mFQuHmzZuo8AhcdZVnd9mULxhcFp2hHipKE6yuri4tLUE0hSwCzXdI1pnrI5AawJySm5VkEXojkr7YBebcr1MmKjKJWUBEMIPg8tGKvN1uo13ZwoNfbFTBgp3LrgHO4h3G+6NfS6Cxv/zlL//xH/+BWFLuHSsUCs1ms9VqsXwpMChC1dyY7KPx8gNCVauKpPAr0qWAvxqu5YbtlIKWIydJbH1VBBGBaBVj02to6xuA6VshKsWKhg3mKWHxridJElQHM75/xHg8LpVK+BCqhul0SoUTsCauOvUtW6y1M9+tkbJdBIYoM9AntarOi+azKdtFQzLN1xaLxZWVldXVVQDonGEN0+v1cg49juPj4+MgnA0WLJiIIGJTrVYvwD6+orlsKS79Of7QeQLOd9JaXV3d2tp69uzZzs6OMQZUArfX6RA691cHA3X5ApkTyHIYBLIXvjM5XjY3tWlCGv5cRDA2OPzRaEQsm8w1jHgVnG18nVo9sEDHBjvJrgHOwqxvKKA5yMlk8utf/3oymfy///f/7t27x42dj303m83l5WU0MoFslLjW+KYDIFCtL5sQ+QLUkW8PxhbVOVTK7H6eTqsOUIhAGzBnLgAAIABJREFUPDTUARotzMcfjUYD+baUyRLvWmuh6wVqxAbAvnRkosT4QKVONfLllQ6HQzLNIoKollHZXePxeDQaAdnD15AihWOCZjf1TdegiyWcxZb0sxQW43OeKPV9yHAfgLChlwXUXl1d3djYQD3gnGNCEtj+/j7FJ9jg6OhoNBpdS/QqWLBgb6BdI8lHjoPuS8M1LWNFpm+1Wt3Y2HDOdTqdo6Mj5xwCj2i7ZbONIRk906AZsxVctOaG5+EsJynJllA446XpHUVVY5Q54GiU4K3g24xNJpPBYNDtdqGdxZYuS2abrAz3Yj9BsGAvtWuDs1h9cj0Hm81mT548KZfLqKhPw5tQKpXW1tY2NjYAZ0FJisrNhCuBCzDZ3EzQmaJoVOtzoUgVz3xXWKP074DFlDHwDSebyxFqUIu+tTp/iwlVzBsTj7lzDovyCW6GT0QhSwJQ47PiAEar1ep0OoXTzJnJinc1E8Cv8HeULUDG+68zFTQZACeOWrzM52VwChKRarW6UJ71/Pnzf//3f//jH/84Go30dMXGj+b8aa3BggX7mtk1Ylk9BoK/XNhNsgkbYF6MMe+88w76ls9ms6dPn+7v76fZlt3wq3Ecj0Yj1AjXMT2j8jecEu9qiMlPcvkP570ujj9HrHIu0BdLn48ZnBMQ5xROZ3qyOJ8nNyJGjCzmZeeh9nmvOtjXz64NzhYKBWTB45/O1+HrdruoSju/S6lU2tzcHAwGSKsE20fK0Fo7Ho8jVRWFanpKCKiyp1wBIXvWw7LWlstlanPxoaaQubAGHMcRxHsxFiLg1RUKhTiO0zRFUpSohghUvlJRQLxINhRqATS/JX+Jz5HuOp1OUWfX+kayCNAbTxvnICxcrfE1ZXHh1lefxbUwZw4XTuUGhcIF33iCtxq3EXICHAQjRyZEQfUGy/2mOzs7v/jFL37/+9+j4zHXCU5VnAiINliwYNdrmr9w2XYJqS+eaHxsTUTQbiBN01qtVvAtHgeDQRzHGs4aYxCvHwwG/X7f+Dri1NTaueIJl+oM59lfOm1yLqlvujkej3E5zBIDfaMnXM1iBAt2qXZtcJb6zvnP2TGPS0ZRZQpQQPvo6AiJ/Kmq/Ge8oFO/jU7lZuo2CqI0T/p0FBKwmbXzZUowPGMMm1nzFFw6I0JEhhXbkzzWFClpUXKZOBEEDzg408XE88pAxiICVYD47tuUOtTr9dTXzaZgiyvmHJcgi0RX1ucr5L51XgthfPoaLhMAF4sHDBijApyFNxfFbThVrxFig4ODA4oKAMrBWPD2XvgxCxYsWLBXtHlMpucaLRLQNGcURcvLy1EUjUYjALvJZPL8+XN0d6fyajKZ9Pv9brfb7XZR7jBRJnPy05PQoT7mBYyzGGE6A5Xig4o07ALVXKlUWllZwakHg8FwOCQhou1Cg3qhnj2Jl9VQ+2JXHezrZNcGZ4Flk7nSsARtqBUQqW4i8BTVavX27dvtdvvo6KjT6bCXVeor2zkvCeCJkCjGjCXxfRlAplrVIYx/I59Uw1lsjKVnuVyezWaIjxO5Gt9epdFoFAoFVmAhMtZpUqLgXeo1uyzaBbeCElfGGC1vhZVKJfCy4G7JxaZp2mq1wFujaxdKd/GYznfxzsFZ/J3zEVqVBSPP6nyWK44Ptpt9emHobdNoNLASoDmVUYfbiJaV/F2azSZUsxp/BwsWLNjVGzkIUUtxMrXEf4ws6X2r1Sq8Mepbob5Bp9NJffVxfNjtdjudTrvdrtVqcJhw2lblYwhbEmSjVTnvnZv+zmg5zCpZ0Eyky5Q1QG3Om+vr65D5HR0dMf9EA1n932DBLsmuDc7ilQBqHI/HjKQ75waDwe9+97v19fUPP/zwwYMHkn0NKpXKzZs3u93u06dPe70e0Cp5Sr6QTtVAcaoioFE1rlPf3QDHh4ABkk0asCOC6QzKi0+lEq/cNaoHGIdKP0gmVfs7OinCejZQoBoBt4UonJhPn4U3Bx6W9VOocACwhvgBkJpJBpLVfuFWTKdTq6o0SLZnmP6bnl3fWMo5Wq3WxsbG2toaaxpwqMaY8Xjc6/XQCcypOFqlUtnY2Dg+Pu71egHOBgsW7M0xHVnSAgM3pwSgU0VBHufcu+++C5IiSZJnz549f/4czg0F1/v9PosD5PhRzUfKCezsvJM8O6jN7ZtjW4hEncoY4eRYKBRarRZTVsbjcbvdpswgUv0jc1zJWYyVDfTA5jnaYMFg1wlngV1arVa73cZSFc6i0+n8y7/8y/Pnz//pn/7p/v37uR3L5fKtW7eGw+Fnn32G/He+PLoOAOnJeQQJvAiki0bY2Au19PS6WUQAEPEhoC252EqlAtBc8B1cdUMvKhkKqgMtobBVncmAlUkPO1/ILEmS4XCo3Yp+exHNR/8zonkyr0SWAOiQNyVJAowIGpWaXec1tRgz6v6yPS9AMOA7Tgc0LKpug3hQbnz3hGq1urKycuPGjRs3brAcr76rcRzv7u4+e/Ys11CjVqttbm7OZrOdnZ10TosSLFiwYFdsXK7TYZLXyMFZyTKRzhdBbzabb7/99vLysrUW7rTX64HHQXEAhOkxEXCyYHwsnSt5Oz/Il25wiuXYUw1bdRwvx1wUi0X8t9VqIZjZbrd1cE9T2s4nq51rYMGCnd2uDc7SdLAbliTJwcHB9vY2sJf+1viMq2azubGxcXh4CIKW1QmsKp6KLa2qNcsj6CUmF53Ebcx8ciphE15sMpm4bLFYoFhonur1uvO1WqxqkaWzxIiGgY8j3yMXI0QJbiQN4J9afcHbpeG78bm0OL7ua8ARiqeu4UxZjQufOx9pgipDEwwcLW8vgW+qUtn4Azlf4wyNylCuS6/ReROePn36r//6r7/5zW86nY7+9eHcsQ55LQ9YsGDBgr2KcZIyPlFVFL9gs80RZC5SD6LBGFOtVh8+fIgpYzKZ7O/vHx4egliZTCZxHKPhAuYLLuYJB+VlmHWerVzIXy7cjJb7Sgc8RaksOABMAYPBgCklnFIpos3B8bPbPAs7z9G+9HovsE2wr6JdM5zVMQiNdQaDQbvdRtYkwaWohP1arbaxsXFwcLC/v486stjX+JqsSZIwpB5FEfpicwPxPoKEovF9ZSNfxlU8JkY3P7zSuhstyF3mP9Xr9ZWVlclkglKv1ncigCsEqqNOlK6KBRaAp40xyJ3q9/s4Pi4BggHxNQs1fAdgLZfLKG6Fq05VLTAMDxDWGIMUK2S8EfvCpZIS4OXzpPRcBd/nFrsw94u31Pgej5VKhUXT5n/0nZ2df/7nf/6v//qvXOuvOI4PDw8Hg4ELVbqCBQv2xhhdLrwcqRCN2JyqHU4DBYD+iMVi8datW9PpFMv4fr+P0jeIJaJiF/wncCGOoKeMhQPj3+eN6RMl5+C4y1qqaodxUrO+6nmxWDw+PrbZHOIckbQQKwcL9hrtmuHseDzudDrgRPXraq0dDoe//e1vl5aWPvjgg7t374ryJiJSq9Xu3r3b6/V2d3cBHwlYgfAQGaeuABJb1qAVEQbZETfHYQHRjDGQDYivDwAuEytmrYXl6wp/BEBM+EgWM/GV+bD+xjVG3jTgS32tPuZUcXe28Oa5+v0+dA7Wt2Og+DVVzWawF2UAlPw6r5QgVGXpsVSV47XZbmG6rK/zKgV6On7VarXW19crlUqOXOfvOJvNIBdj9i6+nc1maP/NqNblPX7BggULdhajk+R/9VfaWel4o/4EVq/Xoyj68MMPUYVmOp3u7+8jxjgajdAiEfraXPgrzWZOGx/x114amFinPdC0I13oVHOO2mS7HhDEiy/RI54bArV8dHS0t7fXbrcnkwkwbuJLT4pnYc4dcPPi2fkd51nbU67OnWoLjx/sq2jXDGcB7wjpNCoaDof/9m//1u/3S6XS+vo6yU7sWKvV3nrrrcFg8NFHH6G+iYigWi1eRbxO1CGB3QT2Mqr9iVUZXUCukBMA2xFNEs5a35qBpbU0nB2Px2zcYL0BekJQOxqNiLmRBqdxM52FiFBvmvjqs0iSpdJ3Mpl0u91ms1mv1wHcjZdMYMBan0DESSkFsGyqKl2jSIK+YwXfFpiZtuAYNAnBuwERFYCvtXZ5eXlzc5MwWhvdPW+L/hwwNzQDCxYs2BtoOSx7XkNA73vf+97W1tZ4PH7+/Pl0Oh0Oh8iUgEuv1WqkZuF+kZIhqmuX9Z1y8U/qExJfO/y8A9MonH/rGVkrB7AZnH8cx/1+f39/f3t7GwU0kQSiJ5F5xvqMgxKD/ztxzPiDwPQk+iOHX/U/A5b92tgboZ1dXl5utVrHx8eIvwBpxXG8t7e3trY2Ho+RGq9ZTPiUtbW1733ve/V6/cmTJ7PZrFQqgUkFZykiLGGLT5AOJf6hJ/Qk4GNTwYLvl4uTEqUZX5IWCBIHRzsu4Dwwu8DB0BWAGAbygy8bj8eoNYiEVvKdIGWpbeUKmCicJbcwGHQo4Lof40GlMHDVaZriD60VZjCIuJbYF5yoJpXFt0jAbXe+N5goFS9VHNZapNOhETG88LyzACV/eHiIHenmisVipVLBfdPpvcGCBQv2JtirQB8iJ+ccnOQPf/jDYrH4y1/+Eu734OCgVquhkTvr24ifELUeDDNCsVgEAQHHDrcJ+Hjh68oRzFomqzVm+BDOfzAYHB4edrvd8XjM6oo8MnH5eW+d7wiGv89xIReYNTSUP93ClPQm2zXDWbwky8vLt2/fns1mnU6Hi6fxeLy/v7+3t4eaA3yMnKq6tbKy8uGHH5bL5V6vhxhN6gvWVqvVNE1RGjZN00qlUq1WWQcAVCJbHuTi6YnvxcIo//9v78p65Liu873VW/W+Tc8Mh5vETaIlylohybCC2IENOTAcA3kJkoc85ClAnvxfkjwkSIAA9kPgJLYUR1tiUjS1kJS4SKIokZohOfvS+75W5eFTHZ2u7hnODKeHQ/F8EIhRd3XV7eq693733O98x+NU0lJKeRx3WEh7wSCj0ahydmHoVBCzgvgi2hoKhfx+f6lUwr4Sqf5DoRAioPgK5GxFtwhDCXk1oM1Q1tIBaFI0Go3H441GAyXCKcGLB5vxLUBnkUinHKEF3GQ1U/SDwpLEwlUKmMS1IMF+vz8ej6fTadDZoT86ftlcLkd+wNopYhwOh3FnNhCKCQQCwYMLhDx8Pt+zzz575MiRarU6Nzc3NzdXKBQikUgikWg0GsQCKdzAxWNEZ2mvHxMNBVO20ST8wekaJb3RMa6oLaaDarXKc7IpAqqYYe3QuIZAsLO4/9FZ27aLxWKv1yuXy4NLn2w2+5//+Z+FQuGVV145fvy4q0v4fL5IJDI2NnbgwAGELUulEuSYiIyCiVLxVYv5JPRYeVsqmqCUCgaD6LTgarZjuUXZnZpp4anoKw4jfkzdmKQLgUAgFAoppUBhUWoBZWZp659EukqpWCwGrS2isBSzxHgBtTHq8YJ8o5BBMBjE/cS3RhUGus800ICPkniXgr5aazgSWJaFBAUSbJBIVzsJZK5gOYQTpmmmUqmJiQm0eeiqd2Fh4be//e3Zs2ez2Sy1rdfrhcPhgwcP5vN5OFrs1AMmEAgEewcUbdVaRyKRl156ye/3f/DBB9euXfN6vZjCGo0G2CFZWJIuTjlKA7DYnlNHk4dm+Uy63t8EHlNw7cjTu8oh1q1WC/aRPp+v2WzW6/WVlZXFxcVcLocAjSs6yyfNUdzMoV9n6Iucjgu+lbj/zgZKqUKhUCwW7WGZ7Pl8/re//e3t27f37dt37Ngx17MIXpVOp6FDgjIVS9tWq6WUAr/UTnVpxUTuIGrQrZumiV0brTV28JUjWsV4ARJJPZMyOnuOtxfJDLxOXQZyPyDzAdM0m80mtAThcBjUEyepVqtkoFuv13EwDBnQJOzp9BwDhE6ngzajnZAxIIZdqVSKxWIsFguFQqZpKqcAm+rv0iScQAPwWyBUbJpmp9PBesB29MQ95k1GYxONDuCyoLPJZBJJYEN/UKXU0tLS7373uw8//FAxjxvLskKh0P79+7XWs7OzLjNagUAg+NYA+2ymaYZCoRdeeOHIkSNIF1ldXa1UKpgOaGcPH+GRVwo0UOAWY/WgzIAHSgdfBPhum8Uq19hMZkrXRfkbwzBCoVCtVisUCmtraysrK4VCoV6vY9x2EUcer90d0P4t/1/+rrDbbyX2RHRWKWUYRjqdjkQiKF3LD+BPHjqGa50XjUYPHz4MKT06NvbZaUMEHd5gblMIrxqGEQwGQftgjKIdTwNXDilFZEmBSm/Rvo92Nug5u4UegLT8dH6tNQK3yik6AJkBvYJlLgYOfpf4MpcW5RgceSYWCD1tQtnM9xuwmAmXchQUMB1TSsEZG2we8VrbMbIF/a3X68hCU2wRj3hwKBQKBoOe/qJidMdcAy5FYbXWxWLx5s2bKFy8rUdJIBAI9jq0I0hTSoH/hcPh7373u7Ztf/TRR7dv367VaisrK4lEApt4UHlhZuGwnOroFJvYkQgoFznwKQMpa/l8fnFx0ev1xmKxSqWSzWZXV1fz+Xy5XMb8S9+R/sBcQNPEvbdQIBiK+09nAShoJyYmOp1OpVLhfFEphb3ver0Oamg7yfg4JhwOI7u/UCggEmnbNoStykmfJ3GnYmYrqFnA6axSihK5FDPNpuFDO/VjFVvUIjaJoCmpBWzbJiEsck6prhjxXdqFCYVCtqORwouINNdqNYSBDafGmGKjYdcBIsTBYBA3BMNf24ErSkqrAqK5+CIg3wgtQ0ELeYPP5wuFQthjwk1rtVqtVisajdIVQUBN00TUGVFhwO7XUSHWy7UElNxQrVanp6fB0Xf6+RIIBIK9Ao9Tn7LT6SBn4IknngBBhNdVNpvNZDKJRALu3QiUIChDZuraqfWD8RMzozVQGPyuYgPFMlIALhigMBCsIVHhyOfzNRqNcrm8urq6trZWKpUQUaaG8W3AoZfYHWwm/ioM+1uDvUJnLcuCxwcIHBfCdzqdubm5X/7yl7Ozs6+++upjjz029PlLpVJPPPEE0phIV2SzYrPULSFRQB3XcDiMNCyqrUDCJqUUopIIc/J1MFmWKFaojLbjLafEF66lHLannAQscFDD8XkFA8aFSDWPyKhyBj7ubECnwriGAQ6MGR/B6/Stsb7HK2TvQNtV1Crb0exjWIRmg2SyKHtmO7UNQfohosIXCYVCk5OThw8fjsVirp+Gfq98Pv/FF19cuHChWCzyA0zTjMfjcJzl1l0CgUDwrYHtQDkTh3KUAz6fL5PJPP/886FQaGZmplAo5HI5BCYymQxq65BADnY6itmlE28bqu/aZKtcxNeV/AA6C39ZwzBgy5PNZiH2RexD9XuE0bQrNjWCXcAeorMw6kKMEMWs8Vav11teXn7ttdcWFxdPnDhx5MgRomscsVgsFotprWu1GpzwEKC1WQ0t9Fj4akFsip1xLqMBp8RHUA9MOQVgKUyr2Ga96jdzNZz6YSCpmuWB0iYRFuWkQACnxAmJ2kKuSkFl/MsHHa9TcswwDPg2NBoNVJQhaq6dAl3g0L1ez5XExhuJWw1mjxiqcqi/4RQDA8kGe0YIGfQ3HA7H4/GJiYmpqan1FruQE1y4cOHixYsuOhsMBsfHxyuVSrlcltCsQCD4toKkqET1sH/o9/vT6fRTTz2VTCa11tevX4f9Njb3aIsP0wQRRxq9aSPRlURrD9PODr41yGWJztJ8B9VsLpdbXl5WStVqtXq9XigUGo0GCnNCTce3AWnm2oU9N830snpAO8sx0mYI7iP2BJ3lHSCVSsViseXl5Xw+TwfgEaxWqzdv3jx06NDBgwfj8bga2CawbTuRSJw4caLdbudyOSxkeVEDhF0jkUgqlcKTTTJZEFYKjhLtUyz+inHHYiX70HLyTwWPhP+Ucup+aafYFfSsSEpzyUPB3SORiOEYhKG1aA8fC5DvRUljYJZknYvgK32W70OhJjj4PTgrqR1obCW/AhrFQHzJN5fuJI3FEBhkMpnJyclwODxUIEWS4mq1ev36dYzU/ABEdn0+HwZKgUAg+FZC9xfFpU08DKeRSGTfvn1PPvlkIBCYnZ0tl8tra2s4Jp1OQ3igHdcdxFxsZiWu+nUCmwQnwUM/Cx0dFS2rVCrwBQLBdWVLUwNopqAvvv27JhBsAnuCziqWLRQOh1OplCt6h7dAhiYnJxOJBOjsIHmKRqOBQKBUKs3OziKVCtv6UBeAjEaj0WQySTZ+6H4wbe12u8FgkAYXzrNJAkHaWdW/TUMLaIwyJAOgUQZ0mbxvqUaD7Ri7YrSCTIIoqWIjFNyycCoUBuOaYLooVsPkvUWWsfiIckrI0Gqe+CvFnpUjwLUdtSsMH4ig02nhuTs2NjYxMQEnsqG/LO52qVSamZm5c+eOK4QAw7V6vb5rZi4CgUCwy6D4CM07tOOHETgUCnk8nuPHjyOXA/v73W4XRjdwjFGOR7jtSOkoAqI2jMKu9wpNYa6gJmA5BS+r1WqpVCqXy7VaDQ5CeJ14OafpxGjpnPeFzq53XQnWfiuxV+gsgMooKAHA61YDxWLx4sWLoVDo5MmT+/fvx4uuDQUEHScnJ5966qmvvvpqenoauVDIZ0I3w9AAjgv2CZIHFwLbcXVFYJJ6JtUb01pzokk+WV6n8i0OAzOjqg0goDgbpXbRhRD4pPwtkhnwzobhhggxvpR26iAYhsErBuOi2pH5IrhLIVXtSCAsx+QFx+NW0Ct0Xcsx8SYlLgVrkUuH2g2obej6TXHRVqu1srIyNzcHZzTdn8SAuHu1WqXyYwKBQPCtBN/3ozgCBlgMrbFYbN++fY1Gw+fzzc7OViqV1dVVjOFIDvM4ddFxQpzBFSPYJFFzUdtBLottQNRxRPUvxGW5LS6dh1IyXCKHrQaMBYJtYG/RWcuykCOJzHo4+dO7iM5GIpGXX345k8kkk0lX9SzlyInGxsY8Hk+n00El1Xq9TkVuEQSlhSwfVuBRBUm74RT0c3VLXkKQVAe6v2AsxYzxcQRKLaccl3a8urjlAj5O0VDVn7um2H4QzgOVEvK3oG3QWjebTVduKZ2W+DfFcV1hZsvxMlNK9VgdYOWUn6DRlm4XqWZRozgcDvMGcxiGUa/Xb968eePGDYRg6c7jd2m322C6YjcrEAi+leBjo2Yp/5QsRQEIjKW2bXs8HhDHarXa6/UCgYB2Um9pb81w/Lko8qLW57JDaSV/kc84ygnN1mq1fD6fzWaz2SzoLOIOnLbSTEp0lk+delu1Z3cQuh/3sSWC0WFv0VnlJGkGg0Geqs/fnZmZ+Zd/+ZeZmZk///M/P3bs2NCTBINBwzAOHjxYq9VgLIU0Jvj8Q2xKnqwYRMCMbdv2+/2DC0rNfGepZxKRtW0blyCAZYJ3AmSegFPRGESWBTYr0GAYBtpDaf6u8CquDlKrHJGuxyntaznmAxhT+Nck4HWlFEZGCgyQUIGqb+N4FDPk8tlIJBKJRKLR6KFDh+LxOA8YDI4XuVzu97///enTp1dWVvAKjgwEAul0utvtwp5GFvECgeBbD05nFbPfpnd9Pl8ymQSbNE1zfn6+VqstLCzU6/V2u51MJkF5lWOjbrOM551qJGnwIOFdWVlZWVmBLziFcgY/oph6YWNJrkCws9hzdJbkRH6/H3E7iiyieywvLy8vLzebzaeeempsbCwSiSCqyjsMPrtv3z4QStQMxDY3zApobx09E+FSUuXbTNJOHdJgnrU4mGuVkCzF08iUs1PDl910KlKpkpMXhW/VQNVBxaKzxEdpBUyyJ+iDyXwgEAjgb5ycjMaIcFuOSxdRWP4TKGc4w2ktJ6MW39QwDKwZotFoJpNxFQrnvwU+mMvlrly5cuXKFdeP5fP5otFovV7nDRAIBIJvMXiYkHbJuAgB6QSYSrxeb6fTWVhYQGSU4iDYZuQzBVFbwibbwyOpAIRnzWazVquVSqVsNru2tpbP56Hl3fjMNIHyGIraRGy47xap7fPyQQWFi+hv4xYpyWbb89hzdFYpZVlWpVJptVqBQCCZTMKf2fXYra2tnT17Vin1wgsvjI2N4UUaC/C/sVjs8OHDtm0HAoG5ubn5+Xl0dWhzwclA1HjAlVf2om19mxWtxclJAMoX1tRDoB+ACwH5ErjCvYZjYauZxwqujiAo7ewbjlUKPms4pbmoVdRdsQwAO6f2U96Acqr+QqerWUYCDqjVavgsVSmjooW8/bjE2NhYJpOJxWJDfdNopGi326VSKZ/PQxThWtZDLixeswKB4CHBICvSTmUcGu355pVSCmEFKhiGWSmZTEajUZqqKAUZ58e4qvodBgYpnXI0A3RdBCCazSbK7dZqtVwul81mi8UiksBcsWTFiLgrN8PuL53g+uJ8Fhg81b2D5kTo4gKBAOVm2Exr5xL1rXcq+kOmqj2LPUpnkTUJd9hms2k4tQnomHw+f/HixVgsduLEiVQqpZgqVDkPZTAYhPO/aZq2bZdKJY9TbY8KBPAoLCeUuAoJRvmlbWaCTRv3NC5YTnIYuDIVTeDCUB5qtZ10KNKnEpm2WZlBzWo30EeUo0bQTj4B3/Gn8C0J9il/lqLIyiniQGcznKIMuHW0r8S/u2mapmmOjY1NTU1Fo1FuakarAjq+Xq9/9dVX169fr1Qqio2hROIbjQbSY3f2KSJsEBgQCASC3cRQSsfDh/xfKpCOwbxery8tLdVqNaUUthnhnk5DHEU3XKK4wesqx2DBNTDiJKhnWygUULq2UCgUi0VYudMemouncrhOOMikFZspNh6Z75HY0m4kxXFA+lV/gHbwJrib0f/VZDbZm7gLnXWttHalSV9fVznsSrGeQG0olUrXr18/ePBgtVqlff+hJ0H4EImZkNUHg0EyoMZePIwCyLoL4dXBs9GtAOm0HS8SFyGmZS626ZVTx5XaT1eh0QcBTlqaYzWplIKc1HLsrLHXr/orryhW7EAxDxeAFv0kOSA6SwoBrTVVUyMVBDWMXwibQvjHAAAgAElEQVTnDAQCwWBwbGzs4MGD0Wh0vcU07lg+n3/jjTfefvtt+HPRwYhea61LpRL8H+7+WGwdxjrmNQKBQLAX4CKy/HUs+FFhAZNFMBicnZ1tNBqLi4tIyUgkEtB9GY5bDhiwa9IcHAmJ+Kr+AATZcuVyuUKh0Gq1SqUS1Hr23QrVUkCUh4RpS5NPLjty6zYGcVBsloLODmYb86mcv0KNpKjTLrRZcC+4e3SWiNQucwLbtiHTjEQipmmWy+Vms0nvwvjp5s2bly9f9vv9Bw8eDIfDQ8+DUOLk5GS5XMYqk3bbsRHvWrzy0CY6A0VSFSOvnGXSBzmj1azylnIUAmDP1FX4weCdGL9oIODNUA4PVo7UQbGNJL7qsPoTTin4SrIK7RRNwEcgUdBat9ttOpVlWZ7+qjN0S+FmkEql0um0y02Mo9lsrqysXL58+YMPPrh8+bLFrBWUUhiIO51OPp8Xfy6BQPAQYjCcyd+ynaLikUhEOYN5p9NZXl5GgAZ7aIbjn2gx13N72Ea/ZnuJuLTt+D8qNn2g2nypVCoWi51OZ1BjwKMzBL7tRkUr+YYnZSdzvshPwhu83uvbADFaox+uY+gquj+wrRjlFVK7l3F3OosffnR7wYMgOgX57OHDh03TvH79+mDJqK+++uqf/umfZmdn/+qv/uqRRx7ZwIR/YmIiGAzeuXNndnYWr2C52Wq1UKmVvqZmilIcSbYDRO/s/hQxspjljNayLFThIu0O6jhAdcBLLYBbUyS15xTm5TfEcqrsKjYMkeYJS2rqnyQ54OUQYdqlHGLNxzvS5tLX591YsT6MdLdkMrl///54PE7nHIp8Pv/aa6+9/fbb09PTrrcQZpiamoJCa3R0lseDBQKB4EEENtAymQxmE9M0b968WavV7ty502q1YFWLHTaM+c1mEyESGswpSmL1u2gpJpzDvIOZt16v1+v1VqvFXXFcTVLD4qyGU7SIJxnjMI9Tqp3nnGgG1R8Z1c77W7pR+IO+NY/v8MgxZafwz673pSh6JbPJXsZGdJZ2pV1P/6hBDyL528GG1jRNEEE6MpvN5nK5SCTy1FNPeb3e8fFx7F8PBhQjkUg4HAaVRCpYq9WinsOfco9TZMvqt/RTjEfS3gQPjnKZAQ7D5aAEQLExnA1Jo2TXpbUmp1uD+XC5grhgwESpLWZYTc3zOKXL+KcoPRZ8nbdZ9yuAeX+2HDcGahWG1GAwmE6nJycnkYUw9BcElV9eXr506dL58+fr9Trnx4ZjtasGHGpGgUAgEI/Hbdt2lZoTCASCBwJaa9j1IKCglKrX64jRZrPZYDDY6/VSqRQGeejNSIHGl/QbEDKDpZRRoQTKnaDopmbWkDbbosQ0RJMatkCROqKccd5i4IES3b/JSf/qbdkbcEbrigQrFqkF+Fsuiu963WbaDNeFBHsEG9FZBBTByXaTzhJsJ5EI1VOTyWSxWGw0Gq7D5ufn33jjjXq9/oMf/CCdThPnGzxhMpk0DGNpaQmLV3Q/7LMTt6MQKXizYRjYIiFBquU4avn9/sFLGMyvAHQTBWyRX4WqAbTeVY5FF0VbcQDaoJwhhmK3WFNSM6D67Xa7gUCAkjdJ5MRXwGpY36ZxiiwUFJM3EZ2lW6SUikajqVRqfHx8bGzMJavl6Ha7Kysrd+7cyeVyjUaDPz+gs6FQqNfr3b59u9VqtVqtTT0N20UikXj66afb7faVK1dGeiGBQCDYWVDARSmltQ4Gg5lMBuGJUCh0/fr1crk8PT1dr9eVUvF4PBKJWJYF2RjNIzxQohipJfWaK0BLNSy1oxzgs5JSCgEa2ynPjhKeFHABc4ABDkVn7f5Ma/pGnGHfO83QA84DfNajr0OZYcopIWSzHVfFGLaLDdv925WCPYV16axhGMlkMpFIrKysFAqF3WwTAQHOfD7fbDYnJyeDwaArCx49IZfLffTRR2NjY08//TRsaHmAlj95SAIDher1eiBSyHakmlic21EoUTm80+7PHuWkGWTUFa+lZSgGDpDjUCgEUtvrL5bLo6F0FcVCmHR1HpHl35H+sPotGjhdpmGLXrdZMiy1H9pZzmhhzjU5OZlKpYLBoGsRzBvQbDavX79+/vz55eXlQROuQCCQyWQsy1pZWRm0YNtBYOh/5JFHHn300UKhMHT5IRAIBHsWfHinXXKllMfjQWmbxcXFfD6P8C34Lg52TRNEzmgm0sPywGCDA40BEWIUJAOjRbTV7/eHQiFME+SBhakZEwdin7xSPaeMfNrS/fbqipkhKLU1awMXy3TNlXQMl/8pxxkdsSFqntHv3kWz5AbhbcF9x0Z09tChQ0ePHr106dL9orMAOGUkEvH7/YVCgfyq8GAZhlGv1+fn5xcWForFYiaToQwn12MHZub3+8fGxijzyTRNVMFtNptEJfFx8ucCSUWVMsQsiaJhcNFs/0X3Cwao2pZyCp7RQODy09UMnN3iXfIrgHur4dR0ICcXDApkyOXaxMc4gq9PTJp0FOQsppjCBB8kQUUoFIrH45OTk/v376cRk5+f0+tqtfr++++//vrr2WxWDax0Q6HQoUOHOp1OsVhEUGFESKVS3/ve9x555BGv11ssFmUYEggEDxa0s5XPXzFNE14HCIJms1kwWo/HE41GEUzlswAPr4Cw8vqONHqTzIDTWXwwGAxC74eJNRQKwaJRKQWjm3q9XqvVWq0W6ehAc2myhlCQM2maFKwBvzCtNXQG2xiyBwO0rpuJOQ6MFtoM7UiKMcmSok87SXKCBwIb0VkUfBrkLrsMsDTwnnA43Ov1XMlD2BmZnp4+e/Zsq9X67ne/S4zWdSo8o+Fw2OfzIU+rXq+jzAkE9ZpVRuDM0mL+r+gPfOWHI7k9LRfCcgmydmp3GYZhmiYOxuYOhX5xOQqOUmCVVrEu7qgYk3Ytx/nfFGeltwxWG8x2pPpYWOOeE5sPhULJZHJiYmJsbIxLZom1K2f90Gq1bt26dfny5UuXLs3MzKj+3Rnt6ECazSbqve3848IAmcHhw4fn5uZGeiGBQCAYBWiMdY3tfr8fYtlms1ksFldXV7PZLIhsOp1OJBJ8OrNYyUmb6eWIUxqOySNyozE+22x3PhAIhEIh2vyEJTwIcSgUwpSKWYb2ObUjPOCMsOdU4nWJH1xbfFuls4OhCpqVBmdMg4EbXJI1BL8/9O96FFmwd3CXVDD+zN1HtNvtxcXFWCw2NjYWCoU6nQ46G6dK169fX1tbK5VKR44cgRnqYMtB4NDxMpmM3+9fXV3t9XrVapWechRc5eYAvDwscq1wNtvZuCF/WcX6D/UE3gyDye29Xm84HEbAFStXWhGS0wInjvS/WENTyBPvUiYpcV8uddJaBwIBjCxYPVPSK7Fe/I3lPhwYMAwFAoFEIjE+Pr5///5QKLSeMxdaXqvV3nzzzd/+9re3bt0aXNd6PJ5gMNjpdG7cuAH/l208DJsE1mMnTpw4ePBgPp/nw6VAIBA8KKCoIf6XJhGfz5dMJh977LFoNHrx4sVz586hJu3JkyfHxsYQWEVyBS+jA1CFIMPJfsY54WmAsvCkecW8AH9G2h4EfD6faZqRSATn7HQ6yEtRzLHLZmIGpdxb+fcL9BW0o+hzMX7lxGg0q2F0P1ssuBvuXkYB1Gf3fWcJFJ3VWsdiMeoq9C7+KJVKpVLp/Pnzhw4deuGFF5544gkYl7i2aQjhcJhkshgFqIwCj4ziiafXMS4QU3SpArC8sxz3AN5bqAKCcvozWDWljrpERTT02EyyQxFczUxVbOY7OLgC0SzBy3C2nwxWM4aOIaNpUOFwOIwdpfHx8cnJScRl13PmwliWy+VmZmauXbt2/fp17mZA8Hq9MBnIZrNwER7pQ+Xz+eAmtri4uLCwMOqcM4FAINhZUAKG3a/dpK2/dDodCATK5fLa2trKysrKygrCpclkMhaLKWe26jn1JjFbYd6xWAUiy7JARpFMTFzWdmR1fr8/Eokg7QQGQYiJmKZJER+as3jeiOFY2VisnBCd2RWWUsPUAqPjvpZjvwX3JIMVV7KdbBODqQdFe7CXsRGd1c6mhmmasO3YtWa5QAvHXC4HCmiwMrB8zffpp58uLi7+xV/8xeHDh3n1P/6l8AdyMycmJsLhcKVSyefz9Xod35HIn+1UxiK/WARuTdMEf8VtIQZM3iVEgnFCjBREJRFJBTUkSooeBbk9EVP6XqTsgaQJ4xFiulhTakcZzKkqp8WWY9pF7XSVeAgEAlgA9Ho9v9+fSCTi8XgqlZqYmNi3b18oFNrYZRZ6jwsXLqBcDZ2c7jni4qlUyrZtlJmhsW/nnxhmClMoFK5cufLZZ59VKpWJiYlRXEsgEAhGAU5kaTBXrDCkaZper/fxxx+PRCIffvjhu+++OzMzU61Wjxw5cvToUThUcsst7fjR0q46BUfa7Xaz2QRhpWGZT0+BQABzEPzCqbIj5iOXRyQXzmlntxDbmxQ5oq9Jkx19ZVvZ8J0d0Y11qQoRyqG9R7pdJEigqNaI2iO4d9wlOuv3+5944ol0On3t2rVbt27d32A7EjlDodDY2Fi32y0UCrxOmFLKtu1yuVwulz/44IN9+/Y999xzp06d4n5Sun/fXztS96mpqV6vt7KyAhcFFA+krmU4+V6IE7t2JSjNC2wSvR1xXNu28QpGBLBw8EW6NHaCNBMYkD0tjVzaEeDyTRCMPspRGkBLwMWvJJDg4yDlpSnH1JpfyHAsujweTzgchr9sOp2G6p8OW+/X+fLLL8+dOzc3NzdYtFY70ohGo0E3cMcfJ2peNBo9evToc889l0gkcrlcsVgslUoyEgkEggcLul9UxkdgYro+n49itKVSaWFh4datW0opn883NTWFJA2SE1CIl8sAEG0tl8tI56KoreU45FDIA67t1Wq1VqsZhgHVHxXx4SJAV3CXGCF2OCkapfpNu7755tudHGyGoW9xPbHtmBe5QrDEzkcXGBbsOO4SnQ0Gg3/0R3/k9/v/7d/+bXZ2lhY09wW9Xq/ZbEaj0SNHjliWde3aNU5n+b7G5cuXp6en//qv//r48eNYFLq6Ct8T8Xq9hw8fTiaTN27cUEqVSiW4HNDBnEqCqJEtn2Iieq213+9HxBTLXJibkAMIjRHgu6CtCPoqp26tZqlm/Ltrx8MLHwFQNQ0i/Xg8jgPgjcIHEe7MRa1VSoH+KhY8pt4LkWsikUBc1mB+ZOuh0+lcv379zJkz+EaD7YfJy8rKClmkjQK4hxMTEz/5yU/++I//eHJycm1tzRrInBUIBIK9j6FjL6dlGPGQmHXq1KlMJvPmm29evXrVdhK5EokEWcgjdALqRuM/tHzYoiyXy4g4cJmcZglhlmWVSqVKpQKNLKK59XodTo4WK0KmmJDAYLnIqp9xDo7M3+zaWVsbtF0XXe8Yi0GxwDBN+sRoaR+Y6z221CTBbmIjOosfG/nssViMFlL3kRlYltVsNnO5XCgUQmbS6uoqSK12BN1a61KpVCgU3nvvvfHx8WeffRYxWs08VvlyEOFMj8dz4MABj8eTzWZhIEX1CLCfQutLUEmPx4MRxMMqZSu2v0/dGJW0kCuKEQRsEqQTkh27v4YeJ6+2o14ghQBegYsqFALY68FX4zUJSbREIl3cAfRSeLXgZ8XfHo8nFAqFQiGqlQCNgetXcD0AnU7n6tWrFy9evHLlCvywXA8JvmY8HjcMA+PgqBdF4XD46NGjJ06cQK1zgUAgeBDB1XR6QHjKA7cejyeRSJim+cwzz5TL5WKxmM1m5+bmvF5vOp1OpVKKuaoDIG31er1UKq2uruZyuXK5jGRo28lmth2lAdXxodwyTCUolAMbL4ol0yVAB3lIhTYPAb6Dz7cTla1stdkwxCCHtpnUePDWkbSX6KntmPmA6IdCIS7n4y3ciV9VMBKsS2dtJwHfNM1YLIaF1yBT2X1UKpWbN29OTU09+eST4+Pj1Wq12WySlJZ4oVLqwoULN27c+Ju/+ZvHH3+c6n/YrDKCYk+n3+8/cOBAMplcWlpaWlqan5+vVCrIZ/I4pcJwfLfbLZfLpmmiGoJm1nTgqTgemV62bQeDwWAwWC6Xbdsm/wGMIyC7gUAA2lzqzMSeifuij/HuBx4Mua1SqtFoYO0Lto3RRztWKdyCxHZKufDzk39tIpE4cuRIJpOJx+Pg60N/BRphlVLtdvuNN97453/+Z1SRHbo4xnaYx+NpNBqj9udSSvn9/vHxcShlZT0tEAgeRHC2R+FDnpNAjJPccqLR6IsvvvjYY4+98847b7zxxp07d8rl8vHjx/1+P7xjFQvudjqdVquVz+ez2ezy8nI+n6/VahTsoLkeOjpEcGAlq5zyQxTFVM4k5ZK30XYflAbKodScVrqyOL6W29mqp2xlbU2TtnFoll+XTHANVjQeDSZ7n1ar1Ww2yTHXs061UcEewbp01rKsxcXFzz///Nlnnz1+/PipU6deeeWVmZmZ5eXlvRCgLRaLS0tL2ElRStVqNVclVaUU9D3vv/9+Mpl8/vnnn332WdeCTPdLaQOBALocVTSxLKtarZJUgAYXyzGjpswq2rhBb8FSFYliJNChwnroTiTSNQwDKVygpzQc0NYMHxrwcfIURMfjYiAaMigtDDIg/gXJhIvCt2QrODExMT4+jlU+V1xw0NrXsqyPP/74woUL586dm5+fH3ow7WrVajXbtrlh8I6DP5Yejyefz1++fPn06dNra2v3dw0mEAgE2wAxQtr95/MX/W2wvOFYLBYKhU6ePJnP5xcXF5eXl5GzPzExkclkcDz0cs1ms16v5/P5fD5fKBQQnUV4KBAIoHSRciZHxG4ikYhpmpi8VH9FMd4qAkVMaW/QlciBGYE2DynYYWitFcxnhzBaHt/V/RnPg3ePh2bpdpE9md3vV0DbsAg/Ufo1vi/fRLX7dyD5Rfm/Ek/ZNaxLZ3u93q1bt5rN5o9+9KNQKPTSSy9prf/rv/5reXl5N9s3FNizvnbtWiKRmJycNE0T6Ueuw/Cgf/jhh9euXfvbv/3b7373u1zAOhRerzeVSoXDYYwI9Xod9VHAXPmSzrZtCEBBUiORCO1W2LYNq5RcLgdlPTgolbFWjmE1rA8QYcV4YTAvLe5+YDNVK5aJyklEo70bcp/AMpo0DJD2h8NhbAZB9W+xfFW0P5FIjI2NTUxMJBIJXsN2A/R6vXfeeefv//7vK5XKBj8WmHEul0OC7WZ+4m2D7zfNzs7+8pe/fPfdd/P5/EgvKhAIBDsO2qZTjMUORhn4YcoJhT722GOJROKtt966fv26YRjNZhMTE0Ih9Xod/rLVarVUKuXz+WKxWCgU1tbWMJiHQqHx8fFYLBYIBGDmg89Go9FQKIT4kUsIoZkkz0XjLMeMkuYsboKOYyjNGtO0x+PxerzEiV2MlutfPU5tIDJYoNtFjXHdLj0g5FX9qSbKmYLRTryFaBHf3VX9Ogd+CTVAprf88wu2iI20s+A9KIh38ODBcrl85syZuwbzdwG0Y+7z+VAtDLrMarU6uJFdq9Xq9frZs2eDweBzzz33zDPP0FtDV1QYFKLR6L59+7rdbjweX1hYqFQqluM2EgwGEfsMh8Ngnwi10r6PcpKr0LXQY/E6aZLo0tQhqRfxpx90FrxZO7lrfD3KRzrXaILD+JmpWwYCATo5wsbBYDAej4+NjSUSCQRxXXdmEFevXr169epHH32Uz+eH6gfo5IhAY1tq1KrZZDL53HPPvfLKK1NTU6VSKZvNgkaP9KICgUAwCgzdS9wYmKMjkYjH4zl58mSxWERB9bW1Na019gCRSQw6CyJbLBbL5XK1Wq3X65hl6vU6kozj8XgymcSsEY1GU6lUo9EgPy9qmN2fZWX1J+C6/uacknR0pDqwbdu2bNuwtDaGnkH121AqVmyC36jB4KgewNDX+SUoYEQnofQ4xbKJ+DESkb0vuItRl3JsmyYnJxuNBmyZ7zvouWm326VSKRwOp1Kp9XSZOPjcuXMfffTRL37xi+eee+6ujxoCiuPj46lUKpPJ8GInkPVgwyUcDne7XYiN6vU6gq/oDFi5Yk+/0+kQy8T/Ug1e7VRGoKws6o34A1YJ/Lv0nIq7pENwbaCQ0rfT6WBhTf2cJLMIvpKPLMrYgs7GYrH1NAYunD9//l//9V9XVlYQMHa9q50cOzjpqt3q4ePj4z//+c9fffXVVCp15coV7KmNmkMLBALBKLDJYdN1mG3b0Lk++eSTsVjs8uXLn332GapmRiIRFK7vOTXei8UiorOwNcBuHuZT0OJkMplKpXw+X6vVikQiqVSqUqmUy2XX3EQaPFIODG2qi/aBziqlDMMgf1zbti3bsi3DNobUqqXPugJDm7+rm4dmeSyKyZQ9rGjRIH13sfxRNEwwiI3orG3bjUbj/PnziUTi6aefhsIyGAxi/33XmrgBOp0O6tNCkxoKhYhKqv4aHuil586dCwaDL7zwwjPPPENb+TwaSmFOPKzICX388ceDweCtW7cKhQJ5QdOmfywWQ9Fd+IjhcoZjsDf4KOPpB1UFhaV9ItxVLIJbrRZeROiUNlDwjWh1iC8OxTo0BujztGliOC7QlPulHeNbGkoSicTU1NTExEQwGBzcJwKIRhuG8cUXX1y7du3ChQvz8/OkWxj8dZBYFggE6vU6BPWj69g0rHi93mQy6fF4Pv744/fee291dVW4rEAgeBCx1RAADxNiWkFuSaPRMAxjeXl5bW0N+5lI7UKYhiQHEM6SSJQMJam4j8/ni8Vi+/fvR2RXKVWtVmlDchCuiCwdydme4RTIJIJICSeu+A5ntHx/0mZOBTSZ2szCaPCuDo3F8nvIjyQuSwdzBS0/IaezdMx6zRDsOO4SnW00GmfPnl1dXYWnHeThllPr9b4DwVEEU7XW4XBYOQZYLkULnqdz585dvXr17/7u706cOAHNAD+b6+nESeLx+JNPPgkhbKlUAh0ED26328FgMBqNtttt6JAwUhAbJv9X3b9hhBcxoMALDJdDHBfxVHK8g2kIld6m5FbwVIhuW61Wo9FAzBi2r5Qfqp0NHbyi+osKYg2QSqUOHDiQTqc36HgU3NVaf/rpp7/61a+mp6dRm2AonbVt2+PxJJPJYDCI4XJ0XFY7vmZKKcSe8dz+/ve/X1lZGdFFBQKBYG+CRvhoNAo3g1gsdvHixcXFxVKpVK/Xw+EwghfYWqxWq1AaUOIyBYOgFqPISCwWO3DgQKPRKBQKsFfnFpAurNcwTkn59EQRUEwrEKqS8s1FZ+kMFL0iu8x7v3WDjaQwrcV8OdVAsNn1NYl232OrBJvBXaKzvV4P2ZG1Wi0Wi/3oRz8KBoPvvPPOZ599tmtN3AC2YxFQKBRisVg6ncY2OixjB8NyECecOXOm0+l8//vff/7557kX1eBDSc9iOp1++umnU6nU/Pw8+rzhWIqgM0OQSvsOeMQxCoCeUkCXVpBoPHJOwX1xPD4CFzDy2KK+TQVy6SSIy8Irm1a6iNrypSq2SFA8DP8i4y2dTo+NjUEHzG/s4N3WWl+9evXSpUsffPDBF198geFs6MiFEGkkEmk2mzAyHCmXxW2PRqPf+c53XnrppampqVartbCwMDc312g0RnRdgUAg2IPAtEX1twzDQG5JsVjsdru3b99GHfJSqYTtQXiiA4olabTb7Wq1msvlPB5PpVIJh8PIBkskEuPj4/l8HjFabNBplrlhsApbqj/TX/XzP7vfl0A50SjLsnrdrmVZlm0pa/gZBnnz9lgj/5RrntKsJJvBDHQNJ2eG1LoUJx4Mpa3H7AU7jrtEZy3LqlQq2Wy22WzG4/FXX3316NGjt2/f3iN0VikFPtdsNpGJWa/Xse8/1BAKXfTdd9+9dOmS3+8/deqUh3nKrgetdSqVSqVS6XQahVVg8gr+SqmUUGJAeADJpt/vpyK3oJgg2RSCtW0b4VVoaqGIJ6JMy2JaDtLiVTk9DTID0zSj0SjlXYLRGsxhW2uN4gWgyIFAIBwOJxKJTCZz4MCBWCxmrO/2QF3RMIzLly//wz/8w9LSUj6f32AT3+fzISt2ZmZmdXV1pJ2Z6GwoFPre97736quvHjhwYGFhYXl5eWlpaY9sIwgEAsHuAFMDPGUx2kej0Ugk0u12EamtVqvZbLZSqWDuQ/QHG4A8BtlutyuVytraWrvdDgQCqVRqcnIyFovF4/FMJgOtLd7tdDo81Gr0WzGogbAl/5v21nAMnAS+ERtYtqW/0eNpZsWFCdSy3GUmtnqv9PpiA8VCWvQuvmar1QLT4DparnzgJ7SlnNiu4O6pYEqpWq327rvv+ny+l19+2eNUN95rC45yuXzr1q1oNHrgwIFwOLy0tARqi3e5CqfX61Wr1f/93/+t1WrPP//8qVOnUqlUNBpVw0w3+FOYTCZPnTp16NAhlPWDugBjAR0GMkpkl19aaw2PWI/jGquUQpcAuyVLWtu2ybfL1ecpyxLaA+Sf2baNQKlyVKQIx9JCWWuNtLB4PJ5IJNLpdDweD4fD0Cdspqddvnz5D3/4w7lz51ZWVmq12npclgLD+Xy+VCpBXzVS0I+FQhj79u1bW1v78ssvi8UiiT0EAoHgIQEJzGiiwUSQTCaVUjCOnJ6evnPnDjK64GaA+QJnQHilXq/jJFDZoZItyDHSr1OpFOK+CNzQTqPRX0OB/raZdhYXIkqqWckGZIZprZVtW71vakYMxnet/ooSGwRlNrhXg9OfiwC4DgCdtRyXdypOpJj7r5DX+4JN0dl6vf6HP/yhUCiMj48fO3YMUcNdMF3aEiqVSq1WO3r06LFjx0zTrNVqcCQYGvNvNpunT5++fPnyX/7lX0YiEa01ZUHRCXmHBBKJRCKRwGnX1tbm5ubIn187MgOj316A+DGCuC6jO8uyWq0WcU3y89JOYRIPqwpmOFWzbcffADXbwuEwfFhoKMGnMDzRPgiGGyysDx48ODY2hiAu/76uWywBMf4AACAASURBVEqNtyzr0qVL//iP/7i8vEzKAb6dxO8Y5BC5XG6kFRM4cN1gMLhv377x8fGPP/74iy++KBaLe+r5FAgEgl2AZrap2kkCMQwjkUhEo1Eo2bDvCpA5FynTQGcxiaDGJPYhYXHg9XrD4XA6nU4mk/F4XDvm5dhdtPqrtav+mXRwVrUcn3XFKp/hf61er6u6YLR8T9JmRRns/mK2I4pfuC7h8XgQToK3A28G/wkG/xaMFJuis3j08/l8s9lMpVI///nPE4nEmTNnbty4sXd0IXjQC4XC9evXUVIV4lHKqR9sZ7PZ/PDDD4vF4sGDB48dO/bSSy+dOHGCzrbeU4jeG4/HlVLpdLrRaGCNC8AsjJ57Wn0CmunKaUlHB4CtYqWLAQJFWQKBADQMWLmCGaMZ2BUCW8VHED7HYERVDb1ebyKRSCaTiUQiHo/HYjHu6rAe0Pjl5eW5ubmZmRmXDxp1YBpo0Hg4POxCJVtCMBg8ceLECy+8sG/fvlKp9OGHH545c2Z1dXXXGiAQCAR7BBQpxGYgJ3xQvlqWhRqNhmFAPkdJzDgDzU2krFNKVSqVUqkE9x5UkYzFYsjZiEajOB7CP5ptOQtUA5SUWutKJv46zmrbtmUZ2ujqLt81HTwhMPTFEd1eMFrsixqGgRmZJ8ZsI04suHdsls7WarVCoVAqlQKBwI9//OP9+/cvLCzMzMwM9aK6X9BawxF6amrqyJEjYHXaMWd2tdO27Waz+fHHH1+9enViYuI73/lOLBY7ePAgpAKUKT8IPKyxWCwWi+G0KKaysrKiHZE4xK+0GaH6F3AUiMXTD/8/y6lYG41GqcwBYsaQMWEc8Xq9zWaz1Wp5nDK2RGexE8QDtJBMKaX8fv/U1NT4+Hg8Hg+FQoP3zfUKBY97vd7S0tLFixe/+uorbEgpFpe1HSG/cuhsIBCoVqutVms3nwrTNJ966qlXXnklk8kUCoWPPvrogw8+2LWrCwQCwZ4C8SpKCMPUYxhGPB43TdNynGVLpVKlUikWiwazCOBA6AQhLbgiYAsuGAyilqRpmgjiQjiHzDCK3XCWyfkov8SgZsCJK39d5ZaXV1D9hBgX2s0bS3QWekLtSApJMktyi71DjR4SbIrOAoVC4Te/+U02m/2TP/kT0zSTyWQymaTl2n0H9Qrbtkul0szMDCxF1tbWENoc3Hqm/lCpVGZmZn71q19du3btxRdfPHnyZDqdhu3XxsCjHAwGx8bGQqHQxMQEFOJ4t9FoNJvNarUKlS2SsdAM8ppGshcUsaC5EN2nUqlQKATFgmVZ9Xq9VCrBPZfLEsCA8QWDwSDcx/CuYRioBIGYbiQSCYVCkCVt8n5iaT49Pf373//+yy+/HJpWhVQDMiZDUYlNXmKnEAgEjhw5cvz48Vwud+PGjWKxKEOJQCB4ODG44+/a+0Ytd1BP5RTFRZEFClhox25SOcHaVqtVKBQqlQpMeLCXiDnFtm3Edw2W3c9DqoPgkVQ6hrcTaRjKtpVSSK0eekIerB0dKHajHOaK26gcXYTt6AlFWnAfsQU6Wy6X33777Vu3bo2Pjz/xxBPpdHr//v3wYR5d+7YEorPY93/00UcPHTrUbreLxSKeNt4T+NMJt5Fbt25dvHix0Wj4fL5er5fJZLiNl1pfLYo9ffi24nWw1Wq1Wq1W8/l8Pp+HtJfSIcmrDytRyAb8fn8kEolGo2NjY4cPH0YNNnSeSqUSDAaRTIrRCp0Hith2uw172nA4DMkBxoIDBw6Mj49DgbDBfRsccdC2Wq22trb2xRdfvP/++1i+8yMx2CEiC5kv1u5DTzgiaK1DodDY2NjRo0cPHTr0/vvvf/LJJ0JnBQLBQwur37HVtTuPSScej2MPEPIwzEftdptct7Rjr04mAzDErFQqMO1B5CUUClHZBcjheEsGd0TtYRpT3V8n9utGasPr9dJLZHeg2Ny9HmXfPIh28/as9xXwN0LF2MVFQgvmaNepBLuPzdJZin2urq7++7//+6lTp44cOZJMJn/9618XCoW98CsOPky5XO7zzz83TXNqaiqXy1GnHTye1AilUun06dPz8/OPPvroyZMnX3755UOHDuGYDXrL4Ftgk+FwGJsycPhCmexWq6XYYo7WeT6fzzRNuH2Rx7Vy1PEowB2Px8kgEIwZl0N3Mk0T9bgxDHk8nmg0Cmq7ma5OsWpw5Xa7fenSpTfffPPixYvQQlj91VxQyxuBZ3ypXdYYaK1jsdgPfvCDH/zgB9/5zncajcbly5fPnj27tLQ0qC0RCASChwc0ZQ9VlEIwkE6nQUNRkcfn8y0tLaE4jsfjMU0TYVeKzhaLRWwS0o6cYu4ENEGQZRVlUNDm+2Az1MAE+nV0WWmllDYMqpHOS+DygO5Io7OukLDdbx+EFxGohrjRFZzmX1MwamwhOoufJ5/Pv/POO/Pz87/4xS+efvrp9957b3p6epdTfzaJUqlUKpX279//yCOPIOaqtQYFtPvl5/TwVSqVCxcufPbZZ4cPH37hhRdisRgsXfGwrnehwe6ERSrErwiy4iqIztL40uv1QAEDDr7xKOmHx+NBoW36INg5dmHwESq7QFbPg+1UG4ZOkdDaarWgprpw4cJ//Md/LC0tUaE12oQCw06lUihItmv00bVrFgqFXn755Z/97GeGYdy6devKlSuXLl3ahWYIBALBXoY9kDjlSgvz+/3JZBLEFN7n3W4XiRkoAGmaJkVelVKdTgdJz7VaDduALtmoSzmqlOKsgHQI9Ao1zLXvZzuCXUMbhtaabZDiDLzcpsfjgZaW3v7mYGX3/TcUyrYVPuIEjAcmSv5Z+oL8AIofkeMB94g0+quaDf2lBl+3lbLZ34PvDsXmWTOdQW94Qld79jgr3wKdJRiGkc1mf/3rX09OTobD4VOnTt24cSOfz+9443YExWJxZmYG9WPRCSFm3eAj7XZ7ZWXlwoULhULhxRdf/OlPf3rixAnKWNz2Sks7XgTK6TCWZcF4i2wCN3kqHrjFnhGtiYcS2c0AnapSqSwuLn766afnz5//9NNP6/U6MjcVo5LJZHJsbKxer8/OzsIQbRuX2za0k2GAodk0zU6n89Zbb505c+batWu72RKBQCDYa+ChUN1fBYBnaOHIQCCQyWSUUkibRnyxUql0u11so9NpadcOVuvIdSZzd6pARs70ap3QCTFReoX+5qFQG4lgTPag+umsZVtaaW1rw97FVDD1NQ23bMu2bKW+biN2QVFeAcGyHt06215vPv6a0GscJaUW7hXbobNa62KxeObMmfHx8WeffXZycnJ2dnbHW7ZTqNVqtVoNWf/Y+kdQkzwHBtHtdiF4/eKLLxYWFvbv3x+JRJLJJDwBjIGSJ8B6mwv878FMrE0GNV2XQzcw+t2q+f7LZs7pAvaSZmdnb968efbs2f/5n//J5/PkwKCYO3coFEomkygYs40L3TswfESj0ampKaXU7Ozs22+//frrr9+XxggEAsFeAEZ+hEUwwQ2NbvCZwufzJRIJOEIqpcrlcrvdXlxcrFQqaqAgLbYTkQSCOEK9Xu92u2Sw46Kz/IrrzXRcb2CzfG6llKUsQxuGYWilDcNQWtlaWcruWZbd7aqe5Rz/zSzIr4u467pB2a9Ds/2x2U3EKekbfa2I0Mrj8Rj4r9ezbLuHKp69nkWC4K/PbPd9WaW0oQ2PYRgGVTZzjqf/Bq67ueZtHrYTnuVnxm2x9Tf/PRDYDp21HaFMoVD45JNPlFLFYnGnG7bDgOYGuZyo75rL5TbT7Lm5uV/+8pe3b9/+8Y9/fOLEiUgksqXY53qL1Lvu+9/1nDsINOPWrVtvvfXWZ599tri4OD8/X6lUsDnF1ca4dd1ud3p6ulqt3su3uMcGBwKBP/3TP/3e97538+bN//u///v00093uQ0CgUCwZ6GdkgQEYpkuvalt2z6fL5lMPvroo61WKxQKffrpp7du3cpmsxCS0QmxU4dMa5/PVy6Xs9ms1+uNRqNwigTZVU4YmGvnePRxgylsMDpjK2VorQ3t0z7DKYfbbrc7bdWzLGS9WLbbF8z5KGO0fdoDZTGCjQgr/mJN+eZdZWjtqA4s27K6XwfCtKENw6NZPXlKDrOxorB6PavXg4bhm93dr+OxWhsIPFuWZdmWR3tsrYay2M1iG2qDbxG2Q2fJ6Q2Z+zvdpJ0Hdl6gaGm1WpFIJBKJQCQEdfkGn81ms6dPny6VSqlUyrIsFCNIpVJYzvJ9k/U4q9o0Ae3vips6fvMHq2EtBFut1+u5XO7jjz9+88034QxAelzFvqN27AZzuRzisvdrcwRP4MGDB48fP/7mm2++/vrru0+pBQKBYM9iMOyygZjN4/HEYjF47AQCAWQtV6vVSqWCDTqyO+h0OqiLG4lE6vV6pVJBPQVYd8HxABMuiJ12RLR2v6fBULhI9jc+uCg/ZBgGm4yUUqrTQcwFcWjI9gwPdLRK9b4+j03hRqZJJUGtUkobQxvGCps5L4FIdKmAvGEYHkN9zUFtpZXhMbw+r2Vb+F+7+42lksfZU1UUrtZKG4aCdIGsliiCrLZCT507uOlD+2dM1+f0Oq/s7TDtduisuh8BuXsB3y6xLKtYLLbb7Ugkcvjw4dXV1Xw+z7vQ4Gcty5qdnf3Nb37z4YcfhsPh55577qc//enExAS6EI0RfD9l8xLbXWaEri8I++vr16//5je/uXDhwldffVWtVqn78YO9Xi8cwZaWllCYd4P9o11Ao9H47//+748//vjatWsP1tMoEAgEewqYyILBYCaTwZQHO3PbtsvlMgSyUC+g8gIVxQUDBgkGyMEK76p7U4XSTMSVgXBSV848Sx5eVI9z6OW0k14yEMTdMu4aXcZ3p2UAJeFRbAizJ1rOlxkQKA965As2g23S2QcXtm3DZTYYDMIC+q6PtW3b2Wz2/PnzMFgtFAr79u07fPiwUiqZTMLYdVAqtJnGDF56Mx+866cGY8aufxGRXVtbg1LqwoULv/vd7z7//HPDKYc9eFHSucN5+76j2WyKiYFAIBDcO8DAUCkdfFQpBfns7OwsWBcoY7vdBsGlrDKlFGKx8NUBV+Op/XSJrcYdaKbjjmOa1S8AMQXthuslWO964STdj63fJ/dJVH+wjGZeqnNkMwsz19en1+kV4rhCZ7eHh47OArZt5/P5RqOBzP27BhphzoeV09WrV8vlciaTiUajL7/88k9+8pNUKqWcp/z+xiw3APWcbrdbq9W+/PLL119/HaHNXC63vLxsOEUOh96QjrOtQ8lh9+tr8hC42jDJQCAQCAR3BU1eWutgMDg+Pm7bttfrjcViiMhSFAPpX9igQ4wDFRZgnY76lDgh5HxEOlF3fUtjtWa1cOkVnBDaBjo5pXkQ8R2MxdrMnZMO2Aap1QMiXf6ltFOAF82jrwD9Hn2doYRV5rJ7xMNLZxGjpQddKYWVJZWHdh1PyWR37ty5c+cOkqLa7XY6nUY9sLGxsYmJCRh20Ad5bxn1k+rqVLQ67Ha79Xp9eXm5UCgopaDl/+yzz956662rV6/y3r5BCzFS3HfKPrjivy/NEAgEgm8H+CiqHdMYaA+01sVisdvttlotBGgty6rVas1m03ZcwFD/EhQTwVHbqchD/JXPMltqFY998rcMVvAMF6KUHkxV5FlJNrGqP1ZqMGz1dvGrDz0AcgtcxUVh6V8ecuafvUchxMOMh5TOqgFPEI/HgyJelUoFNa6GfoS6a61W63Q677777szMDJxff/jDH/7Zn/1ZJpOJx+PrPY7rdWa+ZFT92xabebKpG9v9cntw2Wq1Ojc399prr50/fx5DUqfTKZVKd+7cocNcDJVfnb+1p5aPe6oxAoFA8C0Ahn3TNFOp1OOPP47qkvV6HS6ztm3X63VYz4JBkpuBz+ezbRt2llprv98P2kdEcxvD9Xof5HMlaLQrQEtTGMwlqSWkmtDMqX0b92eT74LO4kU0kmsMqA3849RawVbx8NJZNSzUN7g2ch1DFArluGZmZmZmZujdVCo1OTmZSCSU0838fn86nU6lUtgcGWyAMaxkCBwYGo0GHP4GXXI5AaUG0+qZ+g/R2dnZ2dOnT7/33nuu2PN6y2W+mcJHB4FAIBB8y2AzKEef6vV6Jycn4dSey+X8fv+dO3eazSboLHbP/X4/SoWBh6EWA6WIKVYzbBsUjSZi1zyFdmpHSuvxeGA0pLXGXEnHcO2BZtIFziYR391qk1R/RsrgMfxf0vjCSckVStP9FvL3nqn20OKhprMc2EOBfhR6IHrUcADndkPxySefFAoF0zSRdGnbdiKRSKVS3//+91966aV4PB6LxdDPiX3ig6QBxYNuGEaz2SwUCrOzs19++eXi4mKhUIBciW/i0BhB2xmgs1As8d4L8dP8/Ly1Tila3vGUI7GH1IlcDgQCgUDwbQXxTuVUbVVK+Xy+eDx+8uRJv9+fyWTeeeed2dnZarUKOostzWKxCGVtz7GvQsUikLZ2u42SuZQrtqVW0dzkEgxwRogzwxcMZeQpBAt2y2Ox/Aw7ev/czSZKSgFXKjBB7ae2kUGExzHWHV3bvsUQOvs1bEesTc+TqwPY68i3CSsrK6urq/xBjMfjyWQS2vl4PA5BEp0flJRXvqaHu9lsokAXp7PtdpvTWXyc01kMRkRn1foaBv6tFVvgmqaJM3B1wU7eZYFAIBDsVVDEUTsFxgzDmJiYCIVC3W63WCz6/f7p6WlMUiiEq5QibwEUU0Dpdb7buV4g866NoYl4Pc0bhTMpVKS1JqUvoqGuGC0//45PcPxbK2dudd0KMmGg9QMaTzKDUTTsYYDQWTfIu87r9YZCIVT4gBZ+YzqLR5DvFCCkevr06cuXL0NswLuTi2sq1tstywIJrlQqzWaTXAVcwMGcubp2MVynXQ9aa7/fn0gkJiYmms3m/Pw8NFKjXsIKBAKBYC9AM9ctSpbC/yIKe+LECb/fn0qler2eaZrVarXZbFIIBhuDmC9M01RKGU4ZBaoNtu2gI99sdJle0V4iPxJEFhM36KztZKSRXtY1jY4URGpJwou20Z4qfRfFPIgEW4XQ2SHg1JDcqaBwV0q1221e+m/ws9RpIZav1Wpzc3N3vehgV3c905y2bv4kg62iI2GtEggEkJ1KnZ8kCndts0AgEAgeaGDA10xyxhkVpj+PxzMxMYFqmtlstlqtdjodlA1rNBoUAbWdxBIXg1Tb3eijoA//l8d6iZKCyKLCAizDsN0KvoiaoBTu5duV2yDZ632XwTmat99w6t8GAgHMthA3opgRQrObV/EKBiF0djhs24Y/K1ZyoVAomUyGQiGPx1Mul5eXl5vNplrn8aUncksd+K4H3+OKjS9wlVJerzcYDMbj8bGxsU6ns7CwUCgUqtWq5Tjs3su1BAKBQPAAwUVqsUOolCL/1GAw6Pf7jx07Vq/Xp6enZ2dny+Xy2tpasVjk+jTt5GMNtbwcXeOJMoI1+nw+aHaVU/zS7/ffe8GtTc7Cg3FfUkRAVQye0Gw2cbuwHWo7ikfB9iB0dl3QRoDWut1ut9ttKLXxCoqKdbvdRqNBfgKuj+9aUwcjr3xRSC3xeDymaWKBiL0kiCiwkG21WpyjCwQCgeDhAY38FPvgok/QxEwm89hjj6GYTr1ez2azUBRgEnTVSnCFTrfUmMEJdFCWSkda/VVkId5FaIaoOWY6Yu3bFj+4ZH66X4y7cfvxB1kxNBoN3DH4oIF2q3sTZjzMEDp7d9i23Ww2c7lcsVikF+Px+OTkZL1eX1lZ2UB7sGstVAN9YJBeezyeVCoVjUaxHCwWi/l8vlKpWJYFq129h6uaCQQCgWBE0P1mWLq/qpZyIqDhcHj//v2GYUB9Vy6XW60WJhESqmlmnopXtmHvyjHYMK40oDmLDkPgybZtbOIj6tlqtZAkbd+D6ewmWzs4jfLIN5rn9Xrr9brP50NFp0AgALEfNUwY7VYhdHZToH0B5ci6wQihhdda+/1+6makuN1qTb/1QEtJ0zRRqYX4KzoG1EI2czCBWqjtoNvtKqVs2261WlgOYqmKd4W/CgQCwcOJQdrEzf9dkVq/3x+JRCYmJvx+f6PRQHlbGNNS1UnuPzWK+Mhgg11XQcAYKlXTNNvtNrzDDMPoOeApZZuPRvEL6X5Fr+onsoPf2nbExEgLw7+WZaFiBdYDZMiAANOoM1gGvw5AzcDfxGpGtADYKQid3QLoMbUsq1Qq1Wo1LPtQLiEQCAQCATyI6C3EI+8F2qlr4vF4YD5AggetdSgUikQikUgkHA53HICktlqtYrFYLBbL5XKtVsOGSy6Xy+fzqr8CoUAgEAgeWqwnV1MDW+pQf8ZisWAwCGcuuL0ahoFdSm6MBQf3nd263IBOUZQHsc9erxcIBMLhsFIqFot5PJ56vQ7KiH+pYfdOZ3kD1qOzuBUUhAK37nQ6qVTq2LFjlUplcXERYSbUqgC12GTDtge6CdpxOlOOzBKhYq01qpyC9uxlLquEzm4b+LHxN1/KcGcQWo0hY5H2OFwVwshzDi7TYKtNB0opqsvQbrdRHRuLNq11u93Gow8hL0C8Fj5ftAcECrv790ogEAgEexDrEZQNXkdY0efzjY+Pa61R8BZmApVKpVar9Xo9ZFHTbLhT2tnBY4ZyR9TXhboAErtDhw6Zpun3+xFCJlkteWNtqW2bb/+gKALTN66LNqRSqRMnTtRqtUgksra2lsvlIpEITEIHK4lufLmtglMC7nfW6/WQY2MYBoJlXq937we/hM7uAHgtLr56sx1ZOrZj8BD7fD48rIotiaAiCIfD2BNpNpv5fD6fz+dyOZj8obJXqVSqVCqKLUO1U7sFTxuXOthOKpstDrICgUAg2ATuyjuJBcZiMSg+QXCbzebS0hIYUrlchg6BT1W7sB+IC4GWIfELW/nHjh1LJBKmac7PzxeLRbhtdjod8qAdUXu4ApCme9wH5GFTdl232x0fH19YWFhYWEBsi/PLzVxoSw2jX4SicnTfeLM9Hk8ymYxGo4h2b7Wo2y5D6OwOANxx6CignSogtEqDbpXexSMOV4FGo4FlJS1zsbSFc9Z68gDbtpvNJreG5q0a5fcWCAQCwbcEWw2gwsMrk8kgmbjX62UymaWlJZoQXdg1Oosv0ul0tNaxWGxqaur48ePpdDoYDKbT6VwuV6/X9SizwQgUYAKdJd0gtH/QBJ44cWJqasrj8WQymYmJiX379lE8m0r7buZCW2oYTk6kgnaS6W7gRcS2JycnI5HIHlcaKKGzOwguqeE/PMXzcQBkCbVajX/WlUNKFfDwETLvcF2FX5rkB4PtEQgEAoFgZ4E5K5FIwBXL7/cfOHBgdXUVMjnsDfLas7sTYaGJEhkm8Xh83759x48fz2QyyWRy//79uVwOigibVfEcEVdz0VkSFoLOgvQfOnQIZYQ9Hk+hUMhms9AHqq0sMLZHZ5Vzo4hsaKdosGJeFrFYLB6P7/E8MCV0dhTgD9bQh8weqLnlIqNDP+V6ktY789bbKxAIBALB1kBSN6UUdLTj4+OVSgW5yCBJVBVs1KzR9bft1DMKBALxeHxiYiIej3u9XgRrUbeMt2p0DSMRIF7BDSH5AeLHyWTSNM1AIBAMBqPRKB08UjpL35oIN6X30PJDKYXSoeFweI9zWSV0dkTYHq3c+FNCVQUCgUCwp4CEEFTNpH1Fyt8gzqSZGe2Ow5Vxxf9GhDgcDvv9ftM0M5kMZ9hqV3g2V9Aq5umLi0LACn+kYDAYi8W2QbK3QQ/4+W1WioJe57rnkd6lnYLQWYFAIBAIBFuAK0kDOlqbgY4k1kg8ckSN4UQWxJEoNZXqVUqBVdP/7g6dHbwtnM5qx73rPnLHQR0jby35zu5mk7YKobMCgUAgEAi2CaKMeqC0GP97dyia3V/ACKyRO1Ldl31OHvLk5Fs71YMpYMy1Gdu4yiaP5GZH+JSLqrru0iAd34MQOisQCAQCwRAgZ391dfXOnTv3uy17CK64Hc9bGhqXVVthWvfeNg7u+UOEjCtEd4dhD22kGmD8amCLf0RNGqSzrmu5WogVAvLYtnG5bDaL1Ld7bfeGEDorEAgEAoEb2LMGnb19+/b9bs6eA48yul4kaJZBv5ttU07JK1e8k2K3u0xnOUlVjnmR7s+7cq0EdpnOuv520Vm+DNjG5UBnR1GugsNNZxOJxCOPPPLMM8+MurqaQLD7OHToEBxb5PEWCATrAdO23+9PJBKhUGh6ehpFHwWDuCtPvXdOhiKXW7KtpVgsAoooxou3uKfBjjRvM42hv4kdupoxiJE2bIM7ORhlH3x3q5ibm4vH47FYjGQVo4CbziaTySNHjhiGMT4+PqJLCgT3C+l0+tFHH81kMpsvHigQCB5CUMJ+LBa7c+eOiA3uI+r1erVa3V54D1w2EomYpjmKtgk2iXQ6nUgkUO1sRJcYQme11slk8tixYyO6pEBwvxAMBuPxODrV/W6LQCDYo9Ba+3y+sbGxH/7whzIV3nd89dVXn3zySSQSOXDgwJYiEc1mc2FhodfrPfXUU4cOHRpdCwWbwdGjR6PR6Ogm3xFWKxYIBAKBQCC4F5w7d+611147ePDgiy++GAwGN//BYrF4/vz5arX6s5/97Nlnnx1dCwV7AbLlKhAIBAKBYE8jEAigWMOWPuX3+0fUHsFeg9BZgUAgEAgEexqBQCCRSITD4c1/pNvtCp19eLCnazwIBAKBQCAQCAQbQ+isQCAQCAQCgeABhtBZgUAgEAgEAsEDDKGzAoFAIBAIBIIHGEJnBQKBQCAQCAQPMITOCgQCgUAgEAgeYAidFQgEAoFAIBA8wBA6KxAIBAKBQCB4gCF0ViAQCAQCgUDwAEPorEAgEAgEAoHgAYbQWYFAIBAIBALBAwyhswKBQCAQCASCBxhCZwUCgUAgEAgEDzCEzgoEAoFAIBAIHmAInRUIBAKBQCAQPMAQOisQCAQCgUAgeIAhdFYgLFxdgQAAAEtJREFUEAgEAoFA8ABD6KxAIBAIBAKB4AGG0FmBQCAQCAQCwQMMobMCgUAgEAgEggcYQmcFAoFAIBAIBA8whM4KBAKBQCAQCB5g/D+c8oi8ktmDhwAAAABJRU5ErkJggg==;clipPath=inset(14.71% 4% 11.76% 66.33%);" vertex="1" parent="lN7-8wadFzlhvA5FBbrK-54">
          <mxGeometry y="16.691994705622836" width="105.70304687694421" height="89.06616846394269" as="geometry" />
        </mxCell>
        <mxCell id="lN7-8wadFzlhvA5FBbrK-56" value="&amp;nbsp;&lt;font style=&quot;font-size: 13px;&quot;&gt;&lt;b&gt;Input CT Volume&lt;/b&gt;&lt;/font&gt;" style="text;html=1;strokeColor=none;fillColor=none;align=center;verticalAlign=middle;whiteSpace=wrap;rounded=0;" vertex="1" parent="lN7-8wadFzlhvA5FBbrK-54">
          <mxGeometry x="-6.701293040825221" width="122.92851954089785" height="16.691427673955538" as="geometry" />
        </mxCell>
        <mxCell id="lN7-8wadFzlhvA5FBbrK-57" value="&lt;b&gt;Slice Stack&lt;br&gt;&lt;/b&gt;" style="edgeStyle=orthogonalEdgeStyle;rounded=0;orthogonalLoop=1;jettySize=auto;html=1;exitX=0.25;exitY=1;exitDx=0;exitDy=0;entryX=0;entryY=0.5;entryDx=0;entryDy=0;fillColor=#dae8fc;strokeColor=#6c8ebf;strokeWidth=2;" edge="1" parent="1" source="lN7-8wadFzlhvA5FBbrK-55" target="-fCg1miDJRomZMjWpIMa-4">
          <mxGeometry relative="1" as="geometry" />
        </mxCell>
        <mxCell id="lN7-8wadFzlhvA5FBbrK-61" value="Ground Truth&#xa;Mask Volume&#xa;" style="group;labelPosition=center;verticalLabelPosition=top;align=center;verticalAlign=bottom;fontStyle=1;spacingBottom=-7;" vertex="1" connectable="0" parent="1">
          <mxGeometry x="868" y="257" width="110" height="110" as="geometry" />
        </mxCell>
        <mxCell id="lN7-8wadFzlhvA5FBbrK-58" value="" style="shape=image;imageAspect=0;aspect=fixed;verticalLabelPosition=bottom;verticalAlign=top;image=https://www.mdpi.com/forecasting/forecasting-01-00005/article_deploy/html/images/forecasting-01-00005-g001.png;clipPath=inset(0.98% 1.67% 10.78% 56%);imageBorder=default;sketch=1;curveFitting=1;jiggle=2;imageBackground=default;" vertex="1" parent="lN7-8wadFzlhvA5FBbrK-61">
          <mxGeometry y="16.417910447761194" width="88.03283582089553" height="93.58208955223881" as="geometry" />
        </mxCell>
        <mxCell id="lN7-8wadFzlhvA5FBbrK-59" value="" style="shape=image;imageAspect=0;aspect=fixed;verticalLabelPosition=bottom;verticalAlign=top;image=https://www.mdpi.com/forecasting/forecasting-01-00005/article_deploy/html/images/forecasting-01-00005-g001.png;clipPath=inset(0.98% 1.67% 10.78% 56%);imageBorder=default;sketch=1;curveFitting=1;jiggle=2;imageBackground=default;" vertex="1" parent="lN7-8wadFzlhvA5FBbrK-61">
          <mxGeometry x="8.645080163470606" y="8.208955223880597" width="88.03283582089553" height="93.58208955223881" as="geometry" />
        </mxCell>
        <mxCell id="lN7-8wadFzlhvA5FBbrK-60" value="" style="shape=image;imageAspect=0;aspect=fixed;verticalLabelPosition=bottom;verticalAlign=top;image=https://www.mdpi.com/forecasting/forecasting-01-00005/article_deploy/html/images/forecasting-01-00005-g001.png;clipPath=inset(0.98% 1.67% 10.78% 56%);imageBorder=default;sketch=1;curveFitting=1;jiggle=2;imageBackground=default;" vertex="1" parent="lN7-8wadFzlhvA5FBbrK-61">
          <mxGeometry x="17.290160326941212" width="88.03283582089553" height="93.58208955223881" as="geometry" />
        </mxCell>
        <mxCell id="lN7-8wadFzlhvA5FBbrK-63" value="&amp;nbsp;&amp;nbsp; &lt;b&gt;Loss 3&lt;br&gt;&lt;/b&gt;" style="shape=flexArrow;endArrow=classic;startArrow=classic;html=1;rounded=0;entryX=0;entryY=0;entryDx=120;entryDy=51.5;width=6;endSize=4;startWidth=16;startSize=4;dashed=1;fillColor=#fad7ac;strokeColor=#b46504;entryPerimeter=0;edgeStyle=orthogonalEdgeStyle;exitX=0;exitY=0.5;exitDx=0;exitDy=0;" edge="1" parent="1" source="lN7-8wadFzlhvA5FBbrK-58" target="lN7-8wadFzlhvA5FBbrK-53">
          <mxGeometry width="100" height="100" relative="1" as="geometry">
            <mxPoint x="863" y="320" as="sourcePoint" />
            <mxPoint x="793" y="180" as="targetPoint" />
            <Array as="points">
              <mxPoint x="823" y="320" />
              <mxPoint x="823" y="460" />
            </Array>
          </mxGeometry>
        </mxCell>
        <mxCell id="lN7-8wadFzlhvA5FBbrK-62" value="&lt;b&gt;Loss 2&lt;br&gt;&lt;/b&gt;" style="shape=flexArrow;endArrow=classic;startArrow=classic;html=1;rounded=0;entryX=0;entryY=0;entryDx=120;entryDy=51.5;exitX=0;exitY=0.5;exitDx=0;exitDy=0;width=6;endSize=4;startWidth=16;startSize=4;dashed=1;fillColor=#fad7ac;strokeColor=#b46504;entryPerimeter=0;edgeStyle=orthogonalEdgeStyle;" edge="1" parent="1" source="lN7-8wadFzlhvA5FBbrK-58" target="lN7-8wadFzlhvA5FBbrK-50">
          <mxGeometry width="100" height="100" relative="1" as="geometry">
            <mxPoint x="843" y="333" as="sourcePoint" />
            <mxPoint x="793" y="180" as="targetPoint" />
          </mxGeometry>
        </mxCell>
        <mxCell id="lN7-8wadFzlhvA5FBbrK-64" value="" style="shape=image;html=1;verticalAlign=top;verticalLabelPosition=bottom;labelBackgroundColor=#ffffff;imageAspect=0;aspect=fixed;image=https://cdn4.iconfinder.com/data/icons/ionicons/512/icon-ios7-minus-outline-128.png" vertex="1" parent="1">
          <mxGeometry x="681" y="558" width="14" height="14" as="geometry" />
        </mxCell>
      </root>
    </mxGraphModel>
  </diagram>
</mxfile>
